<ttFont>
<head>
    <!-- Most of this table will be recalculated by the compiler -->
    <tableVersion value="1.0"/>
    <fontRevision value="2.0"/>
    <checkSumAdjustment value="0x8e4dade5"/>
    <magicNumber value="0x5f0f3cf5"/>
    <flags value="00000000 00001011"/>
    <unitsPerEm value="1000"/>
    <created value="Fri Apr 25 18:27:40 2014"/>
    <modified value="Fri Apr 25 18:27:40 2014"/>
    <xMin value="-108"/>
    <yMin value="-384"/>
    <xMax value="1314"/>
    <yMax value="1178"/>
    <macStyle value="00000000 00000000"/>
    <lowestRecPPEM value="8"/>
    <fontDirectionHint value="2"/>
    <indexToLocFormat value="0"/>
    <glyphDataFormat value="0"/>
  </head>
    <TTGlyph name="A" xMin="42" yMin="0" xMax="655" yMax="706">
      <contour>
        <pt x="216" y="208" on="1"/>
        <pt x="485" y="208" on="1"/>
        <pt x="351" y="594" on="1"/>
      </contour>
      <contour>
        <pt x="42" y="0" on="1"/>
        <pt x="305" y="706" on="1"/>
        <pt x="392" y="706" on="1"/>
        <pt x="655" y="0" on="1"/>
        <pt x="555" y="0" on="1"/>
        <pt x="507" y="138" on="1"/>
        <pt x="192" y="138" on="1"/>
        <pt x="144" y="0" on="1"/>
      </contour>
    </TTGlyph>
    <TTGlyph name="AE" xMin="48" yMin="0" xMax="761" yMax="706">
      <contour>
        <pt x="427" y="633" on="1"/>
        <pt x="309" y="633" on="1"/>
        <pt x="201" y="204" on="1"/>
        <pt x="427" y="204" on="1"/>
      </contour>
      <contour>
        <pt x="427" y="138" on="1"/>
        <pt x="183" y="138" on="1"/>
        <pt x="147" y="0" on="1"/>
        <pt x="48" y="1" on="1"/>
        <pt x="240" y="706" on="1"/>
        <pt x="757" y="706" on="1"/>
        <pt x="757" y="633" on="1"/>
        <pt x="520" y="633" on="1"/>
        <pt x="520" y="397" on="1"/>
        <pt x="727" y="397" on="1"/>
        <pt x="727" y="324" on="1"/>
        <pt x="520" y="324" on="1"/>
        <pt x="520" y="73" on="1"/>
        <pt x="761" y="73" on="1"/>
        <pt x="761" y="0" on="1"/>
        <pt x="427" y="0" on="1"/>
      </contour>
    </TTGlyph>
    <TTGlyph name="AEacute" xMin="48" yMin="0" xMax="761" yMax="962">
      <component glyphName="acute" x="373" y="188" flags="0x1004"/>
      <component glyphName="AE" x="0" y="0" flags="0x1004"/>
    </TTGlyph>
    <TTGlyph name="Aacute" xMin="42" yMin="0" xMax="655" yMax="962">
      <component glyphName="acute" x="226" y="188" flags="0x1004"/>
      <component glyphName="A" x="0" y="0" flags="0x1004"/>
    </TTGlyph>
    <TTGlyph name="Abreve" xMin="42" yMin="0" xMax="655" yMax="923">
      <component glyphName="breve" x="220" y="188" flags="0x1004"/>
      <component glyphName="A" x="0" y="0" flags="0x1004"/>
    </TTGlyph>
    <TTGlyph name="Acircumflex" xMin="42" yMin="0" xMax="655" yMax="946">
      <component glyphName="circumflex" x="225" y="188" flags="0x1004"/>
      <component glyphName="A" x="0" y="0" flags="0x1004"/>
    </TTGlyph>
    <TTGlyph name="Adieresis" xMin="42" yMin="0" xMax="655" yMax="932">
      <component glyphName="dieresis" x="100" y="188" flags="0x1004"/>
      <component glyphName="A" x="0" y="0" flags="0x1004"/>
    </TTGlyph>
    <TTGlyph name="Agrave" xMin="42" yMin="0" xMax="655" yMax="962">
      <component glyphName="grave" x="184" y="188" flags="0x1004"/>
      <component glyphName="A" x="0" y="0" flags="0x1004"/>
    </TTGlyph>
    <TTGlyph name="Amacron" xMin="42" yMin="0" xMax="655" yMax="905">
      <component glyphName="macron" x="225" y="188" flags="0x1004"/>
      <component glyphName="A" x="0" y="0" flags="0x1004"/>
    </TTGlyph>
    <TTGlyph name="Aogonek" xMin="42" yMin="-232" xMax="669" yMax="706">
      <component glyphName="ogonek" x="470" y="0" flags="0x1004"/>
      <component glyphName="A" x="0" y="0" flags="0x1004"/>
    </TTGlyph>
    <TTGlyph name="Aring" xMin="42" yMin="0" xMax="655" yMax="932">
      <component glyphName="ring" x="225" y="188" flags="0x1004"/>
      <component glyphName="A" x="0" y="0" flags="0x1004"/>
    </TTGlyph>
    <TTGlyph name="Aringacute" xMin="42" yMin="0" xMax="655" yMax="1178">
      <component glyphName="acute" x="219" y="404" flags="0x1004"/>
      <component glyphName="Aring" x="0" y="0" flags="0x1004"/>
    </TTGlyph>
    <TTGlyph name="Atilde" xMin="42" yMin="0" xMax="655" yMax="894">
      <component glyphName="tilde" x="225" y="188" flags="0x1004"/>
      <component glyphName="A" x="0" y="0" flags="0x1004"/>
    </TTGlyph>
    <TTGlyph name="B" xMin="106" yMin="0" xMax="631" yMax="706">
      <contour>
        <pt x="205" y="407" on="1"/>
        <pt x="386" y="407" on="1"/>
        <pt x="449" y="407" on="0"/>
        <pt x="499" y="460" on="0"/>
        <pt x="499" y="511" on="1"/>
        <pt x="499" y="586" on="0"/>
        <pt x="438" y="632" on="0"/>
        <pt x="347" y="632" on="1"/>
        <pt x="205" y="632" on="1"/>
      </contour>
      <contour>
        <pt x="205" y="73" on="1"/>
        <pt x="376" y="73" on="1"/>
        <pt x="463" y="73" on="0"/>
        <pt x="534" y="129" on="0"/>
        <pt x="534" y="211" on="1"/>
        <pt x="534" y="340" on="0"/>
        <pt x="400" y="340" on="1"/>
        <pt x="205" y="340" on="1"/>
      </contour>
      <contour>
        <pt x="106" y="0" on="1"/>
        <pt x="106" y="706" on="1"/>
        <pt x="362" y="706" on="1"/>
        <pt x="504" y="706" on="0"/>
        <pt x="553" y="654" on="1"/>
        <pt x="578" y="628" on="0"/>
        <pt x="597" y="562" on="0"/>
        <pt x="597" y="512" on="1"/>
        <pt x="595" y="407" on="0"/>
        <pt x="508" y="377" on="1"/>
        <pt x="569" y="363" on="0"/>
        <pt x="631" y="270" on="0"/>
        <pt x="631" y="201" on="1"/>
        <pt x="631" y="96" on="0"/>
        <pt x="513" y="0" on="0"/>
        <pt x="384" y="0" on="1"/>
      </contour>
    </TTGlyph>
    <TTGlyph name="C" xMin="89" yMin="-11" xMax="635" yMax="717">
      <contour>
        <pt x="372" y="-11" on="1"/>
        <pt x="200" y="-11" on="0"/>
        <pt x="142" y="59" on="1"/>
        <pt x="112" y="94" on="0"/>
        <pt x="89" y="177" on="0"/>
        <pt x="89" y="237" on="1"/>
        <pt x="89" y="459" on="1"/>
        <pt x="89" y="520" on="0"/>
        <pt x="111" y="606" on="0"/>
        <pt x="140" y="643" on="1"/>
        <pt x="200" y="717" on="0"/>
        <pt x="371" y="717" on="1"/>
        <pt x="527" y="717" on="0"/>
        <pt x="583" y="659" on="1"/>
        <pt x="612" y="629" on="0"/>
        <pt x="635" y="551" on="0"/>
        <pt x="635" y="493" on="1"/>
        <pt x="635" y="487" on="1"/>
        <pt x="542" y="479" on="1"/>
        <pt x="542" y="492" on="1"/>
        <pt x="540" y="584" on="0"/>
        <pt x="470" y="638" on="0"/>
        <pt x="274" y="638" on="0"/>
        <pt x="188" y="568" on="0"/>
        <pt x="188" y="477" on="1"/>
        <pt x="188" y="222" on="1"/>
        <pt x="188" y="132" on="0"/>
        <pt x="275" y="68" on="0"/>
        <pt x="374" y="68" on="1"/>
        <pt x="425" y="68" on="0"/>
        <pt x="480" y="76" on="0"/>
        <pt x="525" y="105" on="0"/>
        <pt x="541" y="160" on="0"/>
        <pt x="542" y="207" on="1"/>
        <pt x="542" y="219" on="1"/>
        <pt x="635" y="219" on="1"/>
        <pt x="635" y="214" on="1"/>
        <pt x="635" y="156" on="0"/>
        <pt x="615" y="80" on="0"/>
        <pt x="588" y="49" on="1"/>
        <pt x="536" y="-11" on="0"/>
      </contour>
    </TTGlyph>
    <TTGlyph name="Cacute" xMin="89" yMin="-11" xMax="635" yMax="962">
      <component glyphName="acute" x="250" y="188" flags="0x1004"/>
      <component glyphName="C" x="0" y="0" flags="0x1004"/>
    </TTGlyph>
    <TTGlyph name="Ccaron" xMin="89" yMin="-11" xMax="635" yMax="946">
      <component glyphName="caron" x="249" y="188" flags="0x1004"/>
      <component glyphName="C" x="0" y="0" flags="0x1004"/>
    </TTGlyph>
    <TTGlyph name="Ccedilla" xMin="89" yMin="-237" xMax="635" yMax="717">
      <component glyphName="cedilla" x="274" y="0" flags="0x1004"/>
      <component glyphName="C" x="0" y="0" flags="0x1004"/>
    </TTGlyph>
    <TTGlyph name="Ccircumflex" xMin="89" yMin="-11" xMax="635" yMax="946">
      <component glyphName="circumflex" x="249" y="188" flags="0x1004"/>
      <component glyphName="C" x="0" y="0" flags="0x1004"/>
    </TTGlyph>
    <TTGlyph name="Cdotaccent" xMin="89" yMin="-11" xMax="635" yMax="938">
      <component glyphName="dotaccent" x="249" y="188" flags="0x1004"/>
      <component glyphName="C" x="0" y="0" flags="0x1004"/>
    </TTGlyph>
    <TTGlyph name="D" xMin="106" yMin="0" xMax="654" yMax="706">
      <contour>
        <pt x="106" y="0" on="1"/>
        <pt x="106" y="706" on="1"/>
        <pt x="387" y="706" on="1"/>
        <pt x="526" y="706" on="0"/>
        <pt x="654" y="577" on="0"/>
        <pt x="654" y="468" on="1"/>
        <pt x="654" y="235" on="1"/>
        <pt x="654" y="0" on="0"/>
        <pt x="388" y="0" on="1"/>
      </contour>
      <contour>
        <pt x="205" y="73" on="1"/>
        <pt x="378" y="73" on="1"/>
        <pt x="465" y="73" on="0"/>
        <pt x="556" y="136" on="0"/>
        <pt x="556" y="226" on="1"/>
        <pt x="556" y="474" on="1"/>
        <pt x="556" y="564" on="0"/>
        <pt x="463" y="632" on="0"/>
        <pt x="378" y="632" on="1"/>
        <pt x="205" y="632" on="1"/>
      </contour>
    </TTGlyph>
    <TTGlyph name="Dcaron" xMin="106" yMin="0" xMax="654" yMax="946">
      <component glyphName="caron" x="225" y="188" flags="0x1004"/>
      <component glyphName="D" x="0" y="0" flags="0x1004"/>
    </TTGlyph>
    <TTGlyph name="Dcroat" xMin="10" yMin="0" xMax="654" yMax="706">
      <contour>
        <pt x="106" y="0" on="1"/>
        <pt x="106" y="339" on="1"/>
        <pt x="10" y="339" on="1"/>
        <pt x="10" y="408" on="1"/>
        <pt x="106" y="408" on="1"/>
        <pt x="106" y="706" on="1"/>
        <pt x="387" y="706" on="1"/>
        <pt x="526" y="706" on="0"/>
        <pt x="654" y="577" on="0"/>
        <pt x="654" y="468" on="1"/>
        <pt x="654" y="235" on="1"/>
        <pt x="654" y="0" on="0"/>
        <pt x="388" y="0" on="1"/>
      </contour>
      <contour>
        <pt x="205" y="408" on="1"/>
        <pt x="332" y="408" on="1"/>
        <pt x="332" y="339" on="1"/>
        <pt x="205" y="339" on="1"/>
        <pt x="205" y="73" on="1"/>
        <pt x="378" y="73" on="1"/>
        <pt x="465" y="73" on="0"/>
        <pt x="556" y="136" on="0"/>
        <pt x="556" y="226" on="1"/>
        <pt x="556" y="474" on="1"/>
        <pt x="556" y="564" on="0"/>
        <pt x="463" y="632" on="0"/>
        <pt x="378" y="632" on="1"/>
        <pt x="205" y="632" on="1"/>
      </contour>
    </TTGlyph>
    <TTGlyph name="E" xMin="106" yMin="0" xMax="553" yMax="706">
      <contour>
        <pt x="106" y="0" on="1"/>
        <pt x="106" y="706" on="1"/>
        <pt x="547" y="706" on="1"/>
        <pt x="547" y="633" on="1"/>
        <pt x="205" y="633" on="1"/>
        <pt x="205" y="400" on="1"/>
        <pt x="507" y="400" on="1"/>
        <pt x="507" y="327" on="1"/>
        <pt x="205" y="327" on="1"/>
        <pt x="205" y="73" on="1"/>
        <pt x="553" y="73" on="1"/>
        <pt x="553" y="0" on="1"/>
      </contour>
    </TTGlyph>
    <TTGlyph name="Eacute" xMin="106" yMin="0" xMax="553" yMax="962">
      <component glyphName="acute" x="206" y="188" flags="0x1004"/>
      <component glyphName="E" x="0" y="0" flags="0x1004"/>
    </TTGlyph>
    <TTGlyph name="Ebreve" xMin="106" yMin="0" xMax="553" yMax="923">
      <component glyphName="breve" x="200" y="188" flags="0x1004"/>
      <component glyphName="E" x="0" y="0" flags="0x1004"/>
    </TTGlyph>
    <TTGlyph name="Ecaron" xMin="106" yMin="0" xMax="553" yMax="946">
      <component glyphName="caron" x="205" y="188" flags="0x1004"/>
      <component glyphName="E" x="0" y="0" flags="0x1004"/>
    </TTGlyph>
    <TTGlyph name="Ecircumflex" xMin="106" yMin="0" xMax="553" yMax="946">
      <component glyphName="circumflex" x="205" y="188" flags="0x1004"/>
      <component glyphName="E" x="0" y="0" flags="0x1004"/>
    </TTGlyph>
    <TTGlyph name="Edieresis" xMin="106" yMin="0" xMax="553" yMax="932">
      <component glyphName="dieresis" x="80" y="188" flags="0x1004"/>
      <component glyphName="E" x="0" y="0" flags="0x1004"/>
    </TTGlyph>
    <TTGlyph name="Edotaccent" xMin="106" yMin="0" xMax="553" yMax="938">
      <component glyphName="dotaccent" x="205" y="188" flags="0x1004"/>
      <component glyphName="E" x="0" y="0" flags="0x1004"/>
    </TTGlyph>
    <TTGlyph name="Egrave" xMin="106" yMin="0" xMax="553" yMax="962">
      <component glyphName="grave" x="164" y="188" flags="0x1004"/>
      <component glyphName="E" x="0" y="0" flags="0x1004"/>
    </TTGlyph>
    <TTGlyph name="Emacron" xMin="106" yMin="0" xMax="553" yMax="905">
      <component glyphName="macron" x="205" y="188" flags="0x1004"/>
      <component glyphName="E" x="0" y="0" flags="0x1004"/>
    </TTGlyph>
    <TTGlyph name="Eng" xMin="104" yMin="-182" xMax="669" yMax="706">
      <contour>
        <pt x="669" y="60" on="1"/>
        <pt x="669" y="-72" on="0"/>
        <pt x="531" y="-182" on="0"/>
        <pt x="401" y="-182" on="1"/>
        <pt x="387" y="-113" on="1"/>
        <pt x="487" y="-104" on="0"/>
        <pt x="512" y="-90" on="1"/>
        <pt x="551" y="-68" on="0"/>
        <pt x="560" y="-42" on="1"/>
        <pt x="577" y="1" on="0"/>
        <pt x="577" y="56" on="1"/>
        <pt x="577" y="93" on="1"/>
        <pt x="190" y="539" on="1"/>
        <pt x="190" y="0" on="1"/>
        <pt x="104" y="0" on="1"/>
        <pt x="104" y="706" on="1"/>
        <pt x="178" y="706" on="1"/>
        <pt x="583" y="229" on="1"/>
        <pt x="583" y="706" on="1"/>
        <pt x="669" y="706" on="1"/>
      </contour>
    </TTGlyph>
    <TTGlyph name="Eogonek" xMin="106" yMin="-232" xMax="553" yMax="706">
      <component glyphName="ogonek" x="255" y="0" flags="0x1004"/>
      <component glyphName="E" x="0" y="0" flags="0x1004"/>
    </TTGlyph>
    <TTGlyph name="Eth" xMin="10" yMin="0" xMax="654" yMax="706">
      <contour>
        <pt x="205" y="339" on="1"/>
        <pt x="205" y="73" on="1"/>
        <pt x="378" y="73" on="1"/>
        <pt x="465" y="73" on="0"/>
        <pt x="556" y="136" on="0"/>
        <pt x="556" y="226" on="1"/>
        <pt x="556" y="474" on="1"/>
        <pt x="556" y="564" on="0"/>
        <pt x="463" y="632" on="0"/>
        <pt x="378" y="632" on="1"/>
        <pt x="205" y="632" on="1"/>
        <pt x="205" y="408" on="1"/>
        <pt x="332" y="408" on="1"/>
        <pt x="332" y="339" on="1"/>
      </contour>
      <contour>
        <pt x="106" y="0" on="1"/>
        <pt x="106" y="339" on="1"/>
        <pt x="10" y="339" on="1"/>
        <pt x="10" y="408" on="1"/>
        <pt x="106" y="408" on="1"/>
        <pt x="106" y="706" on="1"/>
        <pt x="387" y="706" on="1"/>
        <pt x="526" y="706" on="0"/>
        <pt x="654" y="577" on="0"/>
        <pt x="654" y="468" on="1"/>
        <pt x="654" y="235" on="1"/>
        <pt x="654" y="0" on="0"/>
        <pt x="388" y="0" on="1"/>
      </contour>
    </TTGlyph>
    <TTGlyph name="Euro" xMin="0" yMin="-11" xMax="635" yMax="717">
      <contour>
        <pt x="363" y="247" on="1"/>
        <pt x="188" y="247" on="1"/>
        <pt x="188" y="222" on="1"/>
        <pt x="188" y="132" on="0"/>
        <pt x="275" y="68" on="0"/>
        <pt x="374" y="68" on="1"/>
        <pt x="425" y="68" on="0"/>
        <pt x="480" y="76" on="0"/>
        <pt x="525" y="105" on="0"/>
        <pt x="541" y="160" on="0"/>
        <pt x="542" y="207" on="1"/>
        <pt x="542" y="219" on="1"/>
        <pt x="635" y="219" on="1"/>
        <pt x="635" y="214" on="1"/>
        <pt x="635" y="156" on="0"/>
        <pt x="615" y="80" on="0"/>
        <pt x="588" y="49" on="1"/>
        <pt x="536" y="-11" on="0"/>
        <pt x="372" y="-11" on="1"/>
        <pt x="200" y="-11" on="0"/>
        <pt x="142" y="59" on="1"/>
        <pt x="112" y="94" on="0"/>
        <pt x="89" y="177" on="0"/>
        <pt x="89" y="237" on="1"/>
        <pt x="89" y="247" on="1"/>
        <pt x="0" y="247" on="1"/>
        <pt x="0" y="312" on="1"/>
        <pt x="89" y="312" on="1"/>
        <pt x="89" y="400" on="1"/>
        <pt x="0" y="400" on="1"/>
        <pt x="0" y="465" on="1"/>
        <pt x="89" y="465" on="1"/>
        <pt x="89" y="524" on="0"/>
        <pt x="113" y="609" on="0"/>
        <pt x="142" y="645" on="1"/>
        <pt x="201" y="717" on="0"/>
        <pt x="371" y="717" on="1"/>
        <pt x="527" y="717" on="0"/>
        <pt x="583" y="659" on="1"/>
        <pt x="612" y="629" on="0"/>
        <pt x="635" y="551" on="0"/>
        <pt x="635" y="493" on="1"/>
        <pt x="635" y="487" on="1"/>
        <pt x="542" y="479" on="1"/>
        <pt x="542" y="492" on="1"/>
        <pt x="540" y="584" on="0"/>
        <pt x="470" y="638" on="0"/>
        <pt x="274" y="638" on="0"/>
        <pt x="188" y="568" on="0"/>
        <pt x="188" y="477" on="1"/>
        <pt x="188" y="465" on="1"/>
        <pt x="363" y="465" on="1"/>
        <pt x="363" y="400" on="1"/>
        <pt x="188" y="400" on="1"/>
        <pt x="188" y="312" on="1"/>
        <pt x="363" y="312" on="1"/>
      </contour>
    </TTGlyph>
    <TTGlyph name="F" xMin="106" yMin="0" xMax="507" yMax="706">
      <contour>
        <pt x="106" y="0" on="1"/>
        <pt x="106" y="706" on="1"/>
        <pt x="507" y="706" on="1"/>
        <pt x="507" y="633" on="1"/>
        <pt x="205" y="633" on="1"/>
        <pt x="205" y="397" on="1"/>
        <pt x="490" y="397" on="1"/>
        <pt x="490" y="324" on="1"/>
        <pt x="205" y="324" on="1"/>
        <pt x="205" y="0" on="1"/>
      </contour>
    </TTGlyph>
    <TTGlyph name="G" xMin="91" yMin="-11" xMax="664" yMax="717">
      <contour>
        <pt x="385" y="638" on="1"/>
        <pt x="286" y="638" on="0"/>
        <pt x="189" y="567" on="0"/>
        <pt x="189" y="477" on="1"/>
        <pt x="189" y="222" on="1"/>
        <pt x="189" y="133" on="0"/>
        <pt x="284" y="68" on="0"/>
        <pt x="484" y="68" on="0"/>
        <pt x="565" y="132" on="0"/>
        <pt x="565" y="222" on="1"/>
        <pt x="565" y="287" on="1"/>
        <pt x="398" y="287" on="1"/>
        <pt x="398" y="359" on="1"/>
        <pt x="664" y="359" on="1"/>
        <pt x="664" y="0" on="1"/>
        <pt x="610" y="0" on="1"/>
        <pt x="598" y="120" on="1"/>
        <pt x="578" y="-11" on="0"/>
        <pt x="385" y="-11" on="1"/>
        <pt x="213" y="-11" on="0"/>
        <pt x="149" y="58" on="1"/>
        <pt x="117" y="93" on="0"/>
        <pt x="91" y="178" on="0"/>
        <pt x="91" y="237" on="1"/>
        <pt x="91" y="459" on="1"/>
        <pt x="91" y="519" on="0"/>
        <pt x="117" y="607" on="0"/>
        <pt x="148" y="644" on="1"/>
        <pt x="212" y="717" on="0"/>
        <pt x="385" y="717" on="1"/>
        <pt x="549" y="717" on="0"/>
        <pt x="604" y="660" on="1"/>
        <pt x="632" y="630" on="0"/>
        <pt x="655" y="560" on="0"/>
        <pt x="656" y="509" on="1"/>
        <pt x="656" y="496" on="1"/>
        <pt x="566" y="489" on="1"/>
        <pt x="566" y="584" on="0"/>
        <pt x="493" y="638" on="0"/>
      </contour>
    </TTGlyph>
    <TTGlyph name="Gbreve" xMin="91" yMin="-11" xMax="664" yMax="923">
      <component glyphName="breve" x="249" y="188" flags="0x1004"/>
      <component glyphName="G" x="0" y="0" flags="0x1004"/>
    </TTGlyph>
    <TTGlyph name="Gcaron" xMin="91" yMin="-11" xMax="664" yMax="946">
      <component glyphName="caron" x="254" y="188" flags="0x1004"/>
      <component glyphName="G" x="0" y="0" flags="0x1004"/>
    </TTGlyph>
    <TTGlyph name="Gcircumflex" xMin="91" yMin="-11" xMax="664" yMax="946">
      <component glyphName="circumflex" x="254" y="188" flags="0x1004"/>
      <component glyphName="G" x="0" y="0" flags="0x1004"/>
    </TTGlyph>
    <TTGlyph name="Gdotaccent" xMin="91" yMin="-11" xMax="664" yMax="938">
      <component glyphName="dotaccent" x="254" y="188" flags="0x1004"/>
      <component glyphName="G" x="0" y="0" flags="0x1004"/>
    </TTGlyph>
    <TTGlyph name="H" xMin="104" yMin="0" xMax="643" yMax="706">
      <contour>
        <pt x="104" y="0" on="1"/>
        <pt x="104" y="706" on="1"/>
        <pt x="202" y="706" on="1"/>
        <pt x="202" y="394" on="1"/>
        <pt x="544" y="394" on="1"/>
        <pt x="544" y="706" on="1"/>
        <pt x="643" y="706" on="1"/>
        <pt x="643" y="0" on="1"/>
        <pt x="544" y="0" on="1"/>
        <pt x="544" y="322" on="1"/>
        <pt x="202" y="322" on="1"/>
        <pt x="202" y="0" on="1"/>
      </contour>
    </TTGlyph>
    <TTGlyph name="Hbar" xMin="70" yMin="0" xMax="680" yMax="706">
      <contour>
        <pt x="202" y="518" on="1"/>
        <pt x="202" y="394" on="1"/>
        <pt x="544" y="394" on="1"/>
        <pt x="544" y="518" on="1"/>
      </contour>
      <contour>
        <pt x="104" y="0" on="1"/>
        <pt x="104" y="518" on="1"/>
        <pt x="70" y="518" on="1"/>
        <pt x="70" y="578" on="1"/>
        <pt x="104" y="578" on="1"/>
        <pt x="104" y="706" on="1"/>
        <pt x="202" y="706" on="1"/>
        <pt x="202" y="578" on="1"/>
        <pt x="544" y="578" on="1"/>
        <pt x="544" y="706" on="1"/>
        <pt x="643" y="706" on="1"/>
        <pt x="643" y="578" on="1"/>
        <pt x="680" y="578" on="1"/>
        <pt x="680" y="518" on="1"/>
        <pt x="643" y="518" on="1"/>
        <pt x="643" y="0" on="1"/>
        <pt x="544" y="0" on="1"/>
        <pt x="544" y="322" on="1"/>
        <pt x="202" y="322" on="1"/>
        <pt x="202" y="0" on="1"/>
      </contour>
    </TTGlyph>
    <TTGlyph name="Hcircumflex" xMin="104" yMin="0" xMax="643" yMax="946">
      <component glyphName="circumflex" x="243" y="188" flags="0x1004"/>
      <component glyphName="H" x="0" y="0" flags="0x1004"/>
    </TTGlyph>
    <TTGlyph name="I" xMin="93" yMin="0" xMax="460" yMax="706">
      <contour>
        <pt x="93" y="0" on="1"/>
        <pt x="93" y="73" on="1"/>
        <pt x="228" y="73" on="1"/>
        <pt x="228" y="633" on="1"/>
        <pt x="93" y="633" on="1"/>
        <pt x="93" y="706" on="1"/>
        <pt x="460" y="706" on="1"/>
        <pt x="460" y="633" on="1"/>
        <pt x="326" y="633" on="1"/>
        <pt x="326" y="73" on="1"/>
        <pt x="460" y="73" on="1"/>
        <pt x="460" y="0" on="1"/>
      </contour>
    </TTGlyph>
    <TTGlyph name="IJ" xMin="93" yMin="-8" xMax="1034" yMax="706">
      <component glyphName="J" x="552" y="0" flags="0x1004"/>
      <component glyphName="I" x="0" y="0" flags="0x1004"/>
    </TTGlyph>
    <TTGlyph name="Iacute" xMin="93" yMin="0" xMax="460" yMax="962">
      <component glyphName="acute" x="153" y="188" flags="0x1004"/>
      <component glyphName="I" x="0" y="0" flags="0x1004"/>
    </TTGlyph>
    <TTGlyph name="Ibreve" xMin="93" yMin="0" xMax="460" yMax="923">
      <component glyphName="breve" x="147" y="188" flags="0x1004"/>
      <component glyphName="I" x="0" y="0" flags="0x1004"/>
    </TTGlyph>
    <TTGlyph name="Icircumflex" xMin="93" yMin="0" xMax="460" yMax="946">
      <component glyphName="circumflex" x="152" y="188" flags="0x1004"/>
      <component glyphName="I" x="0" y="0" flags="0x1004"/>
    </TTGlyph>
    <TTGlyph name="Idieresis" xMin="93" yMin="0" xMax="460" yMax="932">
      <component glyphName="dieresis" x="27" y="188" flags="0x1004"/>
      <component glyphName="I" x="0" y="0" flags="0x1004"/>
    </TTGlyph>
    <TTGlyph name="Idotaccent" xMin="93" yMin="0" xMax="460" yMax="938">
      <component glyphName="dotaccent" x="152" y="188" flags="0x1004"/>
      <component glyphName="I" x="0" y="0" flags="0x1004"/>
    </TTGlyph>
    <TTGlyph name="Igrave" xMin="93" yMin="0" xMax="460" yMax="962">
      <component glyphName="grave" x="111" y="188" flags="0x1004"/>
      <component glyphName="I" x="0" y="0" flags="0x1004"/>
    </TTGlyph>
    <TTGlyph name="Imacron" xMin="93" yMin="0" xMax="460" yMax="905">
      <component glyphName="macron" x="152" y="188" flags="0x1004"/>
      <component glyphName="I" x="0" y="0" flags="0x1004"/>
    </TTGlyph>
    <TTGlyph name="Iogonek" xMin="93" yMin="-232" xMax="460" yMax="706">
      <component glyphName="ogonek" x="156" y="0" flags="0x1004"/>
      <component glyphName="I" x="0" y="0" flags="0x1004"/>
    </TTGlyph>
    <TTGlyph name="Itilde" xMin="93" yMin="0" xMax="460" yMax="894">
      <component glyphName="tilde" x="152" y="188" flags="0x1004"/>
      <component glyphName="I" x="0" y="0" flags="0x1004"/>
    </TTGlyph>
    <TTGlyph name="J" xMin="50" yMin="-8" xMax="482" yMax="706">
      <contour>
        <pt x="255" y="-8" on="1"/>
        <pt x="198" y="-8" on="0"/>
        <pt x="78" y="19" on="0"/>
        <pt x="50" y="34" on="1"/>
        <pt x="77" y="110" on="1"/>
        <pt x="101" y="98" on="0"/>
        <pt x="205" y="72" on="0"/>
        <pt x="252" y="72" on="1"/>
        <pt x="384" y="72" on="0"/>
        <pt x="384" y="212" on="1"/>
        <pt x="384" y="625" on="1"/>
        <pt x="114" y="625" on="1"/>
        <pt x="114" y="706" on="1"/>
        <pt x="482" y="706" on="1"/>
        <pt x="482" y="210" on="1"/>
        <pt x="482" y="106" on="0"/>
        <pt x="371" y="-8" on="0"/>
      </contour>
    </TTGlyph>
    <TTGlyph name="Jcircumflex" xMin="50" yMin="-8" xMax="482" yMax="946">
      <component glyphName="circumflex" x="190" y="188" flags="0x1004"/>
      <component glyphName="J" x="0" y="0" flags="0x1004"/>
    </TTGlyph>
    <TTGlyph name="K" xMin="106" yMin="0" xMax="659" yMax="706">
      <contour>
        <pt x="106" y="0" on="1"/>
        <pt x="106" y="706" on="1"/>
        <pt x="205" y="706" on="1"/>
        <pt x="205" y="321" on="1"/>
        <pt x="266" y="396" on="0"/>
        <pt x="434" y="586" on="1"/>
        <pt x="502" y="663" on="0"/>
        <pt x="539" y="706" on="1"/>
        <pt x="645" y="706" on="1"/>
        <pt x="380" y="390" on="1"/>
        <pt x="659" y="0" on="1"/>
        <pt x="550" y="0" on="1"/>
        <pt x="311" y="337" on="1"/>
        <pt x="205" y="229" on="1"/>
        <pt x="205" y="0" on="1"/>
      </contour>
    </TTGlyph>
    <TTGlyph name="L" xMin="106" yMin="0" xMax="521" yMax="706">
      <contour>
        <pt x="106" y="0" on="1"/>
        <pt x="106" y="706" on="1"/>
        <pt x="205" y="706" on="1"/>
        <pt x="205" y="76" on="1"/>
        <pt x="521" y="76" on="1"/>
        <pt x="521" y="0" on="1"/>
      </contour>
    </TTGlyph>
    <TTGlyph name="Lacute" xMin="106" yMin="0" xMax="521" yMax="962">
      <component glyphName="acute" x="167" y="188" flags="0x1004"/>
      <component glyphName="L" x="0" y="0" flags="0x1004"/>
    </TTGlyph>
    <TTGlyph name="Lcaron" xMin="106" yMin="0" xMax="521" yMax="875">
      <component glyphName="caron.alt" x="0" y="0" flags="0x1004"/>
      <component glyphName="L" x="0" y="0" flags="0x1004"/>
    </TTGlyph>
    <TTGlyph name="Ldot" xMin="106" yMin="0" xMax="521" yMax="706">
      <component glyphName="periodcentered" x="99" y="5" flags="0x1004"/>
      <component glyphName="L" x="0" y="0" flags="0x1004"/>
    </TTGlyph>
    <TTGlyph name="Lslash" xMin="25" yMin="0" xMax="521" yMax="706">
      <contour>
        <pt x="106" y="0" on="1"/>
        <pt x="106" y="350" on="1"/>
        <pt x="25" y="301" on="1"/>
        <pt x="25" y="361" on="1"/>
        <pt x="106" y="411" on="1"/>
        <pt x="106" y="706" on="1"/>
        <pt x="205" y="706" on="1"/>
        <pt x="205" y="471" on="1"/>
        <pt x="333" y="550" on="1"/>
        <pt x="333" y="489" on="1"/>
        <pt x="205" y="411" on="1"/>
        <pt x="205" y="76" on="1"/>
        <pt x="521" y="76" on="1"/>
        <pt x="521" y="0" on="1"/>
      </contour>
    </TTGlyph>
    <TTGlyph name="M" xMin="106" yMin="0" xMax="762" yMax="706">
      <contour>
        <pt x="106" y="0" on="1"/>
        <pt x="106" y="706" on="1"/>
        <pt x="197" y="706" on="1"/>
        <pt x="435" y="312" on="1"/>
        <pt x="675" y="706" on="1"/>
        <pt x="762" y="706" on="1"/>
        <pt x="762" y="0" on="1"/>
        <pt x="669" y="0" on="1"/>
        <pt x="669" y="547" on="1"/>
        <pt x="471" y="224" on="1"/>
        <pt x="398" y="224" on="1"/>
        <pt x="200" y="545" on="1"/>
        <pt x="200" y="0" on="1"/>
      </contour>
    </TTGlyph>
    <TTGlyph name="N" xMin="106" yMin="0" xMax="672" yMax="706">
      <contour>
        <pt x="106" y="0" on="1"/>
        <pt x="106" y="706" on="1"/>
        <pt x="181" y="706" on="1"/>
        <pt x="585" y="142" on="1"/>
        <pt x="585" y="706" on="1"/>
        <pt x="672" y="706" on="1"/>
        <pt x="672" y="0" on="1"/>
        <pt x="584" y="0" on="1"/>
        <pt x="193" y="539" on="1"/>
        <pt x="193" y="0" on="1"/>
      </contour>
    </TTGlyph>
    <TTGlyph name="Nacute" xMin="106" yMin="0" xMax="672" yMax="962">
      <component glyphName="acute" x="265" y="188" flags="0x1004"/>
      <component glyphName="N" x="0" y="0" flags="0x1004"/>
    </TTGlyph>
    <TTGlyph name="Ncaron" xMin="106" yMin="0" xMax="672" yMax="946">
      <component glyphName="caron" x="264" y="188" flags="0x1004"/>
      <component glyphName="N" x="0" y="0" flags="0x1004"/>
    </TTGlyph>
    <TTGlyph name="Ntilde" xMin="106" yMin="0" xMax="672" yMax="894">
      <component glyphName="tilde" x="264" y="188" flags="0x1004"/>
      <component glyphName="N" x="0" y="0" flags="0x1004"/>
    </TTGlyph>
    <TTGlyph name="O" xMin="91" yMin="-11" xMax="664" yMax="717">
      <contour>
        <pt x="382" y="-11" on="1"/>
        <pt x="211" y="-11" on="0"/>
        <pt x="148" y="58" on="1"/>
        <pt x="116" y="93" on="0"/>
        <pt x="91" y="178" on="0"/>
        <pt x="91" y="237" on="1"/>
        <pt x="91" y="459" on="1"/>
        <pt x="91" y="519" on="0"/>
        <pt x="116" y="607" on="0"/>
        <pt x="147" y="644" on="1"/>
        <pt x="209" y="717" on="0"/>
        <pt x="382" y="717" on="1"/>
        <pt x="548" y="717" on="0"/>
        <pt x="609" y="640" on="1"/>
        <pt x="664" y="572" on="0"/>
        <pt x="664" y="453" on="1"/>
        <pt x="664" y="244" on="1"/>
        <pt x="664" y="129" on="0"/>
        <pt x="608" y="63" on="1"/>
        <pt x="546" y="-11" on="0"/>
      </contour>
      <contour>
        <pt x="382" y="68" on="1"/>
        <pt x="481" y="68" on="0"/>
        <pt x="566" y="132" on="0"/>
        <pt x="566" y="222" on="1"/>
        <pt x="566" y="478" on="1"/>
        <pt x="566" y="569" on="0"/>
        <pt x="480" y="638" on="0"/>
        <pt x="284" y="638" on="0"/>
        <pt x="189" y="568" on="0"/>
        <pt x="189" y="478" on="1"/>
        <pt x="189" y="222" on="1"/>
        <pt x="189" y="133" on="0"/>
        <pt x="282" y="68" on="0"/>
      </contour>
    </TTGlyph>
    <TTGlyph name="OE" xMin="89" yMin="0" xMax="683" yMax="706">
      <contour>
        <pt x="374" y="73" on="1"/>
        <pt x="374" y="73" on="0"/>
        <pt x="378" y="73" on="1"/>
        <pt x="378" y="632" on="1"/>
        <pt x="373" y="632" on="1"/>
        <pt x="279" y="632" on="0"/>
        <pt x="188" y="556" on="0"/>
        <pt x="188" y="466" on="1"/>
        <pt x="188" y="234" on="1"/>
        <pt x="188" y="144" on="0"/>
        <pt x="278" y="73" on="0"/>
      </contour>
      <contour>
        <pt x="378" y="0" on="1"/>
        <pt x="206" y="0" on="0"/>
        <pt x="144" y="70" on="1"/>
        <pt x="114" y="105" on="0"/>
        <pt x="89" y="190" on="0"/>
        <pt x="89" y="249" on="1"/>
        <pt x="89" y="448" on="1"/>
        <pt x="89" y="508" on="0"/>
        <pt x="114" y="596" on="0"/>
        <pt x="144" y="632" on="1"/>
        <pt x="206" y="706" on="0"/>
        <pt x="378" y="706" on="1"/>
        <pt x="679" y="706" on="1"/>
        <pt x="679" y="633" on="1"/>
        <pt x="477" y="633" on="1"/>
        <pt x="477" y="397" on="1"/>
        <pt x="649" y="397" on="1"/>
        <pt x="649" y="324" on="1"/>
        <pt x="477" y="324" on="1"/>
        <pt x="477" y="73" on="1"/>
        <pt x="683" y="73" on="1"/>
        <pt x="683" y="0" on="1"/>
      </contour>
    </TTGlyph>
    <TTGlyph name="Oacute" xMin="91" yMin="-11" xMax="664" yMax="962">
      <component glyphName="acute" x="258" y="188" flags="0x1004"/>
      <component glyphName="O" x="0" y="0" flags="0x1004"/>
    </TTGlyph>
    <TTGlyph name="Obreve" xMin="91" yMin="-11" xMax="664" yMax="923">
      <component glyphName="breve" x="252" y="188" flags="0x1004"/>
      <component glyphName="O" x="0" y="0" flags="0x1004"/>
    </TTGlyph>
    <TTGlyph name="Ocircumflex" xMin="91" yMin="-11" xMax="664" yMax="946">
      <component glyphName="circumflex" x="257" y="188" flags="0x1004"/>
      <component glyphName="O" x="0" y="0" flags="0x1004"/>
    </TTGlyph>
    <TTGlyph name="Odieresis" xMin="91" yMin="-11" xMax="664" yMax="932">
      <component glyphName="dieresis" x="132" y="188" flags="0x1004"/>
      <component glyphName="O" x="0" y="0" flags="0x1004"/>
    </TTGlyph>
    <TTGlyph name="Ograve" xMin="91" yMin="-11" xMax="664" yMax="962">
      <component glyphName="grave" x="216" y="188" flags="0x1004"/>
      <component glyphName="O" x="0" y="0" flags="0x1004"/>
    </TTGlyph>
    <TTGlyph name="Ohungarumlaut" xMin="91" yMin="-11" xMax="664" yMax="1005">
      <component glyphName="hungarumlaut" x="176" y="188" flags="0x1004"/>
      <component glyphName="O" x="0" y="0" flags="0x1004"/>
    </TTGlyph>
    <TTGlyph name="Omacron" xMin="91" yMin="-11" xMax="664" yMax="905">
      <component glyphName="macron" x="257" y="188" flags="0x1004"/>
      <component glyphName="O" x="0" y="0" flags="0x1004"/>
    </TTGlyph>
    <TTGlyph name="Oslash" xMin="91" yMin="-103" xMax="664" yMax="810">
      <contour>
        <pt x="486" y="707" on="1"/>
        <pt x="486" y="707" on="0"/>
        <pt x="524" y="810" on="1"/>
        <pt x="574" y="792" on="1"/>
        <pt x="537" y="691" on="1"/>
        <pt x="585" y="671" on="0"/>
        <pt x="643" y="597" on="0"/>
        <pt x="664" y="510" on="0"/>
        <pt x="664" y="453" on="1"/>
        <pt x="664" y="244" on="1"/>
        <pt x="664" y="129" on="0"/>
        <pt x="608" y="63" on="1"/>
        <pt x="546" y="-11" on="0"/>
        <pt x="382" y="-11" on="1"/>
        <pt x="325" y="-11" on="0"/>
        <pt x="280" y="-3" on="1"/>
        <pt x="243" y="-103" on="1"/>
        <pt x="193" y="-85" on="1"/>
        <pt x="228" y="10" on="1"/>
        <pt x="152" y="36" on="0"/>
        <pt x="91" y="149" on="0"/>
        <pt x="91" y="237" on="1"/>
        <pt x="91" y="459" on="1"/>
        <pt x="91" y="519" on="0"/>
        <pt x="116" y="607" on="0"/>
        <pt x="178" y="680" on="0"/>
        <pt x="296" y="717" on="0"/>
        <pt x="440" y="717" on="0"/>
      </contour>
      <contour>
        <pt x="508" y="614" on="1"/>
        <pt x="308" y="73" on="1"/>
        <pt x="339" y="68" on="0"/>
        <pt x="382" y="68" on="1"/>
        <pt x="481" y="68" on="0"/>
        <pt x="566" y="132" on="0"/>
        <pt x="566" y="222" on="1"/>
        <pt x="566" y="478" on="1"/>
        <pt x="566" y="579" on="0"/>
      </contour>
      <contour>
        <pt x="189" y="222" on="1"/>
        <pt x="189" y="119" on="0"/>
        <pt x="257" y="88" on="1"/>
        <pt x="458" y="632" on="1"/>
        <pt x="427" y="638" on="0"/>
        <pt x="382" y="638" on="1"/>
        <pt x="284" y="638" on="0"/>
        <pt x="189" y="568" on="0"/>
        <pt x="189" y="478" on="1"/>
      </contour>
    </TTGlyph>
    <TTGlyph name="Oslashacute" xMin="91" yMin="-103" xMax="664" yMax="962">
      <component glyphName="acute" x="262" y="188" flags="0x1004"/>
      <component glyphName="Oslash" x="0" y="0" flags="0x1004"/>
    </TTGlyph>
    <TTGlyph name="Otilde" xMin="91" yMin="-11" xMax="664" yMax="894">
      <component glyphName="tilde" x="257" y="188" flags="0x1004"/>
      <component glyphName="O" x="0" y="0" flags="0x1004"/>
    </TTGlyph>
    <TTGlyph name="P" xMin="106" yMin="0" xMax="585" yMax="706">
      <contour>
        <pt x="205" y="333" on="1"/>
        <pt x="389" y="333" on="1"/>
        <pt x="450" y="333" on="0"/>
        <pt x="470" y="378" on="1"/>
        <pt x="479" y="400" on="0"/>
        <pt x="486" y="446" on="0"/>
        <pt x="486" y="538" on="0"/>
        <pt x="472" y="578" on="1"/>
        <pt x="455" y="631" on="0"/>
        <pt x="392" y="631" on="1"/>
        <pt x="205" y="631" on="1"/>
      </contour>
      <contour>
        <pt x="106" y="0" on="1"/>
        <pt x="106" y="706" on="1"/>
        <pt x="389" y="706" on="1"/>
        <pt x="585" y="706" on="0"/>
        <pt x="585" y="484" on="1"/>
        <pt x="585" y="363" on="0"/>
        <pt x="483" y="258" on="0"/>
        <pt x="387" y="258" on="1"/>
        <pt x="205" y="258" on="1"/>
        <pt x="205" y="0" on="1"/>
      </contour>
    </TTGlyph>
    <TTGlyph name="Q" xMin="91" yMin="-188" xMax="664" yMax="717">
      <contour>
        <pt x="382" y="68" on="1"/>
        <pt x="481" y="68" on="0"/>
        <pt x="566" y="132" on="0"/>
        <pt x="566" y="222" on="1"/>
        <pt x="566" y="478" on="1"/>
        <pt x="566" y="569" on="0"/>
        <pt x="480" y="638" on="0"/>
        <pt x="284" y="638" on="0"/>
        <pt x="189" y="568" on="0"/>
        <pt x="189" y="478" on="1"/>
        <pt x="189" y="222" on="1"/>
        <pt x="189" y="133" on="0"/>
        <pt x="282" y="68" on="0"/>
      </contour>
      <contour>
        <pt x="664" y="244" on="1"/>
        <pt x="664" y="134" on="0"/>
        <pt x="564" y="4" on="0"/>
        <pt x="437" y="-8" on="1"/>
        <pt x="530" y="-150" on="1"/>
        <pt x="461" y="-188" on="1"/>
        <pt x="349" y="-10" on="1"/>
        <pt x="197" y="-4" on="0"/>
        <pt x="142" y="65" on="1"/>
        <pt x="91" y="127" on="0"/>
        <pt x="91" y="237" on="1"/>
        <pt x="91" y="459" on="1"/>
        <pt x="91" y="519" on="0"/>
        <pt x="116" y="607" on="0"/>
        <pt x="147" y="644" on="1"/>
        <pt x="209" y="717" on="0"/>
        <pt x="382" y="717" on="1"/>
        <pt x="548" y="717" on="0"/>
        <pt x="609" y="640" on="1"/>
        <pt x="664" y="572" on="0"/>
        <pt x="664" y="453" on="1"/>
      </contour>
    </TTGlyph>
    <TTGlyph name="R" xMin="106" yMin="0" xMax="669" yMax="706">
      <contour>
        <pt x="205" y="367" on="1"/>
        <pt x="413" y="367" on="1"/>
        <pt x="520" y="367" on="0"/>
        <pt x="520" y="488" on="1"/>
        <pt x="520" y="546" on="0"/>
        <pt x="505" y="584" on="1"/>
        <pt x="487" y="631" on="0"/>
        <pt x="424" y="631" on="1"/>
        <pt x="205" y="631" on="1"/>
      </contour>
      <contour>
        <pt x="106" y="0" on="1"/>
        <pt x="106" y="706" on="1"/>
        <pt x="421" y="706" on="1"/>
        <pt x="516" y="706" on="0"/>
        <pt x="619" y="610" on="0"/>
        <pt x="619" y="497" on="1"/>
        <pt x="619" y="417" on="0"/>
        <pt x="567" y="332" on="0"/>
        <pt x="519" y="311" on="1"/>
        <pt x="669" y="0" on="1"/>
        <pt x="568" y="0" on="1"/>
        <pt x="428" y="293" on="1"/>
        <pt x="423" y="293" on="0"/>
        <pt x="205" y="292" on="1"/>
        <pt x="205" y="0" on="1"/>
      </contour>
    </TTGlyph>
    <TTGlyph name="Racute" xMin="106" yMin="0" xMax="669" yMax="962">
      <component glyphName="acute" x="226" y="188" flags="0x1004"/>
      <component glyphName="R" x="0" y="0" flags="0x1004"/>
    </TTGlyph>
    <TTGlyph name="Rcaron" xMin="106" yMin="0" xMax="669" yMax="946">
      <component glyphName="caron" x="225" y="188" flags="0x1004"/>
      <component glyphName="R" x="0" y="0" flags="0x1004"/>
    </TTGlyph>
    <TTGlyph name="S" xMin="70" yMin="-11" xMax="568" yMax="717">
      <contour>
        <pt x="179" y="531" on="1"/>
        <pt x="179" y="497" on="0"/>
        <pt x="208" y="457" on="0"/>
        <pt x="251" y="443" on="1"/>
        <pt x="429" y="383" on="1"/>
        <pt x="503" y="358" on="0"/>
        <pt x="568" y="276" on="0"/>
        <pt x="568" y="198" on="1"/>
        <pt x="568" y="-11" on="0"/>
        <pt x="337" y="-11" on="1"/>
        <pt x="184" y="-11" on="0"/>
        <pt x="70" y="55" on="1"/>
        <pt x="105" y="130" on="1"/>
        <pt x="149" y="104" on="0"/>
        <pt x="274" y="68" on="0"/>
        <pt x="418" y="68" on="0"/>
        <pt x="478" y="133" on="0"/>
        <pt x="478" y="213" on="1"/>
        <pt x="478" y="246" on="0"/>
        <pt x="443" y="287" on="0"/>
        <pt x="392" y="303" on="1"/>
        <pt x="221" y="359" on="1"/>
        <pt x="146" y="383" on="0"/>
        <pt x="83" y="461" on="0"/>
        <pt x="83" y="532" on="1"/>
        <pt x="83" y="628" on="0"/>
        <pt x="211" y="717" on="0"/>
        <pt x="320" y="717" on="1"/>
        <pt x="477" y="717" on="0"/>
        <pt x="557" y="667" on="1"/>
        <pt x="533" y="591" on="1"/>
        <pt x="447" y="638" on="0"/>
        <pt x="337" y="638" on="1"/>
        <pt x="186" y="638" on="0"/>
        <pt x="180" y="555" on="1"/>
      </contour>
    </TTGlyph>
    <TTGlyph name="Sacute" xMin="70" yMin="-11" xMax="568" yMax="962">
      <component glyphName="acute" x="206" y="188" flags="0x1004"/>
      <component glyphName="S" x="0" y="0" flags="0x1004"/>
    </TTGlyph>
    <TTGlyph name="Scaron" xMin="70" yMin="-11" xMax="568" yMax="946">
      <component glyphName="caron" x="205" y="188" flags="0x1004"/>
      <component glyphName="S" x="0" y="0" flags="0x1004"/>
    </TTGlyph>
    <TTGlyph name="Scedilla" xMin="70" yMin="-237" xMax="568" yMax="717">
      <component glyphName="cedilla" x="223" y="0" flags="0x1004"/>
      <component glyphName="S" x="0" y="0" flags="0x1004"/>
    </TTGlyph>
    <TTGlyph name="Scircumflex" xMin="70" yMin="-11" xMax="568" yMax="946">
      <component glyphName="circumflex" x="205" y="188" flags="0x1004"/>
      <component glyphName="S" x="0" y="0" flags="0x1004"/>
    </TTGlyph>
    <TTGlyph name="Sigma" xMin="55" yMin="0" xMax="525" yMax="706">
      <contour>
        <pt x="525" y="0" on="1"/>
        <pt x="55" y="0" on="1"/>
        <pt x="55" y="76" on="1"/>
        <pt x="292" y="372" on="1"/>
        <pt x="55" y="634" on="1"/>
        <pt x="55" y="706" on="1"/>
        <pt x="525" y="706" on="1"/>
        <pt x="525" y="628" on="1"/>
        <pt x="155" y="628" on="1"/>
        <pt x="379" y="394" on="1"/>
        <pt x="379" y="360" on="1"/>
        <pt x="157" y="79" on="1"/>
        <pt x="525" y="79" on="1"/>
      </contour>
    </TTGlyph>
    <TTGlyph name="T" xMin="41" yMin="0" xMax="547" yMax="706">
      <contour>
        <pt x="245" y="0" on="1"/>
        <pt x="245" y="625" on="1"/>
        <pt x="41" y="625" on="1"/>
        <pt x="41" y="706" on="1"/>
        <pt x="547" y="706" on="1"/>
        <pt x="547" y="625" on="1"/>
        <pt x="343" y="625" on="1"/>
        <pt x="343" y="0" on="1"/>
      </contour>
    </TTGlyph>
    <TTGlyph name="Tbar" xMin="41" yMin="0" xMax="547" yMax="706">
      <contour>
        <pt x="245" y="0" on="1"/>
        <pt x="245" y="332" on="1"/>
        <pt x="162" y="332" on="1"/>
        <pt x="162" y="404" on="1"/>
        <pt x="245" y="404" on="1"/>
        <pt x="245" y="625" on="1"/>
        <pt x="41" y="625" on="1"/>
        <pt x="41" y="706" on="1"/>
        <pt x="547" y="706" on="1"/>
        <pt x="547" y="625" on="1"/>
        <pt x="343" y="625" on="1"/>
        <pt x="343" y="404" on="1"/>
        <pt x="420" y="404" on="1"/>
        <pt x="420" y="332" on="1"/>
        <pt x="343" y="332" on="1"/>
        <pt x="343" y="0" on="1"/>
      </contour>
    </TTGlyph>
    <TTGlyph name="Tcaron" xMin="41" yMin="0" xMax="547" yMax="946">
      <component glyphName="caron" x="175" y="188" flags="0x1004"/>
      <component glyphName="T" x="0" y="0" flags="0x1004"/>
    </TTGlyph>
    <TTGlyph name="Thorn" xMin="104" yMin="0" xMax="582" yMax="706">
      <contour>
        <pt x="202" y="236" on="1"/>
        <pt x="386" y="236" on="1"/>
        <pt x="444" y="236" on="0"/>
        <pt x="483" y="306" on="0"/>
        <pt x="483" y="432" on="0"/>
        <pt x="469" y="468" on="1"/>
        <pt x="451" y="515" on="0"/>
        <pt x="388" y="515" on="1"/>
        <pt x="202" y="515" on="1"/>
      </contour>
      <contour>
        <pt x="104" y="0" on="1"/>
        <pt x="104" y="706" on="1"/>
        <pt x="202" y="706" on="1"/>
        <pt x="202" y="590" on="1"/>
        <pt x="385" y="590" on="1"/>
        <pt x="480" y="590" on="0"/>
        <pt x="582" y="492" on="0"/>
        <pt x="582" y="257" on="0"/>
        <pt x="481" y="162" on="0"/>
        <pt x="384" y="162" on="1"/>
        <pt x="202" y="162" on="1"/>
        <pt x="202" y="0" on="1"/>
      </contour>
    </TTGlyph>
    <TTGlyph name="U" xMin="98" yMin="-11" xMax="653" yMax="706">
      <contour>
        <pt x="380" y="-11" on="1"/>
        <pt x="214" y="-11" on="0"/>
        <pt x="152" y="61" on="1"/>
        <pt x="122" y="96" on="0"/>
        <pt x="98" y="177" on="0"/>
        <pt x="98" y="231" on="1"/>
        <pt x="98" y="706" on="1"/>
        <pt x="196" y="706" on="1"/>
        <pt x="196" y="221" on="1"/>
        <pt x="196" y="132" on="0"/>
        <pt x="294" y="68" on="0"/>
        <pt x="465" y="68" on="0"/>
        <pt x="555" y="131" on="0"/>
        <pt x="555" y="221" on="1"/>
        <pt x="555" y="706" on="1"/>
        <pt x="653" y="706" on="1"/>
        <pt x="653" y="231" on="1"/>
        <pt x="653" y="126" on="0"/>
        <pt x="600" y="62" on="1"/>
        <pt x="541" y="-11" on="0"/>
      </contour>
    </TTGlyph>
    <TTGlyph name="Uacute" xMin="98" yMin="-11" xMax="653" yMax="962">
      <component glyphName="acute" x="256" y="188" flags="0x1004"/>
      <component glyphName="U" x="0" y="0" flags="0x1004"/>
    </TTGlyph>
    <TTGlyph name="Ubreve" xMin="98" yMin="-11" xMax="653" yMax="923">
      <component glyphName="breve" x="250" y="188" flags="0x1004"/>
      <component glyphName="U" x="0" y="0" flags="0x1004"/>
    </TTGlyph>
    <TTGlyph name="Ucircumflex" xMin="98" yMin="-11" xMax="653" yMax="946">
      <component glyphName="circumflex" x="255" y="188" flags="0x1004"/>
      <component glyphName="U" x="0" y="0" flags="0x1004"/>
    </TTGlyph>
    <TTGlyph name="Udieresis" xMin="98" yMin="-11" xMax="653" yMax="932">
      <component glyphName="dieresis" x="130" y="188" flags="0x1004"/>
      <component glyphName="U" x="0" y="0" flags="0x1004"/>
    </TTGlyph>
    <TTGlyph name="Ugrave" xMin="98" yMin="-11" xMax="653" yMax="962">
      <component glyphName="grave" x="214" y="188" flags="0x1004"/>
      <component glyphName="U" x="0" y="0" flags="0x1004"/>
    </TTGlyph>
    <TTGlyph name="Uhungarumlaut" xMin="98" yMin="-11" xMax="653" yMax="1005">
      <component glyphName="hungarumlaut" x="174" y="188" flags="0x1004"/>
      <component glyphName="U" x="0" y="0" flags="0x1004"/>
    </TTGlyph>
    <TTGlyph name="Umacron" xMin="98" yMin="-11" xMax="653" yMax="905">
      <component glyphName="macron" x="255" y="188" flags="0x1004"/>
      <component glyphName="U" x="0" y="0" flags="0x1004"/>
    </TTGlyph>
    <TTGlyph name="Uogonek" xMin="98" yMin="-232" xMax="653" yMax="706">
      <component glyphName="ogonek" x="254" y="0" flags="0x1004"/>
      <component glyphName="U" x="0" y="0" flags="0x1004"/>
    </TTGlyph>
    <TTGlyph name="Uring" xMin="98" yMin="-11" xMax="653" yMax="932">
      <component glyphName="ring" x="255" y="188" flags="0x1004"/>
      <component glyphName="U" x="0" y="0" flags="0x1004"/>
    </TTGlyph>
    <TTGlyph name="Utilde" xMin="98" yMin="-11" xMax="653" yMax="894">
      <component glyphName="tilde" x="255" y="188" flags="0x1004"/>
      <component glyphName="U" x="0" y="0" flags="0x1004"/>
    </TTGlyph>
    <TTGlyph name="V" xMin="42" yMin="0" xMax="635" yMax="706">
      <contour>
        <pt x="294" y="0" on="1"/>
        <pt x="42" y="706" on="1"/>
        <pt x="143" y="706" on="1"/>
        <pt x="338" y="144" on="1"/>
        <pt x="533" y="706" on="1"/>
        <pt x="635" y="706" on="1"/>
        <pt x="380" y="0" on="1"/>
      </contour>
    </TTGlyph>
    <TTGlyph name="W" xMin="55" yMin="0" xMax="945" yMax="706">
      <contour>
        <pt x="255" y="0" on="1"/>
        <pt x="55" y="706" on="1"/>
        <pt x="145" y="706" on="1"/>
        <pt x="294" y="169" on="1"/>
        <pt x="448" y="706" on="1"/>
        <pt x="553" y="706" on="1"/>
        <pt x="714" y="169" on="1"/>
        <pt x="856" y="706" on="1"/>
        <pt x="945" y="706" on="1"/>
        <pt x="753" y="0" on="1"/>
        <pt x="679" y="0" on="1"/>
        <pt x="506" y="602" on="1"/>
        <pt x="329" y="0" on="1"/>
      </contour>
    </TTGlyph>
    <TTGlyph name="Wacute" xMin="55" yMin="0" xMax="945" yMax="962">
      <component glyphName="acute" x="382" y="188" flags="0x1004"/>
      <component glyphName="W" x="0" y="0" flags="0x1004"/>
    </TTGlyph>
    <TTGlyph name="Wcircumflex" xMin="55" yMin="0" xMax="945" yMax="946">
      <component glyphName="circumflex" x="381" y="188" flags="0x1004"/>
      <component glyphName="W" x="0" y="0" flags="0x1004"/>
    </TTGlyph>
    <TTGlyph name="Wdieresis" xMin="55" yMin="0" xMax="945" yMax="932">
      <component glyphName="dieresis" x="256" y="188" flags="0x1004"/>
      <component glyphName="W" x="0" y="0" flags="0x1004"/>
    </TTGlyph>
    <TTGlyph name="Wgrave" xMin="55" yMin="0" xMax="945" yMax="962">
      <component glyphName="grave" x="340" y="188" flags="0x1004"/>
      <component glyphName="W" x="0" y="0" flags="0x1004"/>
    </TTGlyph>
    <TTGlyph name="X" xMin="46" yMin="0" xMax="606" yMax="706">
      <contour>
        <pt x="46" y="0" on="1"/>
        <pt x="276" y="357" on="1"/>
        <pt x="57" y="706" on="1"/>
        <pt x="156" y="706" on="1"/>
        <pt x="327" y="438" on="1"/>
        <pt x="493" y="706" on="1"/>
        <pt x="599" y="706" on="1"/>
        <pt x="377" y="358" on="1"/>
        <pt x="606" y="0" on="1"/>
        <pt x="500" y="0" on="1"/>
        <pt x="326" y="277" on="1"/>
        <pt x="149" y="0" on="1"/>
      </contour>
    </TTGlyph>
    <TTGlyph name="Y" xMin="23" yMin="0" xMax="620" yMax="706">
      <contour>
        <pt x="273" y="0" on="1"/>
        <pt x="273" y="277" on="1"/>
        <pt x="23" y="706" on="1"/>
        <pt x="127" y="706" on="1"/>
        <pt x="323" y="363" on="1"/>
        <pt x="519" y="706" on="1"/>
        <pt x="620" y="706" on="1"/>
        <pt x="372" y="277" on="1"/>
        <pt x="372" y="0" on="1"/>
      </contour>
    </TTGlyph>
    <TTGlyph name="Yacute" xMin="23" yMin="0" xMax="620" yMax="962">
      <component glyphName="acute" x="208" y="188" flags="0x1004"/>
      <component glyphName="Y" x="0" y="0" flags="0x1004"/>
    </TTGlyph>
    <TTGlyph name="Ycircumflex" xMin="23" yMin="0" xMax="620" yMax="946">
      <component glyphName="circumflex" x="207" y="188" flags="0x1004"/>
      <component glyphName="Y" x="0" y="0" flags="0x1004"/>
    </TTGlyph>
    <TTGlyph name="Ydieresis" xMin="23" yMin="0" xMax="620" yMax="932">
      <component glyphName="dieresis" x="82" y="188" flags="0x1004"/>
      <component glyphName="Y" x="0" y="0" flags="0x1004"/>
    </TTGlyph>
    <TTGlyph name="Ygrave" xMin="23" yMin="0" xMax="620" yMax="962">
      <component glyphName="grave" x="166" y="188" flags="0x1004"/>
      <component glyphName="Y" x="0" y="0" flags="0x1004"/>
    </TTGlyph>
    <TTGlyph name="Z" xMin="88" yMin="0" xMax="535" yMax="706">
      <contour>
        <pt x="88" y="0" on="1"/>
        <pt x="88" y="73" on="1"/>
        <pt x="421" y="625" on="1"/>
        <pt x="103" y="625" on="1"/>
        <pt x="103" y="706" on="1"/>
        <pt x="529" y="706" on="1"/>
        <pt x="529" y="632" on="1"/>
        <pt x="196" y="81" on="1"/>
        <pt x="535" y="81" on="1"/>
        <pt x="535" y="0" on="1"/>
      </contour>
    </TTGlyph>
    <TTGlyph name="Zacute" xMin="88" yMin="0" xMax="535" yMax="962">
      <component glyphName="acute" x="200" y="188" flags="0x1004"/>
      <component glyphName="Z" x="0" y="0" flags="0x1004"/>
    </TTGlyph>
    <TTGlyph name="Zcaron" xMin="88" yMin="0" xMax="535" yMax="946">
      <component glyphName="caron" x="199" y="188" flags="0x1004"/>
      <component glyphName="Z" x="0" y="0" flags="0x1004"/>
    </TTGlyph>
    <TTGlyph name="Zdotaccent" xMin="88" yMin="0" xMax="535" yMax="938">
      <component glyphName="dotaccent" x="199" y="188" flags="0x1004"/>
      <component glyphName="Z" x="0" y="0" flags="0x1004"/>
    </TTGlyph>
    <TTGlyph name="a" xMin="70" yMin="-11" xMax="527" yMax="527">
      <contour>
        <pt x="238" y="58" on="1"/>
        <pt x="281" y="58" on="0"/>
        <pt x="370" y="110" on="0"/>
        <pt x="381" y="145" on="1"/>
        <pt x="381" y="272" on="1"/>
        <pt x="265" y="228" on="1"/>
        <pt x="205" y="205" on="0"/>
        <pt x="158" y="164" on="0"/>
        <pt x="158" y="90" on="0"/>
        <pt x="191" y="58" on="0"/>
      </contour>
      <contour>
        <pt x="70" y="131" on="1"/>
        <pt x="70" y="184" on="0"/>
        <pt x="144" y="249" on="0"/>
        <pt x="247" y="286" on="1"/>
        <pt x="355" y="326" on="1"/>
        <pt x="371" y="331" on="0"/>
        <pt x="381" y="353" on="0"/>
        <pt x="381" y="417" on="0"/>
        <pt x="343" y="457" on="0"/>
        <pt x="215" y="457" on="0"/>
        <pt x="173" y="418" on="0"/>
        <pt x="173" y="380" on="1"/>
        <pt x="173" y="357" on="1"/>
        <pt x="85" y="357" on="1"/>
        <pt x="85" y="380" on="1"/>
        <pt x="85" y="456" on="0"/>
        <pt x="186" y="527" on="0"/>
        <pt x="387" y="527" on="0"/>
        <pt x="473" y="436" on="0"/>
        <pt x="473" y="352" on="1"/>
        <pt x="473" y="131" on="1"/>
        <pt x="473" y="90" on="0"/>
        <pt x="494" y="66" on="0"/>
        <pt x="527" y="66" on="1"/>
        <pt x="517" y="-4" on="1"/>
        <pt x="498" y="-4" on="1"/>
        <pt x="449" y="-4" on="0"/>
        <pt x="402" y="33" on="0"/>
        <pt x="389" y="73" on="1"/>
        <pt x="334" y="-11" on="0"/>
        <pt x="220" y="-11" on="1"/>
        <pt x="70" y="-11" on="0"/>
      </contour>
    </TTGlyph>
    <TTGlyph name="aacute" xMin="70" yMin="-11" xMax="527" yMax="774">
      <component glyphName="acute" x="161" y="0" flags="0x1004"/>
      <component glyphName="a" x="0" y="0" flags="0x1004"/>
    </TTGlyph>
    <TTGlyph name="abreve" xMin="70" yMin="-11" xMax="527" yMax="735">
      <component glyphName="breve" x="155" y="0" flags="0x1004"/>
      <component glyphName="a" x="0" y="0" flags="0x1004"/>
    </TTGlyph>
    <TTGlyph name="acircumflex" xMin="70" yMin="-11" xMax="527" yMax="758">
      <component glyphName="circumflex" x="160" y="0" flags="0x1004"/>
      <component glyphName="a" x="0" y="0" flags="0x1004"/>
    </TTGlyph>
    <TTGlyph name="acute" xMin="100" yMin="588" xMax="277" yMax="774">
      <contour>
        <pt x="100" y="588" on="1"/>
        <pt x="167" y="774" on="1"/>
        <pt x="277" y="774" on="1"/>
        <pt x="162" y="588" on="1"/>
      </contour>
    </TTGlyph>
    <TTGlyph name="adieresis" xMin="70" yMin="-11" xMax="527" yMax="744">
      <component glyphName="dieresis" x="35" y="0" flags="0x1004"/>
      <component glyphName="a" x="0" y="0" flags="0x1004"/>
    </TTGlyph>
    <TTGlyph name="ae" xMin="64" yMin="-11" xMax="786" yMax="527">
      <contour>
        <pt x="473" y="309" on="1"/>
        <pt x="702" y="309" on="1"/>
        <pt x="702" y="380" on="1"/>
        <pt x="702" y="424" on="0"/>
        <pt x="642" y="458" on="0"/>
        <pt x="528" y="458" on="0"/>
        <pt x="473" y="418" on="0"/>
        <pt x="473" y="371" on="1"/>
      </contour>
      <contour>
        <pt x="245" y="59" on="1"/>
        <pt x="289" y="59" on="0"/>
        <pt x="370" y="102" on="0"/>
        <pt x="381" y="136" on="1"/>
        <pt x="381" y="275" on="1"/>
        <pt x="381" y="261" on="0"/>
        <pt x="334" y="240" on="1"/>
        <pt x="309" y="229" on="0"/>
        <pt x="230" y="207" on="0"/>
        <pt x="200" y="196" on="1"/>
        <pt x="152" y="177" on="0"/>
        <pt x="152" y="139" on="1"/>
        <pt x="152" y="59" on="0"/>
      </contour>
      <contour>
        <pt x="229" y="-11" on="1"/>
        <pt x="150" y="-11" on="0"/>
        <pt x="64" y="74" on="0"/>
        <pt x="64" y="192" on="0"/>
        <pt x="144" y="255" on="0"/>
        <pt x="337" y="299" on="0"/>
        <pt x="382" y="336" on="0"/>
        <pt x="382" y="410" on="0"/>
        <pt x="368" y="430" on="1"/>
        <pt x="350" y="457" on="0"/>
        <pt x="283" y="457" on="1"/>
        <pt x="209" y="457" on="0"/>
        <pt x="186" y="427" on="1"/>
        <pt x="172" y="409" on="0"/>
        <pt x="172" y="370" on="1"/>
        <pt x="172" y="357" on="1"/>
        <pt x="84" y="357" on="1"/>
        <pt x="84" y="371" on="1"/>
        <pt x="84" y="454" on="0"/>
        <pt x="184" y="527" on="0"/>
        <pt x="288" y="527" on="1"/>
        <pt x="341" y="527" on="0"/>
        <pt x="420" y="492" on="0"/>
        <pt x="433" y="458" on="1"/>
        <pt x="476" y="527" on="0"/>
        <pt x="684" y="527" on="0"/>
        <pt x="786" y="445" on="0"/>
        <pt x="786" y="370" on="1"/>
        <pt x="786" y="250" on="1"/>
        <pt x="473" y="250" on="1"/>
        <pt x="473" y="160" on="1"/>
        <pt x="473" y="59" on="0"/>
        <pt x="581" y="59" on="1"/>
        <pt x="647" y="59" on="0"/>
        <pt x="696" y="92" on="0"/>
        <pt x="700" y="155" on="1"/>
        <pt x="783" y="155" on="1"/>
        <pt x="776" y="61" on="0"/>
        <pt x="688" y="-11" on="0"/>
        <pt x="581" y="-11" on="1"/>
        <pt x="460" y="-11" on="0"/>
        <pt x="419" y="87" on="1"/>
        <pt x="374" y="-11" on="0"/>
      </contour>
    </TTGlyph>
    <TTGlyph name="aeacute" xMin="64" yMin="-11" xMax="786" yMax="774">
      <component glyphName="ae" x="0" y="0" flags="0x1004"/>
      <component glyphName="acute" x="314" y="0" flags="0x1004"/>
    </TTGlyph>
    <TTGlyph name="agrave" xMin="70" yMin="-11" xMax="527" yMax="774">
      <component glyphName="grave" x="119" y="0" flags="0x1004"/>
      <component glyphName="a" x="0" y="0" flags="0x1004"/>
    </TTGlyph>
    <TTGlyph name="amacron" xMin="70" yMin="-11" xMax="527" yMax="717">
      <component glyphName="macron" x="160" y="0" flags="0x1004"/>
      <component glyphName="a" x="0" y="0" flags="0x1004"/>
    </TTGlyph>
    <TTGlyph name="ampersand" xMin="86" yMin="-12" xMax="699" yMax="724">
      <contour>
        <pt x="352" y="62" on="1"/>
        <pt x="429" y="62" on="0"/>
        <pt x="502" y="80" on="0"/>
        <pt x="519" y="112" on="1"/>
        <pt x="263" y="353" on="1"/>
        <pt x="237" y="345" on="0"/>
        <pt x="220" y="332" on="1"/>
        <pt x="185" y="304" on="0"/>
        <pt x="185" y="217" on="1"/>
        <pt x="185" y="138" on="0"/>
        <pt x="261" y="62" on="0"/>
      </contour>
      <contour>
        <pt x="352" y="-12" on="1"/>
        <pt x="197" y="-12" on="0"/>
        <pt x="138" y="58" on="1"/>
        <pt x="109" y="91" on="0"/>
        <pt x="86" y="166" on="0"/>
        <pt x="86" y="290" on="0"/>
        <pt x="144" y="378" on="0"/>
        <pt x="214" y="398" on="1"/>
        <pt x="169" y="439" on="0"/>
        <pt x="129" y="506" on="0"/>
        <pt x="129" y="558" on="1"/>
        <pt x="129" y="724" on="0"/>
        <pt x="336" y="724" on="1"/>
        <pt x="450" y="724" on="0"/>
        <pt x="549" y="669" on="0"/>
        <pt x="549" y="588" on="1"/>
        <pt x="549" y="539" on="1"/>
        <pt x="468" y="539" on="1"/>
        <pt x="468" y="568" on="1"/>
        <pt x="468" y="617" on="0"/>
        <pt x="415" y="650" on="0"/>
        <pt x="273" y="650" on="0"/>
        <pt x="222" y="599" on="0"/>
        <pt x="222" y="550" on="1"/>
        <pt x="222" y="523" on="0"/>
        <pt x="247" y="479" on="0"/>
        <pt x="282" y="443" on="1"/>
        <pt x="537" y="200" on="1"/>
        <pt x="537" y="203" on="0"/>
        <pt x="538" y="218" on="0"/>
        <pt x="538" y="222" on="1"/>
        <pt x="538" y="380" on="1"/>
        <pt x="623" y="380" on="1"/>
        <pt x="623" y="244" on="1"/>
        <pt x="623" y="166" on="0"/>
        <pt x="614" y="127" on="1"/>
        <pt x="699" y="46" on="1"/>
        <pt x="648" y="-9" on="1"/>
        <pt x="579" y="56" on="1"/>
        <pt x="519" y="-12" on="0"/>
      </contour>
    </TTGlyph>
    <TTGlyph name="aogonek" xMin="70" yMin="-227" xMax="533" yMax="527">
      <component glyphName="ogonek" x="334" y="5" flags="0x1004"/>
      <component glyphName="a" x="0" y="0" flags="0x1004"/>
    </TTGlyph>
    <TTGlyph name="approxequal" xMin="31" yMin="310" xMax="399" yMax="588">
      <contour>
        <pt x="293" y="459" on="1"/>
        <pt x="255" y="459" on="0"/>
        <pt x="146" y="517" on="0"/>
        <pt x="132" y="517" on="1"/>
        <pt x="79" y="517" on="0"/>
        <pt x="79" y="466" on="1"/>
        <pt x="31" y="466" on="1"/>
        <pt x="31" y="524" on="0"/>
        <pt x="91" y="588" on="0"/>
        <pt x="174" y="588" on="0"/>
        <pt x="284" y="531" on="0"/>
        <pt x="298" y="531" on="1"/>
        <pt x="352" y="531" on="0"/>
        <pt x="352" y="581" on="1"/>
        <pt x="399" y="581" on="1"/>
        <pt x="399" y="523" on="0"/>
        <pt x="339" y="459" on="0"/>
      </contour>
      <contour>
        <pt x="293" y="310" on="1"/>
        <pt x="255" y="310" on="0"/>
        <pt x="146" y="367" on="0"/>
        <pt x="132" y="367" on="1"/>
        <pt x="79" y="367" on="0"/>
        <pt x="79" y="317" on="1"/>
        <pt x="31" y="317" on="1"/>
        <pt x="31" y="375" on="0"/>
        <pt x="91" y="438" on="0"/>
        <pt x="174" y="438" on="0"/>
        <pt x="284" y="381" on="0"/>
        <pt x="298" y="381" on="1"/>
        <pt x="352" y="381" on="0"/>
        <pt x="352" y="432" on="1"/>
        <pt x="399" y="432" on="1"/>
        <pt x="399" y="374" on="0"/>
        <pt x="339" y="310" on="0"/>
      </contour>
    </TTGlyph>
    <TTGlyph name="aring" xMin="70" yMin="-11" xMax="527" yMax="744">
      <component glyphName="ring" x="160" y="0" flags="0x1004"/>
      <component glyphName="a" x="0" y="0" flags="0x1004"/>
    </TTGlyph>
    <TTGlyph name="aringacute" xMin="70" yMin="-11" xMax="527" yMax="990">
      <component glyphName="aring" x="0" y="0" flags="0x1004"/>
      <component glyphName="acute" x="154" y="216" flags="0x1004"/>
    </TTGlyph>
    <TTGlyph name="asciicircum" xMin="75" yMin="306" xMax="539" yMax="626">
      <contour>
        <pt x="75" y="306" on="1"/>
        <pt x="250" y="626" on="1"/>
        <pt x="359" y="626" on="1"/>
        <pt x="539" y="306" on="1"/>
        <pt x="444" y="306" on="1"/>
        <pt x="307" y="567" on="1"/>
        <pt x="170" y="306" on="1"/>
      </contour>
    </TTGlyph>
    <TTGlyph name="asciitilde" xMin="31" yMin="573" xMax="399" yMax="716">
      <contour>
        <pt x="293" y="573" on="1"/>
        <pt x="256" y="573" on="0"/>
        <pt x="146" y="645" on="0"/>
        <pt x="132" y="645" on="1"/>
        <pt x="105" y="645" on="0"/>
        <pt x="79" y="606" on="0"/>
        <pt x="79" y="580" on="1"/>
        <pt x="31" y="580" on="1"/>
        <pt x="31" y="640" on="0"/>
        <pt x="92" y="716" on="0"/>
        <pt x="174" y="716" on="0"/>
        <pt x="284" y="644" on="0"/>
        <pt x="298" y="644" on="1"/>
        <pt x="326" y="644" on="0"/>
        <pt x="352" y="683" on="0"/>
        <pt x="352" y="709" on="1"/>
        <pt x="399" y="709" on="1"/>
        <pt x="399" y="649" on="0"/>
        <pt x="338" y="573" on="0"/>
      </contour>
    </TTGlyph>
    <TTGlyph name="asterisk" xMin="48" yMin="292" xMax="452" yMax="706">
      <contour>
        <pt x="207" y="292" on="1"/>
        <pt x="221" y="451" on="1"/>
        <pt x="87" y="366" on="1"/>
        <pt x="48" y="445" on="1"/>
        <pt x="190" y="502" on="1"/>
        <pt x="53" y="571" on="1"/>
        <pt x="100" y="646" on="1"/>
        <pt x="220" y="553" on="1"/>
        <pt x="207" y="706" on="1"/>
        <pt x="293" y="706" on="1"/>
        <pt x="279" y="547" on="1"/>
        <pt x="412" y="632" on="1"/>
        <pt x="452" y="554" on="1"/>
        <pt x="310" y="497" on="1"/>
        <pt x="446" y="427" on="1"/>
        <pt x="400" y="353" on="1"/>
        <pt x="279" y="445" on="1"/>
        <pt x="293" y="292" on="1"/>
      </contour>
    </TTGlyph>
    <TTGlyph name="at" xMin="177" yMin="-126" xMax="875" yMax="724">
      <contour>
        <pt x="563" y="167" on="1"/>
        <pt x="614" y="167" on="0"/>
        <pt x="720" y="217" on="0"/>
        <pt x="731" y="255" on="1"/>
        <pt x="731" y="403" on="1"/>
        <pt x="724" y="400" on="0"/>
        <pt x="515" y="346" on="0"/>
        <pt x="462" y="301" on="0"/>
        <pt x="462" y="215" on="0"/>
        <pt x="516" y="167" on="0"/>
      </contour>
      <contour>
        <pt x="539" y="-126" on="1"/>
        <pt x="352" y="-126" on="0"/>
        <pt x="177" y="30" on="0"/>
        <pt x="177" y="162" on="1"/>
        <pt x="177" y="437" on="1"/>
        <pt x="177" y="573" on="0"/>
        <pt x="332" y="724" on="0"/>
        <pt x="519" y="724" on="1"/>
        <pt x="607" y="724" on="0"/>
        <pt x="677" y="704" on="1"/>
        <pt x="706" y="695" on="0"/>
        <pt x="751" y="665" on="0"/>
        <pt x="781" y="637" on="0"/>
        <pt x="801" y="596" on="0"/>
        <pt x="818" y="550" on="0"/>
        <pt x="818" y="475" on="1"/>
        <pt x="818" y="234" on="1"/>
        <pt x="818" y="199" on="0"/>
        <pt x="837" y="176" on="0"/>
        <pt x="875" y="176" on="1"/>
        <pt x="865" y="104" on="1"/>
        <pt x="846" y="104" on="1"/>
        <pt x="818" y="104" on="0"/>
        <pt x="800" y="110" on="1"/>
        <pt x="763" y="122" on="0"/>
        <pt x="743" y="184" on="1"/>
        <pt x="719" y="149" on="0"/>
        <pt x="619" y="95" on="0"/>
        <pt x="459" y="95" on="0"/>
        <pt x="363" y="189" on="0"/>
        <pt x="363" y="260" on="1"/>
        <pt x="363" y="301" on="0"/>
        <pt x="394" y="356" on="0"/>
        <pt x="493" y="409" on="0"/>
        <pt x="649" y="447" on="0"/>
        <pt x="731" y="466" on="1"/>
        <pt x="731" y="504" on="0"/>
        <pt x="725" y="552" on="0"/>
        <pt x="700" y="603" on="0"/>
        <pt x="678" y="618" on="1"/>
        <pt x="629" y="650" on="0"/>
        <pt x="519" y="650" on="1"/>
        <pt x="393" y="650" on="0"/>
        <pt x="270" y="559" on="0"/>
        <pt x="270" y="457" on="1"/>
        <pt x="270" y="146" on="1"/>
        <pt x="270" y="-54" on="0"/>
        <pt x="548" y="-54" on="1"/>
        <pt x="685" y="-54" on="0"/>
        <pt x="792" y="-8" on="1"/>
        <pt x="816" y="-77" on="1"/>
        <pt x="770" y="-97" on="0"/>
        <pt x="616" y="-126" on="0"/>
      </contour>
    </TTGlyph>
    <TTGlyph name="atilde" xMin="70" yMin="-11" xMax="527" yMax="706">
      <component glyphName="tilde" x="160" y="0" flags="0x1004"/>
      <component glyphName="a" x="0" y="0" flags="0x1004"/>
    </TTGlyph>
    <TTGlyph name="b" xMin="91" yMin="-11" xMax="516" yMax="735">
      <contour>
        <pt x="292" y="62" on="1"/>
        <pt x="348" y="62" on="0"/>
        <pt x="424" y="116" on="0"/>
        <pt x="424" y="162" on="1"/>
        <pt x="424" y="366" on="1"/>
        <pt x="424" y="457" on="0"/>
        <pt x="308" y="457" on="1"/>
        <pt x="251" y="457" on="0"/>
        <pt x="183" y="425" on="1"/>
        <pt x="183" y="92" on="1"/>
        <pt x="237" y="62" on="0"/>
      </contour>
      <contour>
        <pt x="306" y="-11" on="1"/>
        <pt x="243" y="-11" on="0"/>
        <pt x="170" y="35" on="1"/>
        <pt x="159" y="0" on="1"/>
        <pt x="91" y="0" on="1"/>
        <pt x="91" y="735" on="1"/>
        <pt x="183" y="735" on="1"/>
        <pt x="183" y="493" on="1"/>
        <pt x="242" y="527" on="0"/>
        <pt x="414" y="527" on="0"/>
        <pt x="516" y="436" on="0"/>
        <pt x="516" y="359" on="1"/>
        <pt x="516" y="172" on="1"/>
        <pt x="516" y="91" on="0"/>
        <pt x="405" y="-11" on="0"/>
      </contour>
    </TTGlyph>
    <TTGlyph name="backslash" xMin="31" yMin="0" xMax="344" yMax="735">
      <contour>
        <pt x="254" y="0" on="1"/>
        <pt x="31" y="735" on="1"/>
        <pt x="123" y="735" on="1"/>
        <pt x="344" y="0" on="1"/>
      </contour>
    </TTGlyph>
    <TTGlyph name="bar" xMin="125" yMin="-82" xMax="212" yMax="759">
      <contour>
        <pt x="125" y="-82" on="1"/>
        <pt x="125" y="759" on="1"/>
        <pt x="212" y="759" on="1"/>
        <pt x="212" y="-82" on="1"/>
      </contour>
    </TTGlyph>
    <TTGlyph name="braceleft" xMin="78" yMin="-101" xMax="423" yMax="735">
      <contour>
        <pt x="78" y="280" on="1"/>
        <pt x="78" y="354" on="1"/>
        <pt x="114" y="354" on="1"/>
        <pt x="143" y="354" on="0"/>
        <pt x="157" y="362" on="1"/>
        <pt x="189" y="379" on="0"/>
        <pt x="189" y="491" on="1"/>
        <pt x="189" y="511" on="1"/>
        <pt x="189" y="571" on="0"/>
        <pt x="193" y="606" on="1"/>
        <pt x="196" y="633" on="0"/>
        <pt x="208" y="659" on="0"/>
        <pt x="230" y="694" on="0"/>
        <pt x="264" y="711" on="0"/>
        <pt x="329" y="735" on="0"/>
        <pt x="423" y="735" on="1"/>
        <pt x="423" y="662" on="1"/>
        <pt x="388" y="662" on="0"/>
        <pt x="324" y="656" on="0"/>
        <pt x="301" y="634" on="1"/>
        <pt x="283" y="618" on="0"/>
        <pt x="283" y="520" on="1"/>
        <pt x="283" y="489" on="1"/>
        <pt x="283" y="342" on="0"/>
        <pt x="232" y="317" on="1"/>
        <pt x="283" y="292" on="0"/>
        <pt x="283" y="145" on="1"/>
        <pt x="283" y="115" on="1"/>
        <pt x="283" y="52" on="0"/>
        <pt x="288" y="28" on="1"/>
        <pt x="293" y="8" on="0"/>
        <pt x="309" y="-7" on="0"/>
        <pt x="350" y="-27" on="0"/>
        <pt x="423" y="-27" on="1"/>
        <pt x="423" y="-101" on="1"/>
        <pt x="359" y="-101" on="0"/>
        <pt x="300" y="-90" on="1"/>
        <pt x="277" y="-85" on="0"/>
        <pt x="242" y="-64" on="0"/>
        <pt x="218" y="-46" on="0"/>
        <pt x="202" y="-11" on="0"/>
        <pt x="189" y="30" on="0"/>
        <pt x="189" y="124" on="1"/>
        <pt x="189" y="144" on="1"/>
        <pt x="189" y="256" on="0"/>
        <pt x="157" y="274" on="1"/>
        <pt x="143" y="281" on="0"/>
        <pt x="114" y="281" on="1"/>
      </contour>
    </TTGlyph>
    <TTGlyph name="braceright" xMin="62" yMin="-101" xMax="408" yMax="735">
      <contour>
        <pt x="372" y="281" on="1"/>
        <pt x="343" y="281" on="0"/>
        <pt x="329" y="274" on="1"/>
        <pt x="297" y="256" on="0"/>
        <pt x="297" y="144" on="1"/>
        <pt x="297" y="124" on="1"/>
        <pt x="297" y="74" on="0"/>
        <pt x="294" y="38" on="1"/>
        <pt x="292" y="14" on="0"/>
        <pt x="283" y="-11" on="0"/>
        <pt x="267" y="-46" on="0"/>
        <pt x="244" y="-64" on="0"/>
        <pt x="226" y="-74" on="1"/>
        <pt x="182" y="-101" on="0"/>
        <pt x="62" y="-101" on="1"/>
        <pt x="62" y="-27" on="1"/>
        <pt x="97" y="-27" on="0"/>
        <pt x="159" y="-22" on="0"/>
        <pt x="184" y="0" on="1"/>
        <pt x="203" y="17" on="0"/>
        <pt x="203" y="115" on="1"/>
        <pt x="203" y="145" on="1"/>
        <pt x="203" y="292" on="0"/>
        <pt x="254" y="317" on="1"/>
        <pt x="203" y="342" on="0"/>
        <pt x="203" y="489" on="1"/>
        <pt x="203" y="520" on="1"/>
        <pt x="203" y="577" on="0"/>
        <pt x="197" y="607" on="1"/>
        <pt x="193" y="627" on="0"/>
        <pt x="176" y="642" on="0"/>
        <pt x="136" y="662" on="0"/>
        <pt x="62" y="662" on="1"/>
        <pt x="62" y="735" on="1"/>
        <pt x="119" y="735" on="0"/>
        <pt x="160" y="730" on="1"/>
        <pt x="225" y="721" on="0"/>
        <pt x="266" y="678" on="1"/>
        <pt x="297" y="646" on="0"/>
        <pt x="297" y="511" on="1"/>
        <pt x="297" y="491" on="1"/>
        <pt x="297" y="379" on="0"/>
        <pt x="329" y="362" on="1"/>
        <pt x="343" y="354" on="0"/>
        <pt x="372" y="354" on="1"/>
        <pt x="408" y="354" on="1"/>
        <pt x="408" y="280" on="1"/>
      </contour>
    </TTGlyph>
    <TTGlyph name="bracketleft" xMin="125" yMin="-37" xMax="310" yMax="747">
      <contour>
        <pt x="125" y="-37" on="1"/>
        <pt x="125" y="747" on="1"/>
        <pt x="310" y="747" on="1"/>
        <pt x="310" y="682" on="1"/>
        <pt x="217" y="682" on="1"/>
        <pt x="217" y="28" on="1"/>
        <pt x="310" y="28" on="1"/>
        <pt x="310" y="-37" on="1"/>
      </contour>
    </TTGlyph>
    <TTGlyph name="bracketright" xMin="95" yMin="-37" xMax="280" yMax="747">
      <contour>
        <pt x="95" y="-37" on="1"/>
        <pt x="95" y="28" on="1"/>
        <pt x="188" y="28" on="1"/>
        <pt x="188" y="681" on="1"/>
        <pt x="95" y="681" on="1"/>
        <pt x="95" y="747" on="1"/>
        <pt x="280" y="747" on="1"/>
        <pt x="280" y="-37" on="1"/>
      </contour>
    </TTGlyph>
    <TTGlyph name="breve" xMin="15" yMin="632" xMax="235" yMax="735">
      <contour>
        <pt x="125" y="632" on="1"/>
        <pt x="75" y="632" on="0"/>
        <pt x="15" y="692" on="0"/>
        <pt x="15" y="735" on="1"/>
        <pt x="76" y="735" on="1"/>
        <pt x="76" y="714" on="0"/>
        <pt x="105" y="691" on="0"/>
        <pt x="145" y="691" on="0"/>
        <pt x="174" y="714" on="0"/>
        <pt x="174" y="735" on="1"/>
        <pt x="235" y="735" on="1"/>
        <pt x="235" y="692" on="0"/>
        <pt x="175" y="632" on="0"/>
      </contour>
    </TTGlyph>
    <TTGlyph name="brokenbar" xMin="124" yMin="-82" xMax="211" yMax="759">
      <contour>
        <pt x="124" y="414" on="1"/>
        <pt x="124" y="759" on="1"/>
        <pt x="211" y="759" on="1"/>
        <pt x="211" y="414" on="1"/>
      </contour>
      <contour>
        <pt x="124" y="-82" on="1"/>
        <pt x="124" y="250" on="1"/>
        <pt x="211" y="250" on="1"/>
        <pt x="211" y="-82" on="1"/>
      </contour>
    </TTGlyph>
    <TTGlyph name="bullet" xMin="88" yMin="146" xMax="388" yMax="440">
      <contour>
        <pt x="237" y="146" on="1"/>
        <pt x="157" y="146" on="0"/>
        <pt x="88" y="218" on="0"/>
        <pt x="88" y="366" on="0"/>
        <pt x="158" y="440" on="0"/>
        <pt x="319" y="440" on="0"/>
        <pt x="388" y="367" on="0"/>
        <pt x="388" y="218" on="0"/>
        <pt x="318" y="146" on="0"/>
      </contour>
    </TTGlyph>
    <TTGlyph name="c" xMin="72" yMin="-11" xMax="484" yMax="527">
      <contour>
        <pt x="283" y="-11" on="1"/>
        <pt x="174" y="-11" on="0"/>
        <pt x="72" y="89" on="0"/>
        <pt x="72" y="168" on="1"/>
        <pt x="72" y="365" on="1"/>
        <pt x="72" y="439" on="0"/>
        <pt x="184" y="527" on="0"/>
        <pt x="381" y="527" on="0"/>
        <pt x="484" y="452" on="0"/>
        <pt x="484" y="354" on="1"/>
        <pt x="397" y="345" on="1"/>
        <pt x="397" y="414" on="0"/>
        <pt x="350" y="457" on="0"/>
        <pt x="222" y="457" on="0"/>
        <pt x="164" y="414" on="0"/>
        <pt x="164" y="363" on="1"/>
        <pt x="164" y="160" on="1"/>
        <pt x="164" y="60" on="0"/>
        <pt x="283" y="60" on="1"/>
        <pt x="351" y="60" on="0"/>
        <pt x="393" y="93" on="0"/>
        <pt x="398" y="151" on="1"/>
        <pt x="483" y="151" on="1"/>
        <pt x="475" y="61" on="0"/>
        <pt x="388" y="-11" on="0"/>
      </contour>
    </TTGlyph>
    <TTGlyph name="cacute" xMin="72" yMin="-11" xMax="484" yMax="774">
      <component glyphName="c" x="0" y="0" flags="0x1004"/>
      <component glyphName="acute" x="167" y="0" flags="0x1004"/>
    </TTGlyph>
    <TTGlyph name="caron" xMin="-15" yMin="628" xMax="265" yMax="758">
      <contour>
        <pt x="164" y="628" on="1"/>
        <pt x="91" y="628" on="1"/>
        <pt x="-15" y="758" on="1"/>
        <pt x="73" y="758" on="1"/>
        <pt x="128" y="688" on="1"/>
        <pt x="179" y="758" on="1"/>
        <pt x="265" y="758" on="1"/>
      </contour>
    </TTGlyph>
    <TTGlyph name="caron.alt" xMin="302" yMin="597" xMax="427" yMax="875">
      <contour>
        <pt x="427" y="786" on="1"/>
        <pt x="427" y="725" on="0"/>
        <pt x="373" y="625" on="0"/>
        <pt x="343" y="597" on="1"/>
        <pt x="304" y="618" on="1"/>
        <pt x="371" y="697" on="0"/>
        <pt x="371" y="762" on="1"/>
        <pt x="302" y="762" on="1"/>
        <pt x="302" y="875" on="1"/>
        <pt x="427" y="875" on="1"/>
      </contour>
    </TTGlyph>
    <TTGlyph name="ccaron" xMin="72" yMin="-11" xMax="484" yMax="758">
      <component glyphName="caron" x="165" y="0" flags="0x1004"/>
      <component glyphName="c" x="0" y="0" flags="0x1004"/>
    </TTGlyph>
    <TTGlyph name="ccedilla" xMin="72" yMin="-237" xMax="484" yMax="527">
      <component glyphName="cedilla" x="173" y="0" flags="0x1004"/>
      <component glyphName="c" x="0" y="0" flags="0x1004"/>
    </TTGlyph>
    <TTGlyph name="ccircumflex" xMin="72" yMin="-11" xMax="484" yMax="758">
      <component glyphName="circumflex" x="165" y="0" flags="0x1004"/>
      <component glyphName="c" x="0" y="0" flags="0x1004"/>
    </TTGlyph>
    <TTGlyph name="cdotaccent" xMin="72" yMin="-11" xMax="484" yMax="750">
      <component glyphName="dotaccent" x="165" y="0" flags="0x1004"/>
      <component glyphName="c" x="0" y="0" flags="0x1004"/>
    </TTGlyph>
    <TTGlyph name="cedilla" xMin="59" yMin="-237" xMax="225" yMax="0">
      <contour>
        <pt x="104" y="-237" on="1"/>
        <pt x="82" y="-237" on="0"/>
        <pt x="59" y="-233" on="1"/>
        <pt x="59" y="-187" on="1"/>
        <pt x="78" y="-190" on="0"/>
        <pt x="127" y="-190" on="0"/>
        <pt x="162" y="-162" on="0"/>
        <pt x="162" y="-118" on="0"/>
        <pt x="118" y="-78" on="0"/>
        <pt x="83" y="-77" on="1"/>
        <pt x="83" y="-77" on="0"/>
        <pt x="83" y="0" on="1"/>
        <pt x="114" y="0" on="1"/>
        <pt x="117" y="-46" on="1"/>
        <pt x="168" y="-55" on="0"/>
        <pt x="225" y="-114" on="0"/>
        <pt x="225" y="-185" on="0"/>
        <pt x="162" y="-237" on="0"/>
      </contour>
    </TTGlyph>
    <TTGlyph name="cent" xMin="72" yMin="-100" xMax="484" yMax="624">
      <contour>
        <pt x="264" y="-100" on="1"/>
        <pt x="264" y="29" on="1"/>
        <pt x="314" y="29" on="1"/>
        <pt x="314" y="-100" on="1"/>
      </contour>
      <contour>
        <pt x="264" y="495" on="1"/>
        <pt x="264" y="624" on="1"/>
        <pt x="314" y="624" on="1"/>
        <pt x="314" y="495" on="1"/>
      </contour>
      <contour>
        <pt x="283" y="-11" on="1"/>
        <pt x="388" y="-11" on="0"/>
        <pt x="475" y="61" on="0"/>
        <pt x="483" y="151" on="1"/>
        <pt x="398" y="151" on="1"/>
        <pt x="393" y="93" on="0"/>
        <pt x="351" y="60" on="0"/>
        <pt x="283" y="60" on="1"/>
        <pt x="164" y="60" on="0"/>
        <pt x="164" y="160" on="1"/>
        <pt x="164" y="363" on="1"/>
        <pt x="164" y="414" on="0"/>
        <pt x="222" y="457" on="0"/>
        <pt x="283" y="457" on="1"/>
        <pt x="350" y="457" on="0"/>
        <pt x="397" y="414" on="0"/>
        <pt x="397" y="345" on="1"/>
        <pt x="484" y="354" on="1"/>
        <pt x="484" y="452" on="0"/>
        <pt x="381" y="527" on="0"/>
        <pt x="280" y="527" on="1"/>
        <pt x="184" y="527" on="0"/>
        <pt x="72" y="439" on="0"/>
        <pt x="72" y="365" on="1"/>
        <pt x="72" y="168" on="1"/>
        <pt x="72" y="89" on="0"/>
        <pt x="174" y="-11" on="0"/>
      </contour>
    </TTGlyph>
    <TTGlyph name="circumflex" xMin="-15" yMin="628" xMax="265" yMax="758">
      <contour>
        <pt x="-15" y="628" on="1"/>
        <pt x="91" y="758" on="1"/>
        <pt x="164" y="758" on="1"/>
        <pt x="265" y="628" on="1"/>
        <pt x="179" y="628" on="1"/>
        <pt x="128" y="699" on="1"/>
        <pt x="73" y="628" on="1"/>
      </contour>
    </TTGlyph>
    <TTGlyph name="colon" xMin="125" yMin="48" xMax="250" yMax="517">
      <component glyphName="period" x="34" y="399" flags="0x1004"/>
      <component glyphName="period" x="34" y="48" flags="0x1004"/>
    </TTGlyph>
    <TTGlyph name="comma" xMin="94" yMin="-165" xMax="219" yMax="114">
      <contour>
        <pt x="219" y="24" on="1"/>
        <pt x="219" y="-37" on="0"/>
        <pt x="165" y="-137" on="0"/>
        <pt x="135" y="-165" on="1"/>
        <pt x="96" y="-144" on="1"/>
        <pt x="163" y="-65" on="0"/>
        <pt x="163" y="0" on="1"/>
        <pt x="94" y="0" on="1"/>
        <pt x="94" y="114" on="1"/>
        <pt x="219" y="114" on="1"/>
      </contour>
    </TTGlyph>
    <TTGlyph name="copyright" xMin="76" yMin="-7" xMax="795" yMax="711">
      <contour>
        <pt x="436" y="-7" on="1"/>
        <pt x="284" y="-7" on="0"/>
        <pt x="76" y="200" on="0"/>
        <pt x="76" y="505" on="0"/>
        <pt x="284" y="711" on="0"/>
        <pt x="589" y="711" on="0"/>
        <pt x="795" y="506" on="0"/>
        <pt x="795" y="200" on="0"/>
        <pt x="588" y="-7" on="0"/>
      </contour>
      <contour>
        <pt x="437" y="40" on="1"/>
        <pt x="570" y="40" on="0"/>
        <pt x="743" y="219" on="0"/>
        <pt x="743" y="487" on="0"/>
        <pt x="570" y="665" on="0"/>
        <pt x="304" y="665" on="0"/>
        <pt x="129" y="487" on="0"/>
        <pt x="129" y="219" on="0"/>
        <pt x="304" y="40" on="0"/>
      </contour>
      <contour>
        <pt x="441" y="140" on="1"/>
        <pt x="343" y="140" on="0"/>
        <pt x="269" y="216" on="0"/>
        <pt x="269" y="288" on="1"/>
        <pt x="269" y="424" on="1"/>
        <pt x="269" y="499" on="0"/>
        <pt x="342" y="577" on="0"/>
        <pt x="534" y="577" on="0"/>
        <pt x="600" y="496" on="0"/>
        <pt x="600" y="420" on="1"/>
        <pt x="600" y="408" on="1"/>
        <pt x="543" y="403" on="1"/>
        <pt x="543" y="435" on="1"/>
        <pt x="543" y="490" on="0"/>
        <pt x="496" y="533" on="0"/>
        <pt x="382" y="533" on="0"/>
        <pt x="328" y="489" on="0"/>
        <pt x="328" y="435" on="1"/>
        <pt x="328" y="279" on="1"/>
        <pt x="328" y="226" on="0"/>
        <pt x="383" y="184" on="0"/>
        <pt x="498" y="184" on="0"/>
        <pt x="543" y="224" on="0"/>
        <pt x="543" y="279" on="1"/>
        <pt x="543" y="309" on="1"/>
        <pt x="600" y="309" on="1"/>
        <pt x="600" y="292" on="1"/>
        <pt x="600" y="218" on="0"/>
        <pt x="534" y="140" on="0"/>
      </contour>
    </TTGlyph>
    <TTGlyph name="currency" xMin="57" yMin="176" xMax="504" yMax="525">
      <contour>
        <pt x="276" y="217" on="1"/>
        <pt x="323" y="217" on="0"/>
        <pt x="386" y="287" on="0"/>
        <pt x="386" y="387" on="0"/>
        <pt x="323" y="457" on="0"/>
        <pt x="229" y="457" on="0"/>
        <pt x="166" y="387" on="0"/>
        <pt x="166" y="287" on="0"/>
        <pt x="229" y="217" on="0"/>
      </contour>
      <contour>
        <pt x="275" y="176" on="1"/>
        <pt x="203" y="176" on="0"/>
        <pt x="158" y="229" on="1"/>
        <pt x="86" y="176" on="1"/>
        <pt x="62" y="216" on="1"/>
        <pt x="134" y="268" on="1"/>
        <pt x="120" y="301" on="0"/>
        <pt x="120" y="384" on="0"/>
        <pt x="142" y="421" on="1"/>
        <pt x="57" y="478" on="1"/>
        <pt x="83" y="518" on="1"/>
        <pt x="171" y="458" on="1"/>
        <pt x="213" y="497" on="0"/>
        <pt x="340" y="497" on="0"/>
        <pt x="381" y="457" on="1"/>
        <pt x="475" y="525" on="1"/>
        <pt x="500" y="485" on="1"/>
        <pt x="410" y="420" on="1"/>
        <pt x="431" y="380" on="0"/>
        <pt x="431" y="305" on="0"/>
        <pt x="421" y="279" on="1"/>
        <pt x="504" y="223" on="1"/>
        <pt x="479" y="184" on="1"/>
        <pt x="399" y="237" on="1"/>
        <pt x="355" y="176" on="0"/>
      </contour>
    </TTGlyph>
    <TTGlyph name="d" xMin="72" yMin="-11" xMax="495" yMax="735">
      <contour>
        <pt x="283" y="62" on="1"/>
        <pt x="355" y="62" on="0"/>
        <pt x="403" y="92" on="1"/>
        <pt x="403" y="436" on="1"/>
        <pt x="359" y="457" on="0"/>
        <pt x="232" y="457" on="0"/>
        <pt x="164" y="414" on="0"/>
        <pt x="164" y="369" on="1"/>
        <pt x="164" y="157" on="1"/>
        <pt x="164" y="111" on="0"/>
        <pt x="230" y="62" on="0"/>
      </contour>
      <contour>
        <pt x="277" y="-11" on="1"/>
        <pt x="171" y="-11" on="0"/>
        <pt x="72" y="84" on="0"/>
        <pt x="72" y="164" on="1"/>
        <pt x="72" y="359" on="1"/>
        <pt x="72" y="439" on="0"/>
        <pt x="179" y="527" on="0"/>
        <pt x="289" y="527" on="1"/>
        <pt x="352" y="527" on="0"/>
        <pt x="403" y="508" on="1"/>
        <pt x="403" y="508" on="0"/>
        <pt x="403" y="735" on="1"/>
        <pt x="495" y="735" on="1"/>
        <pt x="495" y="0" on="1"/>
        <pt x="433" y="0" on="1"/>
        <pt x="417" y="34" on="1"/>
        <pt x="393" y="16" on="0"/>
        <pt x="315" y="-11" on="0"/>
      </contour>
    </TTGlyph>
    <TTGlyph name="dagger" xMin="43" yMin="0" xMax="392" yMax="706">
      <contour>
        <pt x="170" y="0" on="1"/>
        <pt x="170" y="455" on="1"/>
        <pt x="43" y="455" on="1"/>
        <pt x="43" y="518" on="1"/>
        <pt x="170" y="518" on="1"/>
        <pt x="170" y="706" on="1"/>
        <pt x="262" y="706" on="1"/>
        <pt x="262" y="518" on="1"/>
        <pt x="392" y="518" on="1"/>
        <pt x="392" y="455" on="1"/>
        <pt x="262" y="455" on="1"/>
        <pt x="262" y="0" on="1"/>
      </contour>
    </TTGlyph>
    <TTGlyph name="daggerdbl" xMin="55" yMin="0" xMax="403" yMax="706">
      <contour>
        <pt x="182" y="0" on="1"/>
        <pt x="182" y="200" on="1"/>
        <pt x="55" y="200" on="1"/>
        <pt x="55" y="263" on="1"/>
        <pt x="182" y="263" on="1"/>
        <pt x="182" y="455" on="1"/>
        <pt x="55" y="455" on="1"/>
        <pt x="55" y="518" on="1"/>
        <pt x="182" y="518" on="1"/>
        <pt x="182" y="706" on="1"/>
        <pt x="273" y="706" on="1"/>
        <pt x="273" y="518" on="1"/>
        <pt x="403" y="518" on="1"/>
        <pt x="403" y="455" on="1"/>
        <pt x="273" y="455" on="1"/>
        <pt x="273" y="263" on="1"/>
        <pt x="403" y="263" on="1"/>
        <pt x="403" y="200" on="1"/>
        <pt x="273" y="200" on="1"/>
        <pt x="273" y="0" on="1"/>
      </contour>
    </TTGlyph>
    <TTGlyph name="dcaron" xMin="72" yMin="-11" xMax="678" yMax="875">
      <component glyphName="d" x="0" y="0" flags="0x1004"/>
      <component glyphName="caron.alt" x="251" y="0" flags="0x1004"/>
    </TTGlyph>
    <TTGlyph name="dcroat" xMin="72" yMin="-11" xMax="577" yMax="735">
      <contour>
        <pt x="277" y="-11" on="1"/>
        <pt x="171" y="-11" on="0"/>
        <pt x="72" y="84" on="0"/>
        <pt x="72" y="164" on="1"/>
        <pt x="72" y="359" on="1"/>
        <pt x="72" y="439" on="0"/>
        <pt x="179" y="527" on="0"/>
        <pt x="289" y="527" on="1"/>
        <pt x="352" y="527" on="0"/>
        <pt x="403" y="508" on="1"/>
        <pt x="403" y="608" on="1"/>
        <pt x="309" y="608" on="1"/>
        <pt x="309" y="663" on="1"/>
        <pt x="403" y="663" on="1"/>
        <pt x="403" y="735" on="1"/>
        <pt x="495" y="735" on="1"/>
        <pt x="495" y="663" on="1"/>
        <pt x="577" y="663" on="1"/>
        <pt x="577" y="608" on="1"/>
        <pt x="495" y="608" on="1"/>
        <pt x="495" y="0" on="1"/>
        <pt x="433" y="0" on="1"/>
        <pt x="417" y="34" on="1"/>
        <pt x="393" y="16" on="0"/>
        <pt x="315" y="-11" on="0"/>
      </contour>
      <contour>
        <pt x="283" y="62" on="1"/>
        <pt x="355" y="62" on="0"/>
        <pt x="403" y="92" on="1"/>
        <pt x="403" y="436" on="1"/>
        <pt x="359" y="457" on="0"/>
        <pt x="232" y="457" on="0"/>
        <pt x="164" y="414" on="0"/>
        <pt x="164" y="369" on="1"/>
        <pt x="164" y="157" on="1"/>
        <pt x="164" y="111" on="0"/>
        <pt x="230" y="62" on="0"/>
      </contour>
    </TTGlyph>
    <TTGlyph name="degree" xMin="95" yMin="390" xMax="411" yMax="706">
      <contour>
        <pt x="253" y="390" on="1"/>
        <pt x="188" y="390" on="0"/>
        <pt x="95" y="483" on="0"/>
        <pt x="95" y="613" on="0"/>
        <pt x="188" y="706" on="0"/>
        <pt x="318" y="706" on="0"/>
        <pt x="411" y="613" on="0"/>
        <pt x="411" y="483" on="0"/>
        <pt x="318" y="390" on="0"/>
      </contour>
      <contour>
        <pt x="253" y="432" on="1"/>
        <pt x="301" y="432" on="0"/>
        <pt x="365" y="500" on="0"/>
        <pt x="365" y="596" on="0"/>
        <pt x="301" y="665" on="0"/>
        <pt x="206" y="665" on="0"/>
        <pt x="142" y="597" on="0"/>
        <pt x="142" y="499" on="0"/>
        <pt x="205" y="432" on="0"/>
      </contour>
    </TTGlyph>
    <TTGlyph name="dieresis" xMin="77" yMin="656" xMax="423" yMax="744">
      <contour>
        <pt x="323" y="656" on="1"/>
        <pt x="323" y="744" on="1"/>
        <pt x="423" y="744" on="1"/>
        <pt x="423" y="656" on="1"/>
      </contour>
      <contour>
        <pt x="77" y="656" on="1"/>
        <pt x="77" y="744" on="1"/>
        <pt x="178" y="744" on="1"/>
        <pt x="178" y="656" on="1"/>
      </contour>
    </TTGlyph>
    <TTGlyph name="divide" xMin="49" yMin="44" xMax="452" yMax="486">
      <contour>
        <pt x="202" y="384" on="1"/>
        <pt x="202" y="486" on="1"/>
        <pt x="302" y="486" on="1"/>
        <pt x="302" y="384" on="1"/>
      </contour>
      <contour>
        <pt x="49" y="230" on="1"/>
        <pt x="49" y="297" on="1"/>
        <pt x="452" y="297" on="1"/>
        <pt x="452" y="230" on="1"/>
      </contour>
      <contour>
        <pt x="202" y="44" on="1"/>
        <pt x="202" y="146" on="1"/>
        <pt x="302" y="146" on="1"/>
        <pt x="302" y="44" on="1"/>
      </contour>
    </TTGlyph>
    <TTGlyph name="dollar" xMin="70" yMin="-182" xMax="568" yMax="858">
      <contour>
        <pt x="179" y="531" on="1"/>
        <pt x="179" y="497" on="0"/>
        <pt x="208" y="457" on="0"/>
        <pt x="251" y="443" on="1"/>
        <pt x="303" y="425" on="1"/>
        <pt x="303" y="637" on="1"/>
        <pt x="185" y="629" on="0"/>
        <pt x="180" y="555" on="1"/>
      </contour>
      <contour>
        <pt x="478" y="213" on="1"/>
        <pt x="478" y="246" on="0"/>
        <pt x="443" y="287" on="0"/>
        <pt x="392" y="303" on="1"/>
        <pt x="356" y="315" on="1"/>
        <pt x="356" y="69" on="1"/>
        <pt x="427" y="72" on="0"/>
        <pt x="478" y="138" on="0"/>
      </contour>
      <contour>
        <pt x="70" y="55" on="1"/>
        <pt x="105" y="130" on="1"/>
        <pt x="192" y="78" on="0"/>
        <pt x="303" y="69" on="1"/>
        <pt x="303" y="332" on="1"/>
        <pt x="221" y="359" on="1"/>
        <pt x="146" y="383" on="0"/>
        <pt x="83" y="461" on="0"/>
        <pt x="83" y="532" on="1"/>
        <pt x="83" y="624" on="0"/>
        <pt x="202" y="713" on="0"/>
        <pt x="303" y="717" on="1"/>
        <pt x="303" y="858" on="1"/>
        <pt x="356" y="858" on="1"/>
        <pt x="356" y="716" on="1"/>
        <pt x="486" y="711" on="0"/>
        <pt x="557" y="667" on="1"/>
        <pt x="533" y="591" on="1"/>
        <pt x="454" y="634" on="0"/>
        <pt x="356" y="638" on="1"/>
        <pt x="356" y="408" on="1"/>
        <pt x="429" y="383" on="1"/>
        <pt x="503" y="358" on="0"/>
        <pt x="568" y="276" on="0"/>
        <pt x="568" y="198" on="1"/>
        <pt x="568" y="-2" on="0"/>
        <pt x="356" y="-11" on="1"/>
        <pt x="356" y="-182" on="1"/>
        <pt x="303" y="-182" on="1"/>
        <pt x="303" y="-10" on="1"/>
        <pt x="171" y="-4" on="0"/>
      </contour>
    </TTGlyph>
    <TTGlyph name="dotaccent" xMin="73" yMin="648" xMax="167" yMax="750">
      <contour>
        <pt x="73" y="648" on="1"/>
        <pt x="73" y="750" on="1"/>
        <pt x="167" y="750" on="1"/>
        <pt x="167" y="648" on="1"/>
      </contour>
    </TTGlyph>
    <TTGlyph name="dotlessi" xMin="94" yMin="0" xMax="186" yMax="518">
      <contour>
        <pt x="94" y="0" on="1"/>
        <pt x="94" y="518" on="1"/>
        <pt x="186" y="518" on="1"/>
        <pt x="186" y="0" on="1"/>
      </contour>
    </TTGlyph>
    <TTGlyph name="e" xMin="72" yMin="-11" xMax="491" yMax="527">
      <contour>
        <pt x="164" y="309" on="1"/>
        <pt x="402" y="309" on="1"/>
        <pt x="402" y="380" on="1"/>
        <pt x="402" y="424" on="0"/>
        <pt x="342" y="457" on="0"/>
        <pt x="284" y="457" on="1"/>
        <pt x="164" y="457" on="0"/>
        <pt x="164" y="371" on="1"/>
      </contour>
      <contour>
        <pt x="288" y="-11" on="1"/>
        <pt x="174" y="-11" on="0"/>
        <pt x="72" y="84" on="0"/>
        <pt x="72" y="183" on="1"/>
        <pt x="72" y="363" on="1"/>
        <pt x="72" y="440" on="0"/>
        <pt x="177" y="527" on="0"/>
        <pt x="388" y="527" on="0"/>
        <pt x="491" y="445" on="0"/>
        <pt x="491" y="370" on="1"/>
        <pt x="491" y="247" on="1"/>
        <pt x="164" y="247" on="1"/>
        <pt x="164" y="174" on="1"/>
        <pt x="164" y="110" on="0"/>
        <pt x="216" y="60" on="0"/>
        <pt x="359" y="60" on="0"/>
        <pt x="403" y="83" on="0"/>
        <pt x="409" y="138" on="1"/>
        <pt x="490" y="138" on="1"/>
        <pt x="480" y="48" on="0"/>
        <pt x="398" y="-11" on="0"/>
      </contour>
    </TTGlyph>
    <TTGlyph name="eacute" xMin="72" yMin="-11" xMax="491" yMax="774">
      <component glyphName="e" x="0" y="0" flags="0x1004"/>
      <component glyphName="acute" x="162" y="0" flags="0x1004"/>
    </TTGlyph>
    <TTGlyph name="ebreve" xMin="72" yMin="-11" xMax="491" yMax="735">
      <component glyphName="e" x="0" y="0" flags="0x1004"/>
      <component glyphName="breve" x="155" y="0" flags="0x1004"/>
    </TTGlyph>
    <TTGlyph name="ecaron" xMin="72" yMin="-11" xMax="491" yMax="758">
      <component glyphName="e" x="0" y="0" flags="0x1004"/>
      <component glyphName="caron" x="160" y="0" flags="0x1004"/>
    </TTGlyph>
    <TTGlyph name="ecircumflex" xMin="72" yMin="-11" xMax="491" yMax="758">
      <component glyphName="e" x="0" y="0" flags="0x1004"/>
      <component glyphName="circumflex" x="160" y="0" flags="0x1004"/>
    </TTGlyph>
    <TTGlyph name="edieresis" xMin="72" yMin="-11" xMax="491" yMax="744">
      <component glyphName="e" x="0" y="0" flags="0x1004"/>
      <component glyphName="dieresis" x="35" y="0" flags="0x1004"/>
    </TTGlyph>
    <TTGlyph name="edotaccent" xMin="72" yMin="-11" xMax="491" yMax="750">
      <component glyphName="e" x="0" y="0" flags="0x1004"/>
      <component glyphName="dotaccent" x="160" y="0" flags="0x1004"/>
    </TTGlyph>
    <TTGlyph name="egrave" xMin="72" yMin="-11" xMax="491" yMax="774">
      <component glyphName="grave" x="119" y="0" flags="0x1004"/>
      <component glyphName="e" x="0" y="0" flags="0x1004"/>
    </TTGlyph>
    <TTGlyph name="eight" xMin="64" yMin="-11" xMax="546" yMax="717">
      <contour>
        <pt x="173" y="541" on="1"/>
        <pt x="173" y="518" on="0"/>
        <pt x="192" y="481" on="0"/>
        <pt x="243" y="443" on="0"/>
        <pt x="305" y="413" on="1"/>
        <pt x="365" y="442" on="0"/>
        <pt x="396" y="466" on="1"/>
        <pt x="437" y="496" on="0"/>
        <pt x="437" y="541" on="1"/>
        <pt x="437" y="638" on="0"/>
        <pt x="173" y="638" on="0"/>
      </contour>
      <contour>
        <pt x="306" y="68" on="1"/>
        <pt x="378" y="68" on="0"/>
        <pt x="453" y="121" on="0"/>
        <pt x="453" y="182" on="1"/>
        <pt x="453" y="210" on="0"/>
        <pt x="431" y="255" on="0"/>
        <pt x="373" y="302" on="0"/>
        <pt x="305" y="336" on="1"/>
        <pt x="232" y="300" on="0"/>
        <pt x="158" y="234" on="0"/>
        <pt x="158" y="121" on="0"/>
        <pt x="233" y="68" on="0"/>
      </contour>
      <contour>
        <pt x="303" y="-11" on="1"/>
        <pt x="192" y="-11" on="0"/>
        <pt x="64" y="85" on="0"/>
        <pt x="64" y="179" on="1"/>
        <pt x="64" y="311" on="0"/>
        <pt x="214" y="377" on="1"/>
        <pt x="148" y="407" on="0"/>
        <pt x="78" y="479" on="0"/>
        <pt x="78" y="541" on="1"/>
        <pt x="78" y="633" on="0"/>
        <pt x="204" y="717" on="0"/>
        <pt x="407" y="717" on="0"/>
        <pt x="532" y="633" on="0"/>
        <pt x="532" y="541" on="1"/>
        <pt x="532" y="479" on="0"/>
        <pt x="462" y="407" on="0"/>
        <pt x="396" y="377" on="1"/>
        <pt x="546" y="311" on="0"/>
        <pt x="546" y="179" on="1"/>
        <pt x="546" y="85" on="0"/>
        <pt x="416" y="-11" on="0"/>
      </contour>
    </TTGlyph>
    <TTGlyph name="ellipsis" xMin="91" yMin="0" xMax="829" yMax="118">
      <component glyphName="period" x="613" y="0" flags="0x1004"/>
      <component glyphName="period" x="307" y="0" flags="0x1004"/>
      <component glyphName="period" x="0" y="0" flags="0x1004"/>
    </TTGlyph>
    <TTGlyph name="emacron" xMin="72" yMin="-11" xMax="491" yMax="717">
      <component glyphName="macron" x="160" y="0" flags="0x1004"/>
      <component glyphName="e" x="0" y="0" flags="0x1004"/>
    </TTGlyph>
    <TTGlyph name="emdash" xMin="1" yMin="196" xMax="536" yMax="268">
      <contour>
        <pt x="1" y="196" on="1"/>
        <pt x="1" y="268" on="1"/>
        <pt x="536" y="268" on="1"/>
        <pt x="536" y="196" on="1"/>
      </contour>
    </TTGlyph>
    <TTGlyph name="emptyset" xMin="78" yMin="-1" xMax="680" yMax="653">
      <contour>
        <pt x="680" y="205" on="0"/>
        <pt x="507" y="32" on="0"/>
        <pt x="379" y="32" on="1"/>
        <pt x="283" y="32" on="0"/>
        <pt x="206" y="85" on="1"/>
        <pt x="134" y="-1" on="1"/>
        <pt x="101" y="26" on="1"/>
        <pt x="173" y="111" on="1"/>
        <pt x="128" y="153" on="0"/>
        <pt x="78" y="267" on="0"/>
        <pt x="78" y="333" on="1"/>
        <pt x="78" y="460" on="0"/>
        <pt x="252" y="633" on="0"/>
        <pt x="379" y="633" on="1"/>
        <pt x="482" y="633" on="0"/>
        <pt x="561" y="574" on="1"/>
        <pt x="561" y="574" on="0"/>
        <pt x="627" y="653" on="1"/>
        <pt x="660" y="625" on="1"/>
        <pt x="594" y="546" on="1"/>
        <pt x="680" y="460" on="0"/>
      </contour>
      <contour>
        <pt x="561" y="508" on="1"/>
        <pt x="239" y="124" on="1"/>
        <pt x="300" y="82" on="0"/>
        <pt x="380" y="82" on="1"/>
        <pt x="487" y="82" on="0"/>
        <pt x="626" y="224" on="0"/>
        <pt x="626" y="437" on="0"/>
      </contour>
      <contour>
        <pt x="205" y="150" on="1"/>
        <pt x="529" y="536" on="1"/>
        <pt x="465" y="584" on="0"/>
        <pt x="380" y="584" on="1"/>
        <pt x="273" y="584" on="0"/>
        <pt x="132" y="441" on="0"/>
        <pt x="132" y="222" on="0"/>
      </contour>
    </TTGlyph>
    <TTGlyph name="endash" xMin="1" yMin="296" xMax="261" yMax="357">
      <contour>
        <pt x="1" y="296" on="1"/>
        <pt x="1" y="357" on="1"/>
        <pt x="261" y="357" on="1"/>
        <pt x="261" y="296" on="1"/>
      </contour>
    </TTGlyph>
    <TTGlyph name="eng" xMin="91" yMin="-154" xMax="513" yMax="527">
      <contour>
        <pt x="513" y="107" on="1"/>
        <pt x="513" y="-40" on="0"/>
        <pt x="435" y="-154" on="0"/>
        <pt x="313" y="-154" on="1"/>
        <pt x="299" y="-85" on="1"/>
        <pt x="349" y="-85" on="0"/>
        <pt x="369" y="-76" on="1"/>
        <pt x="382" y="-71" on="0"/>
        <pt x="399" y="-61" on="0"/>
        <pt x="411" y="-33" on="0"/>
        <pt x="421" y="0" on="0"/>
        <pt x="421" y="52" on="1"/>
        <pt x="421" y="381" on="1"/>
        <pt x="421" y="457" on="0"/>
        <pt x="304" y="457" on="1"/>
        <pt x="247" y="457" on="0"/>
        <pt x="183" y="409" on="0"/>
        <pt x="183" y="369" on="1"/>
        <pt x="183" y="0" on="1"/>
        <pt x="91" y="0" on="1"/>
        <pt x="91" y="518" on="1"/>
        <pt x="183" y="518" on="1"/>
        <pt x="183" y="467" on="1"/>
        <pt x="234" y="527" on="0"/>
        <pt x="426" y="527" on="0"/>
        <pt x="513" y="443" on="0"/>
        <pt x="513" y="376" on="1"/>
      </contour>
    </TTGlyph>
    <TTGlyph name="eogonek" xMin="72" yMin="-232" xMax="491" yMax="527">
      <component glyphName="ogonek" x="183" y="0" flags="0x1004"/>
      <component glyphName="e" x="0" y="0" flags="0x1004"/>
    </TTGlyph>
    <TTGlyph name="equal" xMin="109" yMin="228" xMax="501" yMax="465">
      <contour>
        <pt x="109" y="393" on="1"/>
        <pt x="109" y="465" on="1"/>
        <pt x="501" y="465" on="1"/>
        <pt x="501" y="393" on="1"/>
      </contour>
      <contour>
        <pt x="109" y="228" on="1"/>
        <pt x="109" y="300" on="1"/>
        <pt x="501" y="300" on="1"/>
        <pt x="501" y="228" on="1"/>
      </contour>
    </TTGlyph>
    <TTGlyph name="estimated" xMin="46" yMin="87" xMax="542" yMax="625">
      <contour>
        <pt x="46" y="356" on="1"/>
        <pt x="46" y="471" on="0"/>
        <pt x="195" y="625" on="0"/>
        <pt x="424" y="625" on="0"/>
        <pt x="542" y="475" on="0"/>
        <pt x="542" y="347" on="1"/>
        <pt x="159" y="347" on="1"/>
        <pt x="159" y="198" on="1"/>
        <pt x="219" y="129" on="0"/>
        <pt x="435" y="129" on="0"/>
        <pt x="513" y="213" on="1"/>
        <pt x="538" y="188" on="1"/>
        <pt x="454" y="87" on="0"/>
        <pt x="188" y="87" on="0"/>
        <pt x="46" y="235" on="0"/>
      </contour>
      <contour>
        <pt x="312" y="591" on="1"/>
        <pt x="267" y="591" on="0"/>
        <pt x="185" y="555" on="0"/>
        <pt x="159" y="521" on="1"/>
        <pt x="159" y="386" on="1"/>
        <pt x="458" y="386" on="1"/>
        <pt x="458" y="520" on="1"/>
        <pt x="410" y="591" on="0"/>
      </contour>
    </TTGlyph>
    <TTGlyph name="eth" xMin="73" yMin="-10" xMax="493" yMax="790">
      <contour>
        <pt x="287" y="59" on="1"/>
        <pt x="359" y="59" on="0"/>
        <pt x="403" y="110" on="0"/>
        <pt x="403" y="161" on="1"/>
        <pt x="403" y="382" on="1"/>
        <pt x="387" y="392" on="0"/>
        <pt x="312" y="407" on="0"/>
        <pt x="287" y="407" on="1"/>
        <pt x="165" y="407" on="0"/>
        <pt x="165" y="318" on="1"/>
        <pt x="165" y="150" on="1"/>
        <pt x="165" y="59" on="0"/>
      </contour>
      <contour>
        <pt x="287" y="-10" on="1"/>
        <pt x="176" y="-10" on="0"/>
        <pt x="73" y="77" on="0"/>
        <pt x="73" y="153" on="1"/>
        <pt x="73" y="315" on="1"/>
        <pt x="73" y="389" on="0"/>
        <pt x="186" y="476" on="0"/>
        <pt x="282" y="476" on="1"/>
        <pt x="321" y="476" on="0"/>
        <pt x="389" y="455" on="0"/>
        <pt x="401" y="445" on="1"/>
        <pt x="401" y="583" on="0"/>
        <pt x="299" y="637" on="1"/>
        <pt x="230" y="537" on="1"/>
        <pt x="184" y="562" on="1"/>
        <pt x="247" y="655" on="1"/>
        <pt x="206" y="662" on="0"/>
        <pt x="154" y="662" on="0"/>
        <pt x="103" y="659" on="1"/>
        <pt x="116" y="721" on="1"/>
        <pt x="161" y="729" on="0"/>
        <pt x="244" y="729" on="0"/>
        <pt x="291" y="718" on="1"/>
        <pt x="340" y="790" on="1"/>
        <pt x="387" y="764" on="1"/>
        <pt x="338" y="697" on="1"/>
        <pt x="493" y="620" on="0"/>
        <pt x="493" y="359" on="1"/>
        <pt x="493" y="178" on="1"/>
        <pt x="493" y="136" on="0"/>
        <pt x="480" y="79" on="0"/>
        <pt x="460" y="50" on="1"/>
        <pt x="421" y="-10" on="0"/>
      </contour>
    </TTGlyph>
    <TTGlyph name="exclam" xMin="137" yMin="0" xMax="238" yMax="706">
      <contour>
        <pt x="238" y="706" on="1"/>
        <pt x="238" y="518" on="0"/>
        <pt x="200" y="181" on="1"/>
        <pt x="172" y="181" on="1"/>
        <pt x="164" y="270" on="1"/>
        <pt x="140" y="539" on="0"/>
        <pt x="140" y="706" on="1"/>
      </contour>
      <contour>
        <pt x="137" y="0" on="1"/>
        <pt x="137" y="101" on="1"/>
        <pt x="236" y="101" on="1"/>
        <pt x="236" y="0" on="1"/>
      </contour>
    </TTGlyph>
    <TTGlyph name="exclamdown" xMin="137" yMin="-88" xMax="238" yMax="618">
      <component glyphName="exclam" x="375" y="618" scale="-1.0" flags="0x1004"/>
    </TTGlyph>
    <TTGlyph name="f" xMin="50" yMin="0" xMax="359" yMax="735">
      <contour>
        <pt x="136" y="0" on="1"/>
        <pt x="136" y="448" on="1"/>
        <pt x="50" y="448" on="1"/>
        <pt x="50" y="518" on="1"/>
        <pt x="136" y="518" on="1"/>
        <pt x="136" y="596" on="1"/>
        <pt x="136" y="668" on="0"/>
        <pt x="215" y="735" on="0"/>
        <pt x="295" y="735" on="1"/>
        <pt x="354" y="735" on="1"/>
        <pt x="359" y="670" on="1"/>
        <pt x="303" y="670" on="1"/>
        <pt x="228" y="670" on="0"/>
        <pt x="228" y="605" on="1"/>
        <pt x="228" y="518" on="1"/>
        <pt x="354" y="518" on="1"/>
        <pt x="354" y="448" on="1"/>
        <pt x="228" y="448" on="1"/>
        <pt x="228" y="0" on="1"/>
      </contour>
    </TTGlyph>
    <TTGlyph name="f_f" xMin="50" yMin="0" xMax="740" yMax="735">
      <component glyphName="f" x="0" y="0" flags="0x1004"/>
      <component glyphName="f" x="381" y="0" flags="0x1004"/>
    </TTGlyph>
    <TTGlyph name="f_f_i" xMin="50" yMin="0" xMax="948" yMax="750">
      <component glyphName="i" x="762" y="0" flags="0x1004"/>
      <component glyphName="f" x="0" y="0" flags="0x1004"/>
      <component glyphName="f" x="381" y="0" flags="0x1004"/>
    </TTGlyph>
    <TTGlyph name="f_f_l" xMin="50" yMin="-4" xMax="1058" yMax="735">
      <component glyphName="l" x="762" y="0" flags="0x1004"/>
      <component glyphName="f" x="0" y="0" flags="0x1004"/>
      <component glyphName="f" x="381" y="0" flags="0x1004"/>
    </TTGlyph>
    <TTGlyph name="five" xMin="84" yMin="-11" xMax="545" yMax="706">
      <contour>
        <pt x="309" y="-11" on="1"/>
        <pt x="191" y="-11" on="0"/>
        <pt x="84" y="52" on="1"/>
        <pt x="110" y="127" on="1"/>
        <pt x="156" y="96" on="0"/>
        <pt x="237" y="68" on="0"/>
        <pt x="375" y="68" on="0"/>
        <pt x="453" y="144" on="0"/>
        <pt x="453" y="214" on="1"/>
        <pt x="453" y="372" on="0"/>
        <pt x="315" y="372" on="1"/>
        <pt x="281" y="372" on="0"/>
        <pt x="228" y="348" on="0"/>
        <pt x="187" y="318" on="1"/>
        <pt x="115" y="348" on="1"/>
        <pt x="140" y="706" on="1"/>
        <pt x="500" y="706" on="1"/>
        <pt x="500" y="625" on="1"/>
        <pt x="219" y="625" on="1"/>
        <pt x="198" y="400" on="1"/>
        <pt x="248" y="445" on="0"/>
        <pt x="327" y="445" on="1"/>
        <pt x="434" y="445" on="0"/>
        <pt x="545" y="326" on="0"/>
        <pt x="545" y="116" on="0"/>
        <pt x="416" y="-11" on="0"/>
      </contour>
    </TTGlyph>
    <TTGlyph name="florin" xMin="69" yMin="-93" xMax="347" yMax="715">
      <contour>
        <pt x="332" y="652" on="1"/>
        <pt x="286" y="652" on="0"/>
        <pt x="254" y="612" on="0"/>
        <pt x="254" y="575" on="1"/>
        <pt x="254" y="419" on="1"/>
        <pt x="317" y="419" on="1"/>
        <pt x="317" y="355" on="1"/>
        <pt x="254" y="355" on="1"/>
        <pt x="254" y="44" on="1"/>
        <pt x="254" y="-27" on="0"/>
        <pt x="195" y="-93" on="0"/>
        <pt x="123" y="-93" on="1"/>
        <pt x="109" y="-93" on="0"/>
        <pt x="69" y="-89" on="1"/>
        <pt x="69" y="-29" on="1"/>
        <pt x="77" y="-30" on="0"/>
        <pt x="131" y="-30" on="0"/>
        <pt x="163" y="0" on="0"/>
        <pt x="163" y="31" on="1"/>
        <pt x="163" y="355" on="1"/>
        <pt x="105" y="355" on="1"/>
        <pt x="105" y="419" on="1"/>
        <pt x="163" y="419" on="1"/>
        <pt x="163" y="564" on="1"/>
        <pt x="163" y="645" on="0"/>
        <pt x="221" y="715" on="0"/>
        <pt x="296" y="715" on="1"/>
        <pt x="318" y="715" on="0"/>
        <pt x="347" y="712" on="1"/>
        <pt x="347" y="651" on="1"/>
      </contour>
    </TTGlyph>
    <TTGlyph name="foundryicon" xMin="17" yMin="1" xMax="641" yMax="593">
      <contour>
        <pt x="137" y="1" on="1"/>
        <pt x="207" y="225" on="1"/>
        <pt x="17" y="369" on="1"/>
        <pt x="253" y="369" on="1"/>
        <pt x="327" y="593" on="1"/>
        <pt x="404" y="369" on="1"/>
        <pt x="641" y="369" on="1"/>
        <pt x="450" y="225" on="1"/>
        <pt x="521" y="1" on="1"/>
        <pt x="327" y="136" on="1"/>
      </contour>
      <contour>
        <pt x="237" y="198" on="1"/>
        <pt x="289" y="198" on="1"/>
        <pt x="289" y="270" on="1"/>
        <pt x="372" y="198" on="1"/>
        <pt x="423" y="198" on="1"/>
        <pt x="423" y="328" on="1"/>
        <pt x="372" y="328" on="1"/>
        <pt x="372" y="255" on="1"/>
        <pt x="289" y="328" on="1"/>
        <pt x="237" y="328" on="1"/>
      </contour>
    </TTGlyph>
    <TTGlyph name="four" xMin="70" yMin="0" xMax="567" yMax="706">
      <contour>
        <pt x="382" y="0" on="1"/>
        <pt x="382" y="171" on="1"/>
        <pt x="70" y="171" on="1"/>
        <pt x="70" y="248" on="1"/>
        <pt x="328" y="706" on="1"/>
        <pt x="430" y="706" on="1"/>
        <pt x="179" y="247" on="1"/>
        <pt x="382" y="247" on="1"/>
        <pt x="382" y="409" on="1"/>
        <pt x="464" y="409" on="1"/>
        <pt x="464" y="247" on="1"/>
        <pt x="567" y="247" on="1"/>
        <pt x="567" y="171" on="1"/>
        <pt x="464" y="171" on="1"/>
        <pt x="464" y="0" on="1"/>
      </contour>
    </TTGlyph>
    <TTGlyph name="fraction" xMin="8" yMin="0" xMax="367" yMax="735">
      <contour>
        <pt x="8" y="0" on="1"/>
        <pt x="278" y="735" on="1"/>
        <pt x="367" y="735" on="1"/>
        <pt x="99" y="0" on="1"/>
      </contour>
    </TTGlyph>
    <TTGlyph name="g" xMin="72" yMin="-199" xMax="493" yMax="527">
      <contour>
        <pt x="283" y="90" on="1"/>
        <pt x="352" y="90" on="0"/>
        <pt x="401" y="129" on="1"/>
        <pt x="401" y="386" on="1"/>
        <pt x="401" y="457" on="0"/>
        <pt x="164" y="457" on="0"/>
        <pt x="164" y="365" on="1"/>
        <pt x="164" y="171" on="1"/>
        <pt x="164" y="90" on="0"/>
      </contour>
      <contour>
        <pt x="294" y="-199" on="1"/>
        <pt x="176" y="-199" on="0"/>
        <pt x="124" y="-180" on="1"/>
        <pt x="144" y="-111" on="1"/>
        <pt x="194" y="-129" on="0"/>
        <pt x="342" y="-129" on="0"/>
        <pt x="401" y="-74" on="0"/>
        <pt x="401" y="-15" on="1"/>
        <pt x="401" y="57" on="1"/>
        <pt x="381" y="39" on="0"/>
        <pt x="302" y="20" on="0"/>
        <pt x="269" y="20" on="1"/>
        <pt x="72" y="20" on="0"/>
        <pt x="72" y="185" on="1"/>
        <pt x="72" y="355" on="1"/>
        <pt x="72" y="436" on="0"/>
        <pt x="171" y="527" on="0"/>
        <pt x="269" y="527" on="1"/>
        <pt x="308" y="527" on="0"/>
        <pt x="389" y="495" on="0"/>
        <pt x="401" y="476" on="1"/>
        <pt x="401" y="518" on="1"/>
        <pt x="493" y="518" on="1"/>
        <pt x="493" y="12" on="1"/>
        <pt x="493" y="-83" on="0"/>
        <pt x="393" y="-199" on="0"/>
      </contour>
    </TTGlyph>
    <TTGlyph name="gbreve" xMin="72" yMin="-199" xMax="493" yMax="735">
      <component glyphName="g" x="0" y="0" flags="0x1004"/>
      <component glyphName="breve" x="146" y="0" flags="0x1004"/>
    </TTGlyph>
    <TTGlyph name="gcaron" xMin="72" yMin="-199" xMax="493" yMax="758">
      <component glyphName="g" x="0" y="0" flags="0x1004"/>
      <component glyphName="caron" x="151" y="0" flags="0x1004"/>
    </TTGlyph>
    <TTGlyph name="gcircumflex" xMin="72" yMin="-199" xMax="493" yMax="758">
      <component glyphName="g" x="0" y="0" flags="0x1004"/>
      <component glyphName="circumflex" x="151" y="0" flags="0x1004"/>
    </TTGlyph>
    <TTGlyph name="gdotaccent" xMin="72" yMin="-199" xMax="493" yMax="750">
      <component glyphName="g" x="0" y="0" flags="0x1004"/>
      <component glyphName="dotaccent" x="151" y="0" flags="0x1004"/>
    </TTGlyph>
    <TTGlyph name="germandbls" xMin="93" yMin="0" xMax="569" yMax="724">
      <contour>
        <pt x="93" y="0" on="1"/>
        <pt x="93" y="539" on="1"/>
        <pt x="93" y="641" on="0"/>
        <pt x="213" y="724" on="0"/>
        <pt x="418" y="724" on="0"/>
        <pt x="516" y="635" on="0"/>
        <pt x="516" y="554" on="1"/>
        <pt x="516" y="498" on="0"/>
        <pt x="480" y="440" on="0"/>
        <pt x="440" y="429" on="1"/>
        <pt x="481" y="415" on="0"/>
        <pt x="515" y="389" on="1"/>
        <pt x="569" y="347" on="0"/>
        <pt x="569" y="238" on="1"/>
        <pt x="569" y="108" on="0"/>
        <pt x="417" y="0" on="0"/>
        <pt x="262" y="0" on="1"/>
        <pt x="253" y="72" on="1"/>
        <pt x="323" y="78" on="0"/>
        <pt x="355" y="83" on="1"/>
        <pt x="385" y="88" on="0"/>
        <pt x="414" y="101" on="0"/>
        <pt x="434" y="113" on="1"/>
        <pt x="484" y="144" on="0"/>
        <pt x="484" y="237" on="1"/>
        <pt x="484" y="324" on="0"/>
        <pt x="393" y="376" on="0"/>
        <pt x="293" y="376" on="1"/>
        <pt x="293" y="445" on="1"/>
        <pt x="368" y="445" on="0"/>
        <pt x="424" y="495" on="0"/>
        <pt x="424" y="606" on="0"/>
        <pt x="369" y="650" on="0"/>
        <pt x="252" y="650" on="0"/>
        <pt x="185" y="610" on="0"/>
        <pt x="185" y="552" on="1"/>
        <pt x="185" y="0" on="1"/>
      </contour>
    </TTGlyph>
    <TTGlyph name="grave" xMin="12" yMin="588" xMax="189" yMax="774">
      <contour>
        <pt x="12" y="774" on="1"/>
        <pt x="122" y="774" on="1"/>
        <pt x="189" y="588" on="1"/>
        <pt x="127" y="588" on="1"/>
      </contour>
    </TTGlyph>
    <TTGlyph name="greater" xMin="102" yMin="0" xMax="534" yMax="559">
      <contour>
        <pt x="102" y="0" on="1"/>
        <pt x="102" y="99" on="1"/>
        <pt x="458" y="279" on="1"/>
        <pt x="102" y="457" on="1"/>
        <pt x="102" y="559" on="1"/>
        <pt x="534" y="329" on="1"/>
        <pt x="534" y="230" on="1"/>
      </contour>
    </TTGlyph>
    <TTGlyph name="greaterequal" xMin="84" yMin="-118" xMax="534" yMax="559">
      <component glyphName="underscore" x="77" y="-67" flags="0x1004"/>
      <component glyphName="greater" x="0" y="0" flags="0x1004"/>
    </TTGlyph>
    <TTGlyph name="guillemotleft" xMin="47" yMin="39" xMax="453" yMax="479">
      <contour>
        <pt x="386" y="39" on="1"/>
        <pt x="249" y="259" on="1"/>
        <pt x="382" y="479" on="1"/>
        <pt x="453" y="444" on="1"/>
        <pt x="353" y="259" on="1"/>
        <pt x="453" y="73" on="1"/>
      </contour>
      <contour>
        <pt x="184" y="39" on="1"/>
        <pt x="47" y="259" on="1"/>
        <pt x="180" y="479" on="1"/>
        <pt x="252" y="444" on="1"/>
        <pt x="151" y="259" on="1"/>
        <pt x="252" y="73" on="1"/>
      </contour>
    </TTGlyph>
    <TTGlyph name="guillemotright" xMin="62" yMin="39" xMax="468" yMax="479">
      <contour>
        <pt x="334" y="39" on="1"/>
        <pt x="263" y="73" on="1"/>
        <pt x="364" y="259" on="1"/>
        <pt x="263" y="444" on="1"/>
        <pt x="331" y="479" on="1"/>
        <pt x="468" y="259" on="1"/>
      </contour>
      <contour>
        <pt x="132" y="39" on="1"/>
        <pt x="62" y="73" on="1"/>
        <pt x="162" y="259" on="1"/>
        <pt x="62" y="444" on="1"/>
        <pt x="129" y="479" on="1"/>
        <pt x="266" y="259" on="1"/>
      </contour>
    </TTGlyph>
    <TTGlyph name="guilsinglleft" xMin="85" yMin="39" xMax="290" yMax="479">
      <contour>
        <pt x="222" y="39" on="1"/>
        <pt x="85" y="259" on="1"/>
        <pt x="218" y="479" on="1"/>
        <pt x="290" y="444" on="1"/>
        <pt x="189" y="259" on="1"/>
        <pt x="290" y="73" on="1"/>
      </contour>
    </TTGlyph>
    <TTGlyph name="guilsinglright" xMin="88" yMin="39" xMax="293" yMax="479">
      <contour>
        <pt x="160" y="39" on="1"/>
        <pt x="88" y="73" on="1"/>
        <pt x="189" y="259" on="1"/>
        <pt x="88" y="444" on="1"/>
        <pt x="156" y="479" on="1"/>
        <pt x="293" y="259" on="1"/>
      </contour>
    </TTGlyph>
    <TTGlyph name="h" xMin="91" yMin="0" xMax="513" yMax="735">
      <contour>
        <pt x="91" y="0" on="1"/>
        <pt x="91" y="735" on="1"/>
        <pt x="183" y="735" on="1"/>
        <pt x="183" y="469" on="1"/>
        <pt x="233" y="527" on="0"/>
        <pt x="427" y="527" on="0"/>
        <pt x="513" y="444" on="0"/>
        <pt x="513" y="377" on="1"/>
        <pt x="513" y="0" on="1"/>
        <pt x="421" y="0" on="1"/>
        <pt x="421" y="382" on="1"/>
        <pt x="421" y="457" on="0"/>
        <pt x="306" y="457" on="1"/>
        <pt x="248" y="457" on="0"/>
        <pt x="183" y="409" on="0"/>
        <pt x="183" y="370" on="1"/>
        <pt x="183" y="0" on="1"/>
      </contour>
    </TTGlyph>
    <TTGlyph name="hbar" xMin="14" yMin="0" xMax="513" yMax="735">
      <contour>
        <pt x="91" y="0" on="1"/>
        <pt x="91" y="610" on="1"/>
        <pt x="14" y="610" on="1"/>
        <pt x="14" y="670" on="1"/>
        <pt x="91" y="670" on="1"/>
        <pt x="91" y="735" on="1"/>
        <pt x="183" y="735" on="1"/>
        <pt x="183" y="670" on="1"/>
        <pt x="342" y="670" on="1"/>
        <pt x="342" y="610" on="1"/>
        <pt x="183" y="610" on="1"/>
        <pt x="183" y="469" on="1"/>
        <pt x="233" y="527" on="0"/>
        <pt x="427" y="527" on="0"/>
        <pt x="513" y="444" on="0"/>
        <pt x="513" y="377" on="1"/>
        <pt x="513" y="0" on="1"/>
        <pt x="421" y="0" on="1"/>
        <pt x="421" y="382" on="1"/>
        <pt x="421" y="457" on="0"/>
        <pt x="306" y="457" on="1"/>
        <pt x="248" y="457" on="0"/>
        <pt x="183" y="409" on="0"/>
        <pt x="183" y="370" on="1"/>
        <pt x="183" y="0" on="1"/>
      </contour>
    </TTGlyph>
    <TTGlyph name="hcircumflex" xMin="91" yMin="0" xMax="513" yMax="758">
      <component glyphName="h" x="0" y="0" flags="0x1004"/>
      <component glyphName="circumflex" x="210" y="0" flags="0x1004"/>
    </TTGlyph>
    <TTGlyph name="hungarumlaut" xMin="80" yMin="631" xMax="458" yMax="817">
      <contour>
        <pt x="280" y="631" on="1"/>
        <pt x="348" y="817" on="1"/>
        <pt x="458" y="817" on="1"/>
        <pt x="343" y="631" on="1"/>
      </contour>
      <contour>
        <pt x="80" y="631" on="1"/>
        <pt x="147" y="817" on="1"/>
        <pt x="257" y="817" on="1"/>
        <pt x="143" y="631" on="1"/>
      </contour>
    </TTGlyph>
    <TTGlyph name="hyphen" xMin="84" yMin="244" xMax="406" yMax="313">
      <contour>
        <pt x="84" y="244" on="1"/>
        <pt x="84" y="313" on="1"/>
        <pt x="406" y="313" on="1"/>
        <pt x="406" y="244" on="1"/>
      </contour>
    </TTGlyph>
    <TTGlyph name="i" xMin="92" yMin="0" xMax="186" yMax="750">
      <component glyphName="dotlessi" x="0" y="0" flags="0x1004"/>
      <component glyphName="dotaccent" x="19" y="0" flags="0x1004"/>
    </TTGlyph>
    <TTGlyph name="iacute" xMin="94" yMin="0" xMax="298" yMax="774">
      <component glyphName="dotlessi" x="0" y="0" flags="0x1004"/>
      <component glyphName="acute" x="21" y="0" flags="0x1004"/>
    </TTGlyph>
    <TTGlyph name="ibreve" xMin="29" yMin="0" xMax="249" yMax="735">
      <component glyphName="dotlessi" x="0" y="0" flags="0x1004"/>
      <component glyphName="breve" x="14" y="0" flags="0x1004"/>
    </TTGlyph>
    <TTGlyph name="icircumflex" xMin="4" yMin="0" xMax="284" yMax="758">
      <component glyphName="dotlessi" x="0" y="0" flags="0x1004"/>
      <component glyphName="circumflex" x="19" y="0" flags="0x1004"/>
    </TTGlyph>
    <TTGlyph name="idieresis" xMin="-29" yMin="0" xMax="317" yMax="744">
      <component glyphName="dotlessi" x="0" y="0" flags="0x1004"/>
      <component glyphName="dieresis" x="-106" y="0" flags="0x1004"/>
    </TTGlyph>
    <TTGlyph name="igrave" xMin="-10" yMin="0" xMax="186" yMax="774">
      <component glyphName="grave" x="-22" y="0" flags="0x1004"/>
      <component glyphName="dotlessi" x="0" y="0" flags="0x1004"/>
    </TTGlyph>
    <TTGlyph name="ij" xMin="92" yMin="-172" xMax="475" yMax="750">
      <component glyphName="j" x="271" y="0" flags="0x1004"/>
      <component glyphName="i" x="0" y="0" flags="0x1004"/>
    </TTGlyph>
    <TTGlyph name="imacron" xMin="15" yMin="0" xMax="273" yMax="717">
      <component glyphName="macron" x="19" y="0" flags="0x1004"/>
      <component glyphName="dotlessi" x="0" y="0" flags="0x1004"/>
    </TTGlyph>
    <TTGlyph name="infinity" xMin="31" yMin="237" xMax="774" yMax="565">
      <contour>
        <pt x="616" y="301" on="1"/>
        <pt x="652" y="301" on="0"/>
        <pt x="692" y="360" on="0"/>
        <pt x="692" y="442" on="0"/>
        <pt x="652" y="501" on="0"/>
        <pt x="580" y="501" on="0"/>
        <pt x="449" y="403" on="1"/>
        <pt x="482" y="378" on="1"/>
        <pt x="516" y="352" on="0"/>
        <pt x="600" y="301" on="0"/>
      </contour>
      <contour>
        <pt x="184" y="301" on="1"/>
        <pt x="220" y="301" on="0"/>
        <pt x="350" y="405" on="1"/>
        <pt x="316" y="429" on="1"/>
        <pt x="283" y="453" on="0"/>
        <pt x="200" y="501" on="0"/>
        <pt x="184" y="501" on="1"/>
        <pt x="148" y="501" on="0"/>
        <pt x="107" y="442" on="0"/>
        <pt x="107" y="360" on="0"/>
        <pt x="148" y="301" on="0"/>
      </contour>
      <contour>
        <pt x="399" y="359" on="1"/>
        <pt x="364" y="328" on="1"/>
        <pt x="328" y="298" on="0"/>
        <pt x="219" y="237" on="0"/>
        <pt x="180" y="237" on="1"/>
        <pt x="110" y="237" on="0"/>
        <pt x="31" y="334" on="0"/>
        <pt x="31" y="468" on="0"/>
        <pt x="110" y="565" on="0"/>
        <pt x="180" y="565" on="1"/>
        <pt x="219" y="565" on="0"/>
        <pt x="336" y="504" on="0"/>
        <pt x="384" y="468" on="0"/>
        <pt x="399" y="456" on="1"/>
        <pt x="436" y="483" on="1"/>
        <pt x="473" y="510" on="0"/>
        <pt x="586" y="565" on="0"/>
        <pt x="625" y="565" on="1"/>
        <pt x="695" y="565" on="0"/>
        <pt x="774" y="467" on="0"/>
        <pt x="774" y="334" on="0"/>
        <pt x="695" y="237" on="0"/>
        <pt x="545" y="237" on="0"/>
      </contour>
    </TTGlyph>
    <TTGlyph name="integral" xMin="69" yMin="-186" xMax="347" yMax="717">
      <contour>
        <pt x="332" y="654" on="1"/>
        <pt x="286" y="654" on="0"/>
        <pt x="254" y="614" on="0"/>
        <pt x="254" y="577" on="1"/>
        <pt x="254" y="-48" on="1"/>
        <pt x="254" y="-119" on="0"/>
        <pt x="194" y="-186" on="0"/>
        <pt x="123" y="-186" on="1"/>
        <pt x="109" y="-186" on="0"/>
        <pt x="69" y="-182" on="1"/>
        <pt x="69" y="-122" on="1"/>
        <pt x="77" y="-123" on="0"/>
        <pt x="131" y="-123" on="0"/>
        <pt x="163" y="-93" on="0"/>
        <pt x="163" y="-62" on="1"/>
        <pt x="163" y="566" on="1"/>
        <pt x="163" y="647" on="0"/>
        <pt x="221" y="717" on="0"/>
        <pt x="296" y="717" on="1"/>
        <pt x="318" y="717" on="0"/>
        <pt x="347" y="714" on="1"/>
        <pt x="347" y="653" on="1"/>
      </contour>
    </TTGlyph>
    <TTGlyph name="iogonek" xMin="47" yMin="-232" xMax="190" yMax="750">
      <component glyphName="ogonek" x="-9" y="0" flags="0x1004"/>
      <component glyphName="dotlessi" x="0" y="0" flags="0x1004"/>
      <component glyphName="dotaccent" x="19" y="0" flags="0x1004"/>
    </TTGlyph>
    <TTGlyph name="itilde" xMin="-1" yMin="0" xMax="289" yMax="706">
      <component glyphName="tilde" x="19" y="0" flags="0x1004"/>
      <component glyphName="dotlessi" x="0" y="0" flags="0x1004"/>
    </TTGlyph>
    <TTGlyph name="j" xMin="4" yMin="-172" xMax="204" yMax="750">
      <component glyphName="uni0237" x="0" y="0" flags="0x1004"/>
      <component glyphName="dotaccent" x="37" y="0" flags="0x1004"/>
    </TTGlyph>
    <TTGlyph name="jcircumflex" xMin="4" yMin="-172" xMax="302" yMax="758">
      <component glyphName="uni0237" x="0" y="0" flags="0x1004"/>
      <component glyphName="circumflex" x="37" y="0" flags="0x1004"/>
    </TTGlyph>
    <TTGlyph name="k" xMin="91" yMin="0" xMax="552" yMax="735">
      <contour>
        <pt x="91" y="0" on="1"/>
        <pt x="91" y="735" on="1"/>
        <pt x="183" y="735" on="1"/>
        <pt x="183" y="256" on="1"/>
        <pt x="430" y="518" on="1"/>
        <pt x="531" y="518" on="1"/>
        <pt x="320" y="290" on="1"/>
        <pt x="552" y="0" on="1"/>
        <pt x="446" y="0" on="1"/>
        <pt x="260" y="240" on="1"/>
        <pt x="183" y="163" on="1"/>
        <pt x="183" y="0" on="1"/>
      </contour>
    </TTGlyph>
    <TTGlyph name="kgreenlandic" xMin="91" yMin="0" xMax="548" yMax="518">
      <contour>
        <pt x="91" y="0" on="1"/>
        <pt x="91" y="518" on="1"/>
        <pt x="183" y="518" on="1"/>
        <pt x="183" y="249" on="1"/>
        <pt x="225" y="294" on="0"/>
        <pt x="384" y="474" on="0"/>
        <pt x="425" y="518" on="1"/>
        <pt x="527" y="518" on="1"/>
        <pt x="325" y="285" on="1"/>
        <pt x="548" y="0" on="1"/>
        <pt x="442" y="0" on="1"/>
        <pt x="254" y="243" on="1"/>
        <pt x="183" y="173" on="1"/>
        <pt x="183" y="0" on="1"/>
      </contour>
    </TTGlyph>
    <TTGlyph name="l" xMin="93" yMin="-4" xMax="296" yMax="735">
      <contour>
        <pt x="259" y="-4" on="1"/>
        <pt x="168" y="-4" on="0"/>
        <pt x="93" y="67" on="0"/>
        <pt x="93" y="175" on="1"/>
        <pt x="93" y="735" on="1"/>
        <pt x="185" y="735" on="1"/>
        <pt x="185" y="174" on="1"/>
        <pt x="185" y="111" on="0"/>
        <pt x="222" y="73" on="0"/>
        <pt x="280" y="73" on="1"/>
        <pt x="296" y="73" on="1"/>
        <pt x="285" y="-4" on="1"/>
      </contour>
    </TTGlyph>
    <TTGlyph name="lacute" xMin="93" yMin="-4" xMax="300" yMax="992">
      <component glyphName="l" x="0" y="0" flags="0x1004"/>
      <component glyphName="acute" x="23" y="218" flags="0x1004"/>
    </TTGlyph>
    <TTGlyph name="lcaron" xMin="93" yMin="-4" xMax="389" yMax="875">
      <component glyphName="l" x="0" y="0" flags="0x1004"/>
      <component glyphName="caron.alt" x="-38" y="0" flags="0x1004"/>
    </TTGlyph>
    <TTGlyph name="ldot" xMin="93" yMin="-4" xMax="391" yMax="735">
      <component glyphName="periodcentered" x="81" y="0" flags="0x1004"/>
      <component glyphName="l" x="0" y="0" flags="0x1004"/>
    </TTGlyph>
    <TTGlyph name="less" xMin="76" yMin="0" xMax="509" yMax="559">
      <contour>
        <pt x="509" y="0" on="1"/>
        <pt x="76" y="230" on="1"/>
        <pt x="76" y="328" on="1"/>
        <pt x="509" y="559" on="1"/>
        <pt x="509" y="459" on="1"/>
        <pt x="152" y="280" on="1"/>
        <pt x="509" y="102" on="1"/>
      </contour>
    </TTGlyph>
    <TTGlyph name="lessequal" xMin="69" yMin="-123" xMax="509" yMax="559">
      <component glyphName="underscore" x="62" y="-72" flags="0x1004"/>
      <component glyphName="less" x="0" y="0" flags="0x1004"/>
    </TTGlyph>
    <TTGlyph name="logicalnot" xMin="48" yMin="163" xMax="352" yMax="338">
      <contour>
        <pt x="288" y="163" on="1"/>
        <pt x="288" y="271" on="1"/>
        <pt x="48" y="271" on="1"/>
        <pt x="48" y="338" on="1"/>
        <pt x="352" y="338" on="1"/>
        <pt x="352" y="163" on="1"/>
      </contour>
    </TTGlyph>
    <TTGlyph name="lozenge" xMin="57" yMin="0" xMax="482" yMax="706">
      <contour>
        <pt x="277" y="78" on="1"/>
        <pt x="397" y="354" on="1"/>
        <pt x="277" y="623" on="1"/>
        <pt x="144" y="354" on="1"/>
      </contour>
      <contour>
        <pt x="234" y="0" on="1"/>
        <pt x="57" y="354" on="1"/>
        <pt x="234" y="706" on="1"/>
        <pt x="317" y="706" on="1"/>
        <pt x="482" y="354" on="1"/>
        <pt x="317" y="0" on="1"/>
      </contour>
    </TTGlyph>
    <TTGlyph name="lslash" xMin="25" yMin="-4" xMax="296" yMax="735">
      <contour>
        <pt x="259" y="-4" on="1"/>
        <pt x="168" y="-4" on="0"/>
        <pt x="93" y="67" on="0"/>
        <pt x="93" y="175" on="1"/>
        <pt x="93" y="334" on="1"/>
        <pt x="25" y="301" on="1"/>
        <pt x="25" y="361" on="1"/>
        <pt x="93" y="394" on="1"/>
        <pt x="93" y="735" on="1"/>
        <pt x="185" y="735" on="1"/>
        <pt x="185" y="440" on="1"/>
        <pt x="295" y="494" on="1"/>
        <pt x="295" y="433" on="1"/>
        <pt x="185" y="379" on="1"/>
        <pt x="185" y="174" on="1"/>
        <pt x="185" y="111" on="0"/>
        <pt x="222" y="73" on="0"/>
        <pt x="280" y="73" on="1"/>
        <pt x="296" y="73" on="1"/>
        <pt x="285" y="-4" on="1"/>
      </contour>
    </TTGlyph>
    <TTGlyph name="m" xMin="91" yMin="0" xMax="822" yMax="527">
      <contour>
        <pt x="91" y="0" on="1"/>
        <pt x="91" y="518" on="1"/>
        <pt x="183" y="518" on="1"/>
        <pt x="183" y="467" on="1"/>
        <pt x="234" y="527" on="0"/>
        <pt x="443" y="527" on="0"/>
        <pt x="483" y="459" on="1"/>
        <pt x="553" y="527" on="0"/>
        <pt x="741" y="527" on="0"/>
        <pt x="822" y="444" on="0"/>
        <pt x="822" y="376" on="1"/>
        <pt x="822" y="0" on="1"/>
        <pt x="730" y="0" on="1"/>
        <pt x="730" y="381" on="1"/>
        <pt x="730" y="457" on="0"/>
        <pt x="629" y="457" on="1"/>
        <pt x="565" y="457" on="0"/>
        <pt x="504" y="409" on="0"/>
        <pt x="504" y="369" on="1"/>
        <pt x="504" y="0" on="1"/>
        <pt x="412" y="0" on="1"/>
        <pt x="412" y="381" on="1"/>
        <pt x="412" y="457" on="0"/>
        <pt x="300" y="457" on="1"/>
        <pt x="244" y="457" on="0"/>
        <pt x="183" y="409" on="0"/>
        <pt x="183" y="369" on="1"/>
        <pt x="183" y="0" on="1"/>
      </contour>
    </TTGlyph>
    <TTGlyph name="macron" xMin="-4" yMin="645" xMax="254" yMax="717">
      <contour>
        <pt x="-4" y="645" on="1"/>
        <pt x="-4" y="717" on="1"/>
        <pt x="254" y="717" on="1"/>
        <pt x="254" y="645" on="1"/>
      </contour>
    </TTGlyph>
    <TTGlyph name="minus" xMin="69" yMin="214" xMax="375" yMax="297">
      <contour>
        <pt x="69" y="214" on="1"/>
        <pt x="69" y="297" on="1"/>
        <pt x="375" y="297" on="1"/>
        <pt x="375" y="214" on="1"/>
      </contour>
    </TTGlyph>
    <TTGlyph name="multiply" xMin="63" yMin="105" xMax="412" yMax="458">
      <contour>
        <pt x="117" y="105" on="1"/>
        <pt x="63" y="168" on="1"/>
        <pt x="179" y="281" on="1"/>
        <pt x="63" y="394" on="1"/>
        <pt x="117" y="458" on="1"/>
        <pt x="238" y="339" on="1"/>
        <pt x="359" y="458" on="1"/>
        <pt x="412" y="394" on="1"/>
        <pt x="297" y="281" on="1"/>
        <pt x="412" y="168" on="1"/>
        <pt x="359" y="105" on="1"/>
        <pt x="238" y="224" on="1"/>
      </contour>
    </TTGlyph>
    <TTGlyph name="n" xMin="91" yMin="0" xMax="513" yMax="527">
      <contour>
        <pt x="91" y="0" on="1"/>
        <pt x="91" y="518" on="1"/>
        <pt x="183" y="518" on="1"/>
        <pt x="183" y="467" on="1"/>
        <pt x="234" y="527" on="0"/>
        <pt x="426" y="527" on="0"/>
        <pt x="513" y="443" on="0"/>
        <pt x="513" y="376" on="1"/>
        <pt x="513" y="0" on="1"/>
        <pt x="421" y="0" on="1"/>
        <pt x="421" y="381" on="1"/>
        <pt x="421" y="457" on="0"/>
        <pt x="304" y="457" on="1"/>
        <pt x="247" y="457" on="0"/>
        <pt x="183" y="409" on="0"/>
        <pt x="183" y="369" on="1"/>
        <pt x="183" y="0" on="1"/>
      </contour>
    </TTGlyph>
    <TTGlyph name="nacute" xMin="91" yMin="0" xMax="513" yMax="774">
      <component glyphName="n" x="0" y="0" flags="0x1004"/>
      <component glyphName="acute" x="210" y="0" flags="0x1004"/>
    </TTGlyph>
    <TTGlyph name="napostrophe" xMin="91" yMin="0" xMax="513" yMax="905">
      <component glyphName="uni02BC" x="284" y="0" flags="0x1004"/>
      <component glyphName="n" x="0" y="0" flags="0x1004"/>
    </TTGlyph>
    <TTGlyph name="ncaron" xMin="91" yMin="0" xMax="513" yMax="758">
      <component glyphName="n" x="0" y="0" flags="0x1004"/>
      <component glyphName="caron" x="209" y="0" flags="0x1004"/>
    </TTGlyph>
    <TTGlyph name="nine" xMin="74" yMin="0" xMax="540" yMax="717">
      <contour>
        <pt x="310" y="357" on="1"/>
        <pt x="380" y="357" on="0"/>
        <pt x="449" y="421" on="0"/>
        <pt x="449" y="578" on="0"/>
        <pt x="381" y="638" on="0"/>
        <pt x="238" y="638" on="0"/>
        <pt x="165" y="578" on="0"/>
        <pt x="165" y="416" on="0"/>
        <pt x="237" y="357" on="0"/>
      </contour>
      <contour>
        <pt x="471" y="268" on="1"/>
        <pt x="318" y="0" on="1"/>
        <pt x="220" y="0" on="1"/>
        <pt x="395" y="295" on="1"/>
        <pt x="353" y="277" on="0"/>
        <pt x="308" y="277" on="1"/>
        <pt x="74" y="277" on="0"/>
        <pt x="74" y="500" on="1"/>
        <pt x="74" y="611" on="0"/>
        <pt x="203" y="717" on="0"/>
        <pt x="418" y="717" on="0"/>
        <pt x="540" y="610" on="0"/>
        <pt x="540" y="392" on="0"/>
      </contour>
    </TTGlyph>
    <TTGlyph name="notequal" xMin="-9" yMin="100" xMax="383" yMax="579">
      <contour>
        <pt x="62" y="100" on="1"/>
        <pt x="249" y="579" on="1"/>
        <pt x="318" y="579" on="1"/>
        <pt x="134" y="100" on="1"/>
      </contour>
      <contour>
        <pt x="-9" y="393" on="1"/>
        <pt x="383" y="393" on="1"/>
        <pt x="383" y="465" on="1"/>
        <pt x="-9" y="465" on="1"/>
      </contour>
      <contour>
        <pt x="-9" y="228" on="1"/>
        <pt x="383" y="228" on="1"/>
        <pt x="383" y="300" on="1"/>
        <pt x="-9" y="300" on="1"/>
      </contour>
    </TTGlyph>
    <TTGlyph name="ntilde" xMin="91" yMin="0" xMax="513" yMax="706">
      <component glyphName="tilde" x="209" y="0" flags="0x1004"/>
      <component glyphName="n" x="0" y="0" flags="0x1004"/>
    </TTGlyph>
    <TTGlyph name="numbersign" xMin="42" yMin="0" xMax="585" yMax="706">
      <contour>
        <pt x="226" y="290" on="1"/>
        <pt x="372" y="290" on="1"/>
        <pt x="400" y="444" on="1"/>
        <pt x="253" y="444" on="1"/>
      </contour>
      <contour>
        <pt x="573" y="232" on="1"/>
        <pt x="447" y="232" on="1"/>
        <pt x="406" y="0" on="1"/>
        <pt x="319" y="0" on="1"/>
        <pt x="361" y="232" on="1"/>
        <pt x="216" y="232" on="1"/>
        <pt x="175" y="0" on="1"/>
        <pt x="88" y="0" on="1"/>
        <pt x="130" y="232" on="1"/>
        <pt x="42" y="232" on="1"/>
        <pt x="42" y="290" on="1"/>
        <pt x="141" y="290" on="1"/>
        <pt x="169" y="444" on="1"/>
        <pt x="54" y="444" on="1"/>
        <pt x="54" y="502" on="1"/>
        <pt x="180" y="502" on="1"/>
        <pt x="217" y="706" on="1"/>
        <pt x="300" y="706" on="1"/>
        <pt x="264" y="502" on="1"/>
        <pt x="411" y="502" on="1"/>
        <pt x="448" y="706" on="1"/>
        <pt x="531" y="706" on="1"/>
        <pt x="495" y="502" on="1"/>
        <pt x="585" y="502" on="1"/>
        <pt x="585" y="444" on="1"/>
        <pt x="484" y="444" on="1"/>
        <pt x="457" y="290" on="1"/>
        <pt x="573" y="290" on="1"/>
      </contour>
    </TTGlyph>
    <TTGlyph name="o" xMin="72" yMin="-11" xMax="501" yMax="527">
      <contour>
        <pt x="287" y="-11" on="1"/>
        <pt x="175" y="-11" on="0"/>
        <pt x="72" y="77" on="0"/>
        <pt x="72" y="154" on="1"/>
        <pt x="72" y="362" on="1"/>
        <pt x="72" y="439" on="0"/>
        <pt x="175" y="527" on="0"/>
        <pt x="397" y="527" on="0"/>
        <pt x="501" y="438" on="0"/>
        <pt x="501" y="362" on="1"/>
        <pt x="501" y="154" on="1"/>
        <pt x="501" y="78" on="0"/>
        <pt x="397" y="-11" on="0"/>
      </contour>
      <contour>
        <pt x="287" y="60" on="1"/>
        <pt x="409" y="60" on="0"/>
        <pt x="409" y="146" on="1"/>
        <pt x="409" y="370" on="1"/>
        <pt x="409" y="457" on="0"/>
        <pt x="164" y="457" on="0"/>
        <pt x="164" y="370" on="1"/>
        <pt x="164" y="146" on="1"/>
        <pt x="164" y="60" on="0"/>
      </contour>
    </TTGlyph>
    <TTGlyph name="oacute" xMin="72" yMin="-11" xMax="501" yMax="774">
      <component glyphName="o" x="0" y="0" flags="0x1004"/>
      <component glyphName="acute" x="162" y="0" flags="0x1004"/>
    </TTGlyph>
    <TTGlyph name="obreve" xMin="72" yMin="-11" xMax="501" yMax="735">
      <component glyphName="o" x="0" y="0" flags="0x1004"/>
      <component glyphName="breve" x="155" y="0" flags="0x1004"/>
    </TTGlyph>
    <TTGlyph name="ocircumflex" xMin="72" yMin="-11" xMax="501" yMax="758">
      <component glyphName="o" x="0" y="0" flags="0x1004"/>
      <component glyphName="circumflex" x="161" y="0" flags="0x1004"/>
    </TTGlyph>
    <TTGlyph name="odieresis" xMin="72" yMin="-11" xMax="501" yMax="744">
      <component glyphName="o" x="0" y="0" flags="0x1004"/>
      <component glyphName="dieresis" x="35" y="0" flags="0x1004"/>
    </TTGlyph>
    <TTGlyph name="oe" xMin="73" yMin="-10" xMax="783" yMax="527">
      <contour>
        <pt x="478" y="309" on="1"/>
        <pt x="694" y="309" on="1"/>
        <pt x="694" y="380" on="1"/>
        <pt x="694" y="424" on="0"/>
        <pt x="641" y="458" on="0"/>
        <pt x="529" y="458" on="0"/>
        <pt x="478" y="418" on="0"/>
        <pt x="478" y="371" on="1"/>
      </contour>
      <contour>
        <pt x="278" y="59" on="1"/>
        <pt x="386" y="59" on="0"/>
        <pt x="386" y="147" on="1"/>
        <pt x="386" y="373" on="1"/>
        <pt x="386" y="418" on="0"/>
        <pt x="333" y="458" on="0"/>
        <pt x="278" y="458" on="1"/>
        <pt x="165" y="458" on="0"/>
        <pt x="165" y="373" on="1"/>
        <pt x="165" y="147" on="1"/>
        <pt x="165" y="59" on="0"/>
      </contour>
      <contour>
        <pt x="278" y="-10" on="1"/>
        <pt x="73" y="-10" on="0"/>
        <pt x="73" y="155" on="1"/>
        <pt x="73" y="365" on="1"/>
        <pt x="73" y="439" on="0"/>
        <pt x="183" y="527" on="0"/>
        <pt x="383" y="527" on="0"/>
        <pt x="431" y="464" on="1"/>
        <pt x="476" y="527" on="0"/>
        <pt x="684" y="527" on="0"/>
        <pt x="783" y="445" on="0"/>
        <pt x="783" y="370" on="1"/>
        <pt x="783" y="247" on="1"/>
        <pt x="478" y="247" on="1"/>
        <pt x="478" y="160" on="1"/>
        <pt x="478" y="59" on="0"/>
        <pt x="585" y="59" on="1"/>
        <pt x="648" y="59" on="0"/>
        <pt x="696" y="98" on="0"/>
        <pt x="700" y="162" on="1"/>
        <pt x="783" y="162" on="1"/>
        <pt x="775" y="66" on="0"/>
        <pt x="690" y="-10" on="0"/>
        <pt x="483" y="-10" on="0"/>
        <pt x="431" y="60" on="1"/>
        <pt x="382" y="-10" on="0"/>
      </contour>
    </TTGlyph>
    <TTGlyph name="ogonek" xMin="56" yMin="-232" xMax="199" yMax="5">
      <contour>
        <pt x="199" y="-232" on="1"/>
        <pt x="134" y="-232" on="0"/>
        <pt x="56" y="-180" on="0"/>
        <pt x="56" y="-137" on="1"/>
        <pt x="56" y="-71" on="0"/>
        <pt x="145" y="5" on="1"/>
        <pt x="175" y="5" on="1"/>
        <pt x="150" y="-19" on="0"/>
        <pt x="116" y="-89" on="0"/>
        <pt x="116" y="-120" on="1"/>
        <pt x="116" y="-185" on="0"/>
        <pt x="199" y="-185" on="1"/>
      </contour>
    </TTGlyph>
    <TTGlyph name="ograve" xMin="72" yMin="-11" xMax="501" yMax="774">
      <component glyphName="o" x="0" y="0" flags="0x1004"/>
      <component glyphName="grave" x="120" y="0" flags="0x1004"/>
    </TTGlyph>
    <TTGlyph name="ohungarumlaut" xMin="72" yMin="-11" xMax="538" yMax="817">
      <component glyphName="o" x="0" y="0" flags="0x1004"/>
      <component glyphName="hungarumlaut" x="80" y="0" flags="0x1004"/>
    </TTGlyph>
    <TTGlyph name="omacron" xMin="72" yMin="-11" xMax="501" yMax="717">
      <component glyphName="o" x="0" y="0" flags="0x1004"/>
      <component glyphName="macron" x="160" y="0" flags="0x1004"/>
    </TTGlyph>
    <TTGlyph name="one" xMin="101" yMin="0" xMax="567" yMax="706">
      <contour>
        <pt x="101" y="0" on="1"/>
        <pt x="101" y="76" on="1"/>
        <pt x="296" y="76" on="1"/>
        <pt x="296" y="624" on="1"/>
        <pt x="114" y="604" on="1"/>
        <pt x="105" y="682" on="1"/>
        <pt x="314" y="706" on="1"/>
        <pt x="395" y="706" on="1"/>
        <pt x="395" y="76" on="1"/>
        <pt x="567" y="76" on="1"/>
        <pt x="567" y="0" on="1"/>
      </contour>
    </TTGlyph>
    <TTGlyph name="onehalf" xMin="80" yMin="0" xMax="919" yMax="735">
      <contour>
        <pt x="335" y="0" on="1"/>
        <pt x="669" y="706" on="1"/>
        <pt x="731" y="706" on="1"/>
        <pt x="400" y="0" on="1"/>
      </contour>
      <contour>
        <pt x="80" y="319" on="1"/>
        <pt x="80" y="369" on="1"/>
        <pt x="214" y="369" on="1"/>
        <pt x="214" y="681" on="1"/>
        <pt x="89" y="668" on="1"/>
        <pt x="83" y="719" on="1"/>
        <pt x="226" y="735" on="1"/>
        <pt x="278" y="735" on="1"/>
        <pt x="278" y="369" on="1"/>
        <pt x="391" y="369" on="1"/>
        <pt x="391" y="319" on="1"/>
      </contour>
      <contour>
        <pt x="919" y="1" on="1"/>
        <pt x="669" y="1" on="1"/>
        <pt x="664" y="46" on="1"/>
        <pt x="802" y="202" on="1"/>
        <pt x="837" y="239" on="0"/>
        <pt x="860" y="277" on="0"/>
        <pt x="860" y="305" on="1"/>
        <pt x="860" y="374" on="0"/>
        <pt x="789" y="374" on="1"/>
        <pt x="742" y="374" on="0"/>
        <pt x="708" y="343" on="0"/>
        <pt x="708" y="295" on="1"/>
        <pt x="650" y="295" on="1"/>
        <pt x="650" y="423" on="0"/>
        <pt x="788" y="423" on="1"/>
        <pt x="851" y="423" on="0"/>
        <pt x="917" y="357" on="0"/>
        <pt x="917" y="305" on="1"/>
        <pt x="917" y="289" on="0"/>
        <pt x="911" y="264" on="1"/>
        <pt x="909" y="255" on="0"/>
        <pt x="898" y="235" on="0"/>
        <pt x="891" y="223" on="0"/>
        <pt x="875" y="203" on="0"/>
        <pt x="867" y="194" on="0"/>
        <pt x="846" y="171" on="0"/>
        <pt x="842" y="166" on="1"/>
        <pt x="738" y="49" on="1"/>
        <pt x="919" y="49" on="1"/>
      </contour>
    </TTGlyph>
    <TTGlyph name="onequarter" xMin="80" yMin="0" xMax="934" yMax="735">
      <contour>
        <pt x="335" y="0" on="1"/>
        <pt x="669" y="706" on="1"/>
        <pt x="731" y="706" on="1"/>
        <pt x="400" y="0" on="1"/>
      </contour>
      <contour>
        <pt x="80" y="319" on="1"/>
        <pt x="80" y="369" on="1"/>
        <pt x="214" y="369" on="1"/>
        <pt x="214" y="681" on="1"/>
        <pt x="89" y="668" on="1"/>
        <pt x="83" y="719" on="1"/>
        <pt x="226" y="735" on="1"/>
        <pt x="278" y="735" on="1"/>
        <pt x="278" y="369" on="1"/>
        <pt x="391" y="369" on="1"/>
        <pt x="391" y="319" on="1"/>
      </contour>
      <contour>
        <pt x="808" y="0" on="1"/>
        <pt x="808" y="101" on="1"/>
        <pt x="596" y="101" on="1"/>
        <pt x="596" y="146" on="1"/>
        <pt x="771" y="436" on="1"/>
        <pt x="840" y="436" on="1"/>
        <pt x="670" y="146" on="1"/>
        <pt x="808" y="146" on="1"/>
        <pt x="808" y="260" on="1"/>
        <pt x="863" y="260" on="1"/>
        <pt x="863" y="146" on="1"/>
        <pt x="934" y="146" on="1"/>
        <pt x="934" y="101" on="1"/>
        <pt x="863" y="101" on="1"/>
        <pt x="863" y="0" on="1"/>
      </contour>
    </TTGlyph>
    <TTGlyph name="ordfeminine" xMin="56" yMin="-10" xMax="427" yMax="454">
      <component glyphName="a" x="0" y="0" scalex="0.81" scaley="0.86" flags="0x1004"/>
    </TTGlyph>
    <TTGlyph name="ordmasculine" xMin="58" yMin="-10" xMax="406" yMax="454">
      <component glyphName="o" x="0" y="0" scalex="0.81" scaley="0.86" flags="0x1004"/>
    </TTGlyph>
    <TTGlyph name="oslash" xMin="72" yMin="-106" xMax="501" yMax="615">
      <contour>
        <pt x="164" y="146" on="1"/>
        <pt x="164" y="99" on="0"/>
        <pt x="200" y="78" on="1"/>
        <pt x="340" y="452" on="1"/>
        <pt x="317" y="457" on="0"/>
        <pt x="287" y="457" on="1"/>
        <pt x="164" y="457" on="0"/>
        <pt x="164" y="370" on="1"/>
      </contour>
      <contour>
        <pt x="382" y="432" on="1"/>
        <pt x="382" y="432" on="0"/>
        <pt x="245" y="63" on="1"/>
        <pt x="264" y="60" on="0"/>
        <pt x="287" y="60" on="1"/>
        <pt x="409" y="60" on="0"/>
        <pt x="409" y="146" on="1"/>
        <pt x="409" y="370" on="1"/>
        <pt x="409" y="410" on="0"/>
      </contour>
      <contour>
        <pt x="501" y="362" on="1"/>
        <pt x="501" y="154" on="1"/>
        <pt x="501" y="78" on="0"/>
        <pt x="397" y="-11" on="0"/>
        <pt x="287" y="-11" on="1"/>
        <pt x="250" y="-11" on="0"/>
        <pt x="219" y="-6" on="1"/>
        <pt x="182" y="-106" on="1"/>
        <pt x="137" y="-91" on="1"/>
        <pt x="173" y="6" on="1"/>
        <pt x="72" y="43" on="0"/>
        <pt x="72" y="154" on="1"/>
        <pt x="72" y="362" on="1"/>
        <pt x="72" y="439" on="0"/>
        <pt x="175" y="527" on="0"/>
        <pt x="287" y="527" on="1"/>
        <pt x="330" y="527" on="0"/>
        <pt x="365" y="520" on="1"/>
        <pt x="401" y="615" on="1"/>
        <pt x="445" y="600" on="1"/>
        <pt x="410" y="506" on="1"/>
        <pt x="501" y="467" on="0"/>
      </contour>
    </TTGlyph>
    <TTGlyph name="oslashacute" xMin="72" yMin="-106" xMax="501" yMax="774">
      <component glyphName="oslash" x="0" y="0" flags="0x1004"/>
      <component glyphName="acute" x="163" y="0" flags="0x1004"/>
    </TTGlyph>
    <TTGlyph name="otilde" xMin="72" yMin="-11" xMax="501" yMax="706">
      <component glyphName="tilde" x="161" y="0" flags="0x1004"/>
      <component glyphName="o" x="0" y="0" flags="0x1004"/>
    </TTGlyph>
    <TTGlyph name="p" xMin="91" yMin="-199" xMax="513" yMax="527">
      <contour>
        <pt x="299" y="60" on="1"/>
        <pt x="354" y="60" on="0"/>
        <pt x="421" y="112" on="0"/>
        <pt x="421" y="158" on="1"/>
        <pt x="421" y="363" on="1"/>
        <pt x="421" y="408" on="0"/>
        <pt x="354" y="457" on="0"/>
        <pt x="260" y="457" on="0"/>
        <pt x="193" y="418" on="0"/>
        <pt x="183" y="402" on="1"/>
        <pt x="183" y="87" on="1"/>
        <pt x="231" y="60" on="0"/>
      </contour>
      <contour>
        <pt x="91" y="-199" on="1"/>
        <pt x="91" y="518" on="1"/>
        <pt x="163" y="518" on="1"/>
        <pt x="174" y="479" on="1"/>
        <pt x="196" y="499" on="0"/>
        <pt x="274" y="527" on="0"/>
        <pt x="316" y="527" on="1"/>
        <pt x="412" y="527" on="0"/>
        <pt x="513" y="434" on="0"/>
        <pt x="513" y="356" on="1"/>
        <pt x="513" y="356" on="0"/>
        <pt x="513" y="168" on="1"/>
        <pt x="513" y="88" on="0"/>
        <pt x="404" y="-11" on="0"/>
        <pt x="305" y="-11" on="1"/>
        <pt x="237" y="-11" on="0"/>
        <pt x="183" y="17" on="1"/>
        <pt x="183" y="-199" on="1"/>
      </contour>
    </TTGlyph>
    <TTGlyph name="paragraph" xMin="82" yMin="-103" xMax="469" yMax="706">
      <contour>
        <pt x="262" y="-103" on="1"/>
        <pt x="262" y="425" on="1"/>
        <pt x="193" y="427" on="0"/>
        <pt x="82" y="502" on="0"/>
        <pt x="82" y="637" on="0"/>
        <pt x="198" y="706" on="0"/>
        <pt x="279" y="706" on="1"/>
        <pt x="469" y="706" on="1"/>
        <pt x="469" y="-103" on="1"/>
        <pt x="403" y="-103" on="1"/>
        <pt x="403" y="653" on="1"/>
        <pt x="335" y="653" on="1"/>
        <pt x="335" y="-103" on="1"/>
      </contour>
    </TTGlyph>
    <TTGlyph name="parenleft" xMin="84" yMin="-73" xMax="314" yMax="765">
      <contour>
        <pt x="314" y="-73" on="1"/>
        <pt x="246" y="-73" on="0"/>
        <pt x="192" y="-54" on="1"/>
        <pt x="170" y="-46" on="0"/>
        <pt x="135" y="-15" on="0"/>
        <pt x="112" y="11" on="0"/>
        <pt x="97" y="58" on="0"/>
        <pt x="84" y="112" on="0"/>
        <pt x="84" y="215" on="1"/>
        <pt x="84" y="468" on="1"/>
        <pt x="84" y="520" on="0"/>
        <pt x="87" y="565" on="1"/>
        <pt x="89" y="595" on="0"/>
        <pt x="108" y="672" on="0"/>
        <pt x="124" y="690" on="1"/>
        <pt x="160" y="733" on="0"/>
        <pt x="192" y="745" on="1"/>
        <pt x="249" y="765" on="0"/>
        <pt x="314" y="765" on="1"/>
        <pt x="314" y="691" on="1"/>
        <pt x="258" y="691" on="0"/>
        <pt x="235" y="676" on="1"/>
        <pt x="221" y="667" on="0"/>
        <pt x="201" y="652" on="0"/>
        <pt x="189" y="618" on="0"/>
        <pt x="178" y="582" on="0"/>
        <pt x="178" y="486" on="1"/>
        <pt x="178" y="200" on="1"/>
        <pt x="178" y="144" on="0"/>
        <pt x="182" y="106" on="1"/>
        <pt x="184" y="80" on="0"/>
        <pt x="194" y="56" on="0"/>
        <pt x="204" y="40" on="1"/>
        <pt x="227" y="0" on="0"/>
        <pt x="314" y="0" on="1"/>
      </contour>
    </TTGlyph>
    <TTGlyph name="parenright" xMin="61" yMin="-73" xMax="291" yMax="765">
      <contour>
        <pt x="61" y="-73" on="1"/>
        <pt x="61" y="-73" on="0"/>
        <pt x="61" y="0" on="1"/>
        <pt x="112" y="0" on="0"/>
        <pt x="151" y="20" on="1"/>
        <pt x="169" y="30" on="0"/>
        <pt x="186" y="72" on="1"/>
        <pt x="197" y="99" on="0"/>
        <pt x="197" y="206" on="1"/>
        <pt x="197" y="492" on="1"/>
        <pt x="197" y="548" on="0"/>
        <pt x="194" y="586" on="1"/>
        <pt x="191" y="612" on="0"/>
        <pt x="181" y="636" on="0"/>
        <pt x="172" y="652" on="1"/>
        <pt x="148" y="692" on="0"/>
        <pt x="61" y="692" on="1"/>
        <pt x="61" y="765" on="1"/>
        <pt x="129" y="765" on="0"/>
        <pt x="182" y="746" on="1"/>
        <pt x="205" y="738" on="0"/>
        <pt x="240" y="707" on="0"/>
        <pt x="263" y="681" on="0"/>
        <pt x="278" y="634" on="0"/>
        <pt x="291" y="580" on="0"/>
        <pt x="291" y="477" on="1"/>
        <pt x="291" y="224" on="1"/>
        <pt x="291" y="172" on="0"/>
        <pt x="288" y="127" on="1"/>
        <pt x="286" y="97" on="0"/>
        <pt x="267" y="20" on="0"/>
        <pt x="252" y="2" on="1"/>
        <pt x="215" y="-41" on="0"/>
        <pt x="182" y="-53" on="1"/>
        <pt x="126" y="-73" on="0"/>
      </contour>
    </TTGlyph>
    <TTGlyph name="partialdiff" xMin="74" yMin="-10" xMax="516" yMax="736">
      <contour>
        <pt x="236" y="48" on="1"/>
        <pt x="278" y="48" on="0"/>
        <pt x="347" y="118" on="0"/>
        <pt x="368" y="174" on="1"/>
        <pt x="410" y="285" on="0"/>
        <pt x="418" y="404" on="1"/>
        <pt x="363" y="400" on="0"/>
        <pt x="270" y="343" on="0"/>
        <pt x="213" y="260" on="0"/>
        <pt x="182" y="170" on="0"/>
        <pt x="182" y="93" on="0"/>
        <pt x="210" y="48" on="0"/>
      </contour>
      <contour>
        <pt x="229" y="-10" on="1"/>
        <pt x="154" y="-10" on="0"/>
        <pt x="74" y="77" on="0"/>
        <pt x="74" y="195" on="0"/>
        <pt x="121" y="302" on="0"/>
        <pt x="206" y="394" on="0"/>
        <pt x="341" y="454" on="0"/>
        <pt x="421" y="455" on="1"/>
        <pt x="421" y="473" on="1"/>
        <pt x="421" y="579" on="0"/>
        <pt x="320" y="687" on="0"/>
        <pt x="242" y="687" on="1"/>
        <pt x="187" y="687" on="0"/>
        <pt x="132" y="661" on="1"/>
        <pt x="120" y="691" on="1"/>
        <pt x="204" y="736" on="0"/>
        <pt x="283" y="736" on="1"/>
        <pt x="384" y="736" on="0"/>
        <pt x="516" y="589" on="0"/>
        <pt x="516" y="446" on="1"/>
        <pt x="516" y="250" on="0"/>
        <pt x="356" y="-10" on="0"/>
      </contour>
    </TTGlyph>
    <TTGlyph name="percent" xMin="84" yMin="-9" xMax="916" yMax="723">
      <contour>
        <pt x="326" y="0" on="1"/>
        <pt x="591" y="706" on="1"/>
        <pt x="664" y="706" on="1"/>
        <pt x="401" y="0" on="1"/>
      </contour>
      <contour>
        <pt x="769" y="-9" on="1"/>
        <pt x="689" y="-9" on="0"/>
        <pt x="623" y="86" on="0"/>
        <pt x="623" y="176" on="1"/>
        <pt x="623" y="202" on="1"/>
        <pt x="623" y="293" on="0"/>
        <pt x="688" y="383" on="0"/>
        <pt x="849" y="383" on="0"/>
        <pt x="915" y="293" on="0"/>
        <pt x="916" y="202" on="1"/>
        <pt x="916" y="176" on="1"/>
        <pt x="916" y="86" on="0"/>
        <pt x="849" y="-9" on="0"/>
      </contour>
      <contour>
        <pt x="769" y="47" on="1"/>
        <pt x="815" y="47" on="0"/>
        <pt x="845" y="107" on="0"/>
        <pt x="845" y="167" on="1"/>
        <pt x="845" y="213" on="1"/>
        <pt x="845" y="272" on="0"/>
        <pt x="817" y="326" on="0"/>
        <pt x="721" y="326" on="0"/>
        <pt x="693" y="272" on="0"/>
        <pt x="693" y="214" on="1"/>
        <pt x="693" y="167" on="1"/>
        <pt x="693" y="107" on="0"/>
        <pt x="723" y="47" on="0"/>
      </contour>
      <contour>
        <pt x="229" y="331" on="1"/>
        <pt x="149" y="331" on="0"/>
        <pt x="84" y="426" on="0"/>
        <pt x="84" y="516" on="1"/>
        <pt x="84" y="542" on="1"/>
        <pt x="84" y="633" on="0"/>
        <pt x="148" y="723" on="0"/>
        <pt x="309" y="723" on="0"/>
        <pt x="376" y="632" on="0"/>
        <pt x="377" y="542" on="1"/>
        <pt x="377" y="516" on="1"/>
        <pt x="377" y="426" on="0"/>
        <pt x="309" y="331" on="0"/>
      </contour>
      <contour>
        <pt x="229" y="388" on="1"/>
        <pt x="275" y="388" on="0"/>
        <pt x="306" y="448" on="0"/>
        <pt x="306" y="508" on="1"/>
        <pt x="306" y="553" on="1"/>
        <pt x="306" y="612" on="0"/>
        <pt x="277" y="667" on="0"/>
        <pt x="181" y="667" on="0"/>
        <pt x="154" y="613" on="0"/>
        <pt x="154" y="554" on="1"/>
        <pt x="154" y="508" on="1"/>
        <pt x="154" y="448" on="0"/>
        <pt x="183" y="388" on="0"/>
      </contour>
    </TTGlyph>
    <TTGlyph name="period" xMin="91" yMin="0" xMax="216" yMax="118">
      <contour>
        <pt x="91" y="0" on="1"/>
        <pt x="91" y="118" on="1"/>
        <pt x="216" y="118" on="1"/>
        <pt x="216" y="0" on="1"/>
      </contour>
    </TTGlyph>
    <TTGlyph name="periodcentered" xMin="209" yMin="304" xMax="310" yMax="404">
      <contour>
        <pt x="209" y="304" on="1"/>
        <pt x="209" y="404" on="1"/>
        <pt x="310" y="404" on="1"/>
        <pt x="310" y="304" on="1"/>
      </contour>
    </TTGlyph>
    <TTGlyph name="perthousand" xMin="102" yMin="-9" xMax="1314" yMax="713">
      <contour>
        <pt x="344" y="0" on="1"/>
        <pt x="609" y="706" on="1"/>
        <pt x="682" y="706" on="1"/>
        <pt x="419" y="0" on="1"/>
      </contour>
      <contour>
        <pt x="1167" y="-9" on="1"/>
        <pt x="1087" y="-9" on="0"/>
        <pt x="1021" y="86" on="0"/>
        <pt x="1021" y="176" on="1"/>
        <pt x="1021" y="202" on="1"/>
        <pt x="1021" y="293" on="0"/>
        <pt x="1086" y="383" on="0"/>
        <pt x="1247" y="383" on="0"/>
        <pt x="1313" y="293" on="0"/>
        <pt x="1314" y="202" on="1"/>
        <pt x="1314" y="176" on="1"/>
        <pt x="1314" y="86" on="0"/>
        <pt x="1247" y="-9" on="0"/>
      </contour>
      <contour>
        <pt x="1167" y="47" on="1"/>
        <pt x="1213" y="47" on="0"/>
        <pt x="1244" y="107" on="0"/>
        <pt x="1244" y="167" on="1"/>
        <pt x="1244" y="213" on="1"/>
        <pt x="1244" y="271" on="0"/>
        <pt x="1215" y="326" on="0"/>
        <pt x="1119" y="326" on="0"/>
        <pt x="1091" y="272" on="0"/>
        <pt x="1091" y="214" on="1"/>
        <pt x="1091" y="167" on="1"/>
        <pt x="1091" y="107" on="0"/>
        <pt x="1121" y="47" on="0"/>
      </contour>
      <contour>
        <pt x="787" y="-9" on="1"/>
        <pt x="707" y="-9" on="0"/>
        <pt x="641" y="86" on="0"/>
        <pt x="641" y="176" on="1"/>
        <pt x="641" y="202" on="1"/>
        <pt x="641" y="293" on="0"/>
        <pt x="706" y="383" on="0"/>
        <pt x="867" y="383" on="0"/>
        <pt x="933" y="293" on="0"/>
        <pt x="934" y="202" on="1"/>
        <pt x="934" y="176" on="1"/>
        <pt x="934" y="86" on="0"/>
        <pt x="867" y="-9" on="0"/>
      </contour>
      <contour>
        <pt x="787" y="47" on="1"/>
        <pt x="833" y="47" on="0"/>
        <pt x="863" y="107" on="0"/>
        <pt x="863" y="167" on="1"/>
        <pt x="863" y="213" on="1"/>
        <pt x="863" y="272" on="0"/>
        <pt x="835" y="326" on="0"/>
        <pt x="739" y="326" on="0"/>
        <pt x="711" y="272" on="0"/>
        <pt x="711" y="214" on="1"/>
        <pt x="711" y="167" on="1"/>
        <pt x="711" y="107" on="0"/>
        <pt x="741" y="47" on="0"/>
      </contour>
      <contour>
        <pt x="248" y="321" on="1"/>
        <pt x="168" y="321" on="0"/>
        <pt x="102" y="416" on="0"/>
        <pt x="102" y="506" on="1"/>
        <pt x="102" y="532" on="1"/>
        <pt x="102" y="623" on="0"/>
        <pt x="167" y="713" on="0"/>
        <pt x="328" y="713" on="0"/>
        <pt x="394" y="624" on="0"/>
        <pt x="395" y="533" on="1"/>
        <pt x="395" y="506" on="1"/>
        <pt x="395" y="416" on="0"/>
        <pt x="328" y="321" on="0"/>
      </contour>
      <contour>
        <pt x="248" y="378" on="1"/>
        <pt x="294" y="378" on="0"/>
        <pt x="324" y="438" on="0"/>
        <pt x="324" y="498" on="1"/>
        <pt x="324" y="543" on="1"/>
        <pt x="324" y="602" on="0"/>
        <pt x="296" y="657" on="0"/>
        <pt x="200" y="657" on="0"/>
        <pt x="172" y="602" on="0"/>
        <pt x="172" y="544" on="1"/>
        <pt x="172" y="498" on="1"/>
        <pt x="172" y="438" on="0"/>
        <pt x="202" y="378" on="0"/>
      </contour>
    </TTGlyph>
    <TTGlyph name="pi" xMin="15" yMin="-11" xMax="544" yMax="518">
      <contour>
        <pt x="123" y="457" on="1"/>
        <pt x="68" y="457" on="0"/>
        <pt x="15" y="427" on="1"/>
        <pt x="15" y="488" on="1"/>
        <pt x="24" y="496" on="1"/>
        <pt x="34" y="503" on="0"/>
        <pt x="80" y="518" on="0"/>
        <pt x="106" y="518" on="1"/>
        <pt x="544" y="518" on="1"/>
        <pt x="544" y="457" on="1"/>
        <pt x="456" y="457" on="1"/>
        <pt x="456" y="163" on="1"/>
        <pt x="456" y="104" on="0"/>
        <pt x="482" y="73" on="0"/>
        <pt x="533" y="61" on="1"/>
        <pt x="510" y="-11" on="1"/>
        <pt x="431" y="-11" on="0"/>
        <pt x="364" y="47" on="0"/>
        <pt x="364" y="130" on="1"/>
        <pt x="364" y="457" on="1"/>
        <pt x="214" y="457" on="1"/>
        <pt x="214" y="0" on="1"/>
        <pt x="123" y="0" on="1"/>
      </contour>
    </TTGlyph>
    <TTGlyph name="plus" xMin="79" yMin="76" xMax="421" yMax="473">
      <contour>
        <pt x="213" y="76" on="1"/>
        <pt x="213" y="241" on="1"/>
        <pt x="79" y="241" on="1"/>
        <pt x="79" y="313" on="1"/>
        <pt x="213" y="313" on="1"/>
        <pt x="213" y="473" on="1"/>
        <pt x="287" y="473" on="1"/>
        <pt x="287" y="313" on="1"/>
        <pt x="421" y="313" on="1"/>
        <pt x="421" y="241" on="1"/>
        <pt x="287" y="241" on="1"/>
        <pt x="287" y="76" on="1"/>
      </contour>
    </TTGlyph>
    <TTGlyph name="plusminus" xMin="101" yMin="0" xMax="407" yMax="484">
      <contour>
        <pt x="101" y="0" on="1"/>
        <pt x="101" y="59" on="1"/>
        <pt x="407" y="59" on="1"/>
        <pt x="407" y="0" on="1"/>
      </contour>
      <contour>
        <pt x="225" y="163" on="1"/>
        <pt x="225" y="298" on="1"/>
        <pt x="101" y="298" on="1"/>
        <pt x="101" y="354" on="1"/>
        <pt x="225" y="354" on="1"/>
        <pt x="225" y="484" on="1"/>
        <pt x="284" y="484" on="1"/>
        <pt x="284" y="354" on="1"/>
        <pt x="407" y="354" on="1"/>
        <pt x="407" y="298" on="1"/>
        <pt x="284" y="298" on="1"/>
        <pt x="284" y="163" on="1"/>
      </contour>
    </TTGlyph>
    <TTGlyph name="product" xMin="78" yMin="-7" xMax="797" yMax="711">
      <contour>
        <pt x="438" y="-7" on="1"/>
        <pt x="286" y="-7" on="0"/>
        <pt x="78" y="200" on="0"/>
        <pt x="78" y="505" on="0"/>
        <pt x="286" y="711" on="0"/>
        <pt x="591" y="711" on="0"/>
        <pt x="797" y="506" on="0"/>
        <pt x="797" y="200" on="0"/>
        <pt x="590" y="-7" on="0"/>
      </contour>
      <contour>
        <pt x="438" y="40" on="1"/>
        <pt x="571" y="40" on="0"/>
        <pt x="745" y="219" on="0"/>
        <pt x="745" y="487" on="0"/>
        <pt x="572" y="665" on="0"/>
        <pt x="305" y="665" on="0"/>
        <pt x="131" y="487" on="0"/>
        <pt x="131" y="219" on="0"/>
        <pt x="305" y="40" on="0"/>
      </contour>
      <contour>
        <pt x="386" y="362" on="1"/>
        <pt x="477" y="362" on="1"/>
        <pt x="543" y="362" on="0"/>
        <pt x="543" y="428" on="1"/>
        <pt x="543" y="440" on="1"/>
        <pt x="543" y="519" on="0"/>
        <pt x="481" y="519" on="1"/>
        <pt x="386" y="519" on="1"/>
      </contour>
      <contour>
        <pt x="322" y="156" on="1"/>
        <pt x="322" y="563" on="1"/>
        <pt x="479" y="563" on="1"/>
        <pt x="605" y="563" on="0"/>
        <pt x="608" y="443" on="1"/>
        <pt x="608" y="437" on="1"/>
        <pt x="608" y="318" on="0"/>
        <pt x="473" y="318" on="1"/>
        <pt x="386" y="318" on="1"/>
        <pt x="386" y="156" on="1"/>
      </contour>
    </TTGlyph>
    <TTGlyph name="q" xMin="72" yMin="-199" xMax="495" yMax="527">
      <contour>
        <pt x="286" y="60" on="1"/>
        <pt x="331" y="60" on="0"/>
        <pt x="398" y="87" on="0"/>
        <pt x="403" y="98" on="1"/>
        <pt x="403" y="396" on="1"/>
        <pt x="403" y="420" on="0"/>
        <pt x="344" y="457" on="0"/>
        <pt x="231" y="457" on="0"/>
        <pt x="164" y="411" on="0"/>
        <pt x="164" y="365" on="1"/>
        <pt x="164" y="139" on="1"/>
        <pt x="164" y="60" on="0"/>
      </contour>
      <contour>
        <pt x="403" y="-199" on="1"/>
        <pt x="403" y="23" on="1"/>
        <pt x="358" y="-11" on="0"/>
        <pt x="182" y="-11" on="0"/>
        <pt x="72" y="77" on="0"/>
        <pt x="72" y="153" on="1"/>
        <pt x="72" y="355" on="1"/>
        <pt x="72" y="435" on="0"/>
        <pt x="174" y="527" on="0"/>
        <pt x="273" y="527" on="1"/>
        <pt x="312" y="527" on="0"/>
        <pt x="391" y="495" on="0"/>
        <pt x="403" y="476" on="1"/>
        <pt x="403" y="518" on="1"/>
        <pt x="495" y="518" on="1"/>
        <pt x="495" y="-199" on="1"/>
      </contour>
    </TTGlyph>
    <TTGlyph name="question" xMin="87" yMin="0" xMax="535" yMax="717">
      <contour>
        <pt x="215" y="0" on="1"/>
        <pt x="215" y="101" on="1"/>
        <pt x="314" y="101" on="1"/>
        <pt x="314" y="0" on="1"/>
      </contour>
      <contour>
        <pt x="492" y="660" on="1"/>
        <pt x="535" y="611" on="0"/>
        <pt x="535" y="483" on="0"/>
        <pt x="475" y="389" on="0"/>
        <pt x="407" y="317" on="1"/>
        <pt x="306" y="210" on="1"/>
        <pt x="228" y="210" on="1"/>
        <pt x="361" y="388" on="1"/>
        <pt x="399" y="439" on="0"/>
        <pt x="431" y="500" on="0"/>
        <pt x="431" y="587" on="0"/>
        <pt x="382" y="638" on="0"/>
        <pt x="246" y="638" on="0"/>
        <pt x="184" y="585" on="0"/>
        <pt x="184" y="533" on="1"/>
        <pt x="184" y="507" on="1"/>
        <pt x="87" y="507" on="1"/>
        <pt x="87" y="523" on="1"/>
        <pt x="87" y="632" on="0"/>
        <pt x="193" y="717" on="0"/>
        <pt x="443" y="717" on="0"/>
      </contour>
    </TTGlyph>
    <TTGlyph name="questiondown" xMin="72" yMin="-99" xMax="520" yMax="618">
      <component glyphName="question" x="607" y="618" scale="-1.0" flags="0x1004"/>
    </TTGlyph>
    <TTGlyph name="quotedbl" xMin="86" yMin="454" xMax="349" yMax="735">
      <contour>
        <pt x="270" y="454" on="1"/>
        <pt x="249" y="735" on="1"/>
        <pt x="349" y="735" on="1"/>
        <pt x="325" y="454" on="1"/>
      </contour>
      <contour>
        <pt x="107" y="454" on="1"/>
        <pt x="86" y="735" on="1"/>
        <pt x="186" y="735" on="1"/>
        <pt x="162" y="454" on="1"/>
      </contour>
    </TTGlyph>
    <TTGlyph name="quotedblbase" xMin="94" yMin="-165" xMax="420" yMax="114">
      <contour>
        <pt x="219" y="24" on="1"/>
        <pt x="219" y="-37" on="0"/>
        <pt x="165" y="-137" on="0"/>
        <pt x="135" y="-165" on="1"/>
        <pt x="96" y="-144" on="1"/>
        <pt x="163" y="-65" on="0"/>
        <pt x="163" y="0" on="1"/>
        <pt x="94" y="0" on="1"/>
        <pt x="94" y="114" on="1"/>
        <pt x="219" y="114" on="1"/>
      </contour>
      <contour>
        <pt x="420" y="24" on="1"/>
        <pt x="420" y="-37" on="0"/>
        <pt x="366" y="-137" on="0"/>
        <pt x="336" y="-165" on="1"/>
        <pt x="297" y="-144" on="1"/>
        <pt x="364" y="-65" on="0"/>
        <pt x="364" y="0" on="1"/>
        <pt x="295" y="0" on="1"/>
        <pt x="295" y="114" on="1"/>
        <pt x="420" y="114" on="1"/>
      </contour>
    </TTGlyph>
    <TTGlyph name="quotedblleft" xMin="156" yMin="438" xMax="483" yMax="717">
      <contour>
        <pt x="357" y="527" on="1"/>
        <pt x="357" y="588" on="0"/>
        <pt x="411" y="689" on="0"/>
        <pt x="441" y="717" on="1"/>
        <pt x="481" y="695" on="1"/>
        <pt x="414" y="616" on="0"/>
        <pt x="414" y="552" on="1"/>
        <pt x="483" y="552" on="1"/>
        <pt x="483" y="438" on="1"/>
        <pt x="357" y="438" on="1"/>
      </contour>
      <contour>
        <pt x="156" y="527" on="1"/>
        <pt x="156" y="588" on="0"/>
        <pt x="210" y="689" on="0"/>
        <pt x="240" y="717" on="1"/>
        <pt x="280" y="695" on="1"/>
        <pt x="213" y="616" on="0"/>
        <pt x="213" y="552" on="1"/>
        <pt x="282" y="552" on="1"/>
        <pt x="282" y="438" on="1"/>
        <pt x="156" y="438" on="1"/>
      </contour>
    </TTGlyph>
    <TTGlyph name="quotedblright" xMin="94" yMin="438" xMax="420" yMax="717">
      <contour>
        <pt x="420" y="627" on="1"/>
        <pt x="420" y="566" on="0"/>
        <pt x="366" y="466" on="0"/>
        <pt x="336" y="438" on="1"/>
        <pt x="297" y="459" on="1"/>
        <pt x="364" y="538" on="0"/>
        <pt x="364" y="603" on="1"/>
        <pt x="295" y="603" on="1"/>
        <pt x="295" y="717" on="1"/>
        <pt x="420" y="717" on="1"/>
      </contour>
      <contour>
        <pt x="219" y="627" on="1"/>
        <pt x="219" y="566" on="0"/>
        <pt x="165" y="466" on="0"/>
        <pt x="135" y="438" on="1"/>
        <pt x="96" y="459" on="1"/>
        <pt x="163" y="538" on="0"/>
        <pt x="163" y="603" on="1"/>
        <pt x="94" y="603" on="1"/>
        <pt x="94" y="717" on="1"/>
        <pt x="219" y="717" on="1"/>
      </contour>
    </TTGlyph>
    <TTGlyph name="quoteleft" xMin="156" yMin="438" xMax="282" yMax="717">
      <contour>
        <pt x="156" y="527" on="1"/>
        <pt x="156" y="588" on="0"/>
        <pt x="210" y="689" on="0"/>
        <pt x="240" y="717" on="1"/>
        <pt x="280" y="695" on="1"/>
        <pt x="213" y="616" on="0"/>
        <pt x="213" y="552" on="1"/>
        <pt x="282" y="552" on="1"/>
        <pt x="282" y="438" on="1"/>
        <pt x="156" y="438" on="1"/>
      </contour>
    </TTGlyph>
    <TTGlyph name="quoteright" xMin="94" yMin="438" xMax="219" yMax="717">
      <contour>
        <pt x="219" y="627" on="1"/>
        <pt x="219" y="566" on="0"/>
        <pt x="165" y="466" on="0"/>
        <pt x="135" y="438" on="1"/>
        <pt x="96" y="459" on="1"/>
        <pt x="163" y="538" on="0"/>
        <pt x="163" y="603" on="1"/>
        <pt x="94" y="603" on="1"/>
        <pt x="94" y="717" on="1"/>
        <pt x="219" y="717" on="1"/>
      </contour>
    </TTGlyph>
    <TTGlyph name="quotesinglbase" xMin="94" yMin="-165" xMax="219" yMax="114">
      <contour>
        <pt x="219" y="24" on="1"/>
        <pt x="219" y="-37" on="0"/>
        <pt x="165" y="-137" on="0"/>
        <pt x="135" y="-165" on="1"/>
        <pt x="96" y="-144" on="1"/>
        <pt x="163" y="-65" on="0"/>
        <pt x="163" y="0" on="1"/>
        <pt x="94" y="0" on="1"/>
        <pt x="94" y="114" on="1"/>
        <pt x="219" y="114" on="1"/>
      </contour>
    </TTGlyph>
    <TTGlyph name="quotesingle" xMin="87" yMin="454" xMax="188" yMax="735">
      <contour>
        <pt x="109" y="454" on="1"/>
        <pt x="87" y="735" on="1"/>
        <pt x="188" y="735" on="1"/>
        <pt x="164" y="454" on="1"/>
      </contour>
    </TTGlyph>
    <TTGlyph name="r" xMin="91" yMin="0" xMax="362" yMax="525">
      <contour>
        <pt x="91" y="0" on="1"/>
        <pt x="91" y="518" on="1"/>
        <pt x="183" y="518" on="1"/>
        <pt x="183" y="435" on="1"/>
        <pt x="200" y="481" on="0"/>
        <pt x="303" y="525" on="0"/>
        <pt x="362" y="525" on="1"/>
        <pt x="362" y="525" on="0"/>
        <pt x="359" y="446" on="1"/>
        <pt x="291" y="446" on="0"/>
        <pt x="183" y="391" on="0"/>
        <pt x="183" y="353" on="1"/>
        <pt x="183" y="0" on="1"/>
      </contour>
    </TTGlyph>
    <TTGlyph name="racute" xMin="91" yMin="0" xMax="386" yMax="774">
      <component glyphName="r" x="0" y="0" flags="0x1004"/>
      <component glyphName="acute" x="109" y="0" flags="0x1004"/>
    </TTGlyph>
    <TTGlyph name="radical" xMin="48" yMin="0" xMax="604" yMax="735">
      <contour>
        <pt x="48" y="216" on="1"/>
        <pt x="48" y="270" on="1"/>
        <pt x="175" y="270" on="1"/>
        <pt x="266" y="78" on="1"/>
        <pt x="538" y="735" on="1"/>
        <pt x="604" y="735" on="1"/>
        <pt x="305" y="0" on="1"/>
        <pt x="218" y="0" on="1"/>
        <pt x="106" y="216" on="1"/>
      </contour>
    </TTGlyph>
    <TTGlyph name="rcaron" xMin="91" yMin="0" xMax="373" yMax="758">
      <component glyphName="r" x="0" y="0" flags="0x1004"/>
      <component glyphName="caron" x="108" y="0" flags="0x1004"/>
    </TTGlyph>
    <TTGlyph name="registered" xMin="76" yMin="-7" xMax="795" yMax="711">
      <contour>
        <pt x="436" y="-7" on="1"/>
        <pt x="284" y="-7" on="0"/>
        <pt x="76" y="200" on="0"/>
        <pt x="76" y="505" on="0"/>
        <pt x="284" y="711" on="0"/>
        <pt x="589" y="711" on="0"/>
        <pt x="795" y="506" on="0"/>
        <pt x="795" y="200" on="0"/>
        <pt x="588" y="-7" on="0"/>
      </contour>
      <contour>
        <pt x="437" y="40" on="1"/>
        <pt x="570" y="40" on="0"/>
        <pt x="743" y="219" on="0"/>
        <pt x="743" y="487" on="0"/>
        <pt x="570" y="665" on="0"/>
        <pt x="304" y="665" on="0"/>
        <pt x="129" y="487" on="0"/>
        <pt x="129" y="219" on="0"/>
        <pt x="304" y="40" on="0"/>
      </contour>
      <contour>
        <pt x="355" y="362" on="1"/>
        <pt x="485" y="362" on="1"/>
        <pt x="552" y="362" on="0"/>
        <pt x="552" y="428" on="1"/>
        <pt x="552" y="440" on="1"/>
        <pt x="552" y="519" on="0"/>
        <pt x="490" y="519" on="1"/>
        <pt x="355" y="519" on="1"/>
      </contour>
      <contour>
        <pt x="291" y="156" on="1"/>
        <pt x="291" y="563" on="1"/>
        <pt x="488" y="563" on="1"/>
        <pt x="613" y="563" on="0"/>
        <pt x="616" y="443" on="1"/>
        <pt x="616" y="437" on="1"/>
        <pt x="616" y="345" on="0"/>
        <pt x="542" y="325" on="1"/>
        <pt x="632" y="156" on="1"/>
        <pt x="569" y="156" on="1"/>
        <pt x="481" y="318" on="1"/>
        <pt x="355" y="318" on="1"/>
        <pt x="355" y="156" on="1"/>
      </contour>
    </TTGlyph>
    <TTGlyph name="ring" xMin="30" yMin="570" xMax="220" yMax="744">
      <contour>
        <pt x="125" y="570" on="1"/>
        <pt x="85" y="570" on="0"/>
        <pt x="30" y="615" on="0"/>
        <pt x="30" y="699" on="0"/>
        <pt x="85" y="744" on="0"/>
        <pt x="165" y="744" on="0"/>
        <pt x="220" y="699" on="0"/>
        <pt x="220" y="615" on="0"/>
        <pt x="165" y="570" on="0"/>
      </contour>
      <contour>
        <pt x="125" y="602" on="1"/>
        <pt x="178" y="602" on="0"/>
        <pt x="178" y="712" on="0"/>
        <pt x="72" y="712" on="0"/>
        <pt x="72" y="602" on="0"/>
      </contour>
    </TTGlyph>
    <TTGlyph name="s" xMin="67" yMin="-11" xMax="426" yMax="527">
      <contour>
        <pt x="256" y="-11" on="1"/>
        <pt x="141" y="-11" on="0"/>
        <pt x="67" y="31" on="1"/>
        <pt x="90" y="99" on="1"/>
        <pt x="159" y="60" on="0"/>
        <pt x="244" y="60" on="1"/>
        <pt x="348" y="60" on="0"/>
        <pt x="348" y="137" on="1"/>
        <pt x="348" y="170" on="0"/>
        <pt x="329" y="203" on="0"/>
        <pt x="295" y="216" on="1"/>
        <pt x="172" y="262" on="1"/>
        <pt x="116" y="281" on="0"/>
        <pt x="71" y="337" on="0"/>
        <pt x="71" y="386" on="1"/>
        <pt x="71" y="455" on="0"/>
        <pt x="147" y="527" on="0"/>
        <pt x="342" y="527" on="0"/>
        <pt x="413" y="499" on="1"/>
        <pt x="392" y="429" on="1"/>
        <pt x="322" y="457" on="0"/>
        <pt x="196" y="457" on="0"/>
        <pt x="156" y="427" on="0"/>
        <pt x="156" y="366" on="0"/>
        <pt x="174" y="343" on="0"/>
        <pt x="201" y="333" on="1"/>
        <pt x="322" y="286" on="1"/>
        <pt x="386" y="261" on="0"/>
        <pt x="426" y="201" on="0"/>
        <pt x="426" y="71" on="0"/>
        <pt x="343" y="-11" on="0"/>
      </contour>
    </TTGlyph>
    <TTGlyph name="sacute" xMin="67" yMin="-11" xMax="426" yMax="774">
      <component glyphName="s" x="0" y="0" flags="0x1004"/>
      <component glyphName="acute" x="130" y="0" flags="0x1004"/>
    </TTGlyph>
    <TTGlyph name="scaron" xMin="67" yMin="-11" xMax="426" yMax="758">
      <component glyphName="s" x="0" y="0" flags="0x1004"/>
      <component glyphName="caron" x="129" y="0" flags="0x1004"/>
    </TTGlyph>
    <TTGlyph name="scedilla" xMin="67" yMin="-237" xMax="426" yMax="527">
      <component glyphName="s" x="0" y="0" flags="0x1004"/>
      <component glyphName="cedilla" x="151" y="0" flags="0x1004"/>
    </TTGlyph>
    <TTGlyph name="scircumflex" xMin="67" yMin="-11" xMax="426" yMax="758">
      <component glyphName="s" x="0" y="0" flags="0x1004"/>
      <component glyphName="circumflex" x="129" y="0" flags="0x1004"/>
    </TTGlyph>
    <TTGlyph name="section" xMin="70" yMin="-11" xMax="439" yMax="717">
      <contour>
        <pt x="162" y="370" on="0"/>
        <pt x="182" y="343" on="0"/>
        <pt x="208" y="333" on="1"/>
        <pt x="350" y="279" on="1"/>
        <pt x="359" y="298" on="0"/>
        <pt x="359" y="361" on="0"/>
        <pt x="340" y="393" on="0"/>
        <pt x="305" y="406" on="1"/>
        <pt x="178" y="451" on="1"/>
        <pt x="174" y="451" on="0"/>
        <pt x="162" y="409" on="0"/>
      </contour>
      <contour>
        <pt x="265" y="-11" on="1"/>
        <pt x="148" y="-11" on="0"/>
        <pt x="70" y="31" on="1"/>
        <pt x="70" y="31" on="0"/>
        <pt x="93" y="99" on="1"/>
        <pt x="165" y="60" on="0"/>
        <pt x="252" y="60" on="1"/>
        <pt x="359" y="60" on="0"/>
        <pt x="359" y="137" on="1"/>
        <pt x="359" y="171" on="0"/>
        <pt x="340" y="203" on="0"/>
        <pt x="305" y="216" on="1"/>
        <pt x="178" y="262" on="1"/>
        <pt x="120" y="283" on="0"/>
        <pt x="74" y="338" on="0"/>
        <pt x="74" y="453" on="0"/>
        <pt x="109" y="487" on="1"/>
        <pt x="74" y="516" on="0"/>
        <pt x="74" y="645" on="0"/>
        <pt x="152" y="717" on="0"/>
        <pt x="350" y="717" on="0"/>
        <pt x="427" y="688" on="1"/>
        <pt x="405" y="618" on="1"/>
        <pt x="333" y="646" on="0"/>
        <pt x="203" y="646" on="0"/>
        <pt x="162" y="616" on="0"/>
        <pt x="162" y="555" on="0"/>
        <pt x="180" y="534" on="0"/>
        <pt x="208" y="523" on="1"/>
        <pt x="333" y="475" on="1"/>
        <pt x="398" y="450" on="0"/>
        <pt x="439" y="391" on="0"/>
        <pt x="439" y="274" on="0"/>
        <pt x="413" y="238" on="1"/>
        <pt x="439" y="210" on="0"/>
        <pt x="439" y="71" on="0"/>
        <pt x="354" y="-11" on="0"/>
      </contour>
    </TTGlyph>
    <TTGlyph name="semicolon" xMin="121" yMin="-62" xMax="254" yMax="517">
      <component glyphName="period" x="30" y="399" flags="0x1004"/>
      <component glyphName="comma" x="35" y="103" flags="0x1004"/>
    </TTGlyph>
    <TTGlyph name="seven" xMin="92" yMin="0" xMax="522" yMax="706">
      <contour>
        <pt x="522" y="706" on="1"/>
        <pt x="522" y="629" on="1"/>
        <pt x="283" y="0" on="1"/>
        <pt x="180" y="0" on="1"/>
        <pt x="424" y="630" on="1"/>
        <pt x="92" y="630" on="1"/>
        <pt x="92" y="706" on="1"/>
      </contour>
    </TTGlyph>
    <TTGlyph name="six" xMin="87" yMin="-11" xMax="553" yMax="706">
      <contour>
        <pt x="317" y="68" on="1"/>
        <pt x="389" y="68" on="0"/>
        <pt x="461" y="128" on="0"/>
        <pt x="461" y="290" on="0"/>
        <pt x="390" y="349" on="0"/>
        <pt x="247" y="349" on="0"/>
        <pt x="178" y="286" on="0"/>
        <pt x="178" y="129" on="0"/>
        <pt x="246" y="68" on="0"/>
      </contour>
      <contour>
        <pt x="316" y="-11" on="1"/>
        <pt x="209" y="-11" on="0"/>
        <pt x="87" y="96" on="0"/>
        <pt x="87" y="314" on="0"/>
        <pt x="156" y="438" on="1"/>
        <pt x="309" y="706" on="1"/>
        <pt x="407" y="706" on="1"/>
        <pt x="232" y="411" on="1"/>
        <pt x="274" y="429" on="0"/>
        <pt x="319" y="429" on="1"/>
        <pt x="553" y="429" on="0"/>
        <pt x="553" y="206" on="1"/>
        <pt x="553" y="95" on="0"/>
        <pt x="424" y="-11" on="0"/>
      </contour>
    </TTGlyph>
    <TTGlyph name="slash" xMin="31" yMin="0" xMax="344" yMax="735">
      <contour>
        <pt x="31" y="0" on="1"/>
        <pt x="254" y="735" on="1"/>
        <pt x="344" y="735" on="1"/>
        <pt x="123" y="0" on="1"/>
      </contour>
    </TTGlyph>
    <TTGlyph name="sterling" xMin="81" yMin="0" xMax="527" yMax="725">
      <contour>
        <pt x="527" y="0" on="1"/>
        <pt x="127" y="0" on="1"/>
        <pt x="158" y="326" on="1"/>
        <pt x="81" y="326" on="1"/>
        <pt x="81" y="395" on="1"/>
        <pt x="164" y="395" on="1"/>
        <pt x="179" y="549" on="1"/>
        <pt x="186" y="625" on="0"/>
        <pt x="283" y="725" on="0"/>
        <pt x="439" y="725" on="0"/>
        <pt x="526" y="683" on="1"/>
        <pt x="500" y="615" on="1"/>
        <pt x="430" y="648" on="0"/>
        <pt x="376" y="648" on="1"/>
        <pt x="285" y="648" on="0"/>
        <pt x="273" y="539" on="1"/>
        <pt x="258" y="395" on="1"/>
        <pt x="474" y="395" on="1"/>
        <pt x="474" y="326" on="1"/>
        <pt x="251" y="326" on="1"/>
        <pt x="226" y="79" on="1"/>
        <pt x="527" y="79" on="1"/>
      </contour>
    </TTGlyph>
    <TTGlyph name="summation" xMin="55" yMin="0" xMax="525" yMax="706">
      <contour>
        <pt x="525" y="0" on="1"/>
        <pt x="55" y="0" on="1"/>
        <pt x="55" y="76" on="1"/>
        <pt x="292" y="372" on="1"/>
        <pt x="55" y="634" on="1"/>
        <pt x="55" y="706" on="1"/>
        <pt x="525" y="706" on="1"/>
        <pt x="525" y="628" on="1"/>
        <pt x="155" y="628" on="1"/>
        <pt x="379" y="394" on="1"/>
        <pt x="379" y="360" on="1"/>
        <pt x="157" y="79" on="1"/>
        <pt x="525" y="79" on="1"/>
      </contour>
    </TTGlyph>
    <TTGlyph name="t" xMin="39" yMin="-4" xMax="354" yMax="678">
      <contour>
        <pt x="330" y="-4" on="1"/>
        <pt x="221" y="-4" on="0"/>
        <pt x="125" y="64" on="0"/>
        <pt x="125" y="148" on="1"/>
        <pt x="125" y="448" on="1"/>
        <pt x="39" y="448" on="1"/>
        <pt x="39" y="518" on="1"/>
        <pt x="129" y="518" on="1"/>
        <pt x="140" y="678" on="1"/>
        <pt x="217" y="678" on="1"/>
        <pt x="217" y="518" on="1"/>
        <pt x="347" y="518" on="1"/>
        <pt x="347" y="448" on="1"/>
        <pt x="217" y="448" on="1"/>
        <pt x="217" y="154" on="1"/>
        <pt x="217" y="105" on="0"/>
        <pt x="274" y="73" on="0"/>
        <pt x="343" y="73" on="1"/>
        <pt x="354" y="73" on="1"/>
        <pt x="344" y="-4" on="1"/>
      </contour>
    </TTGlyph>
    <TTGlyph name="tbar" xMin="39" yMin="-4" xMax="354" yMax="678">
      <contour>
        <pt x="330" y="-4" on="1"/>
        <pt x="221" y="-4" on="0"/>
        <pt x="125" y="64" on="0"/>
        <pt x="125" y="148" on="1"/>
        <pt x="125" y="256" on="1"/>
        <pt x="55" y="256" on="1"/>
        <pt x="55" y="328" on="1"/>
        <pt x="125" y="328" on="1"/>
        <pt x="125" y="448" on="1"/>
        <pt x="39" y="448" on="1"/>
        <pt x="39" y="518" on="1"/>
        <pt x="129" y="518" on="1"/>
        <pt x="140" y="678" on="1"/>
        <pt x="217" y="678" on="1"/>
        <pt x="217" y="518" on="1"/>
        <pt x="347" y="518" on="1"/>
        <pt x="347" y="448" on="1"/>
        <pt x="217" y="448" on="1"/>
        <pt x="217" y="328" on="1"/>
        <pt x="313" y="328" on="1"/>
        <pt x="313" y="256" on="1"/>
        <pt x="217" y="256" on="1"/>
        <pt x="217" y="154" on="1"/>
        <pt x="217" y="105" on="0"/>
        <pt x="274" y="73" on="0"/>
        <pt x="343" y="73" on="1"/>
        <pt x="354" y="73" on="1"/>
        <pt x="344" y="-4" on="1"/>
      </contour>
    </TTGlyph>
    <TTGlyph name="tcaron" xMin="39" yMin="-4" xMax="396" yMax="875">
      <component glyphName="t" x="0" y="0" flags="0x1004"/>
      <component glyphName="caron.alt" x="-31" y="0" flags="0x1004"/>
    </TTGlyph>
    <TTGlyph name="thorn" xMin="86" yMin="-199" xMax="510" yMax="735">
      <contour>
        <pt x="294" y="57" on="1"/>
        <pt x="349" y="57" on="0"/>
        <pt x="418" y="112" on="0"/>
        <pt x="418" y="158" on="1"/>
        <pt x="418" y="362" on="1"/>
        <pt x="418" y="407" on="0"/>
        <pt x="351" y="456" on="0"/>
        <pt x="256" y="456" on="0"/>
        <pt x="187" y="417" on="0"/>
        <pt x="178" y="402" on="1"/>
        <pt x="178" y="87" on="1"/>
        <pt x="231" y="57" on="0"/>
      </contour>
      <contour>
        <pt x="178" y="-199" on="1"/>
        <pt x="86" y="-199" on="1"/>
        <pt x="87" y="735" on="1"/>
        <pt x="178" y="735" on="1"/>
        <pt x="178" y="485" on="1"/>
        <pt x="231" y="525" on="0"/>
        <pt x="408" y="525" on="0"/>
        <pt x="510" y="433" on="0"/>
        <pt x="510" y="356" on="1"/>
        <pt x="510" y="168" on="1"/>
        <pt x="510" y="88" on="0"/>
        <pt x="399" y="-12" on="0"/>
        <pt x="300" y="-12" on="1"/>
        <pt x="234" y="-12" on="0"/>
        <pt x="178" y="17" on="1"/>
      </contour>
    </TTGlyph>
    <TTGlyph name="three" xMin="102" yMin="-11" xMax="550" yMax="717">
      <contour>
        <pt x="332" y="-11" on="1"/>
        <pt x="214" y="-11" on="0"/>
        <pt x="115" y="85" on="0"/>
        <pt x="102" y="210" on="1"/>
        <pt x="195" y="210" on="1"/>
        <pt x="201" y="124" on="0"/>
        <pt x="261" y="68" on="0"/>
        <pt x="337" y="68" on="1"/>
        <pt x="457" y="68" on="0"/>
        <pt x="457" y="195" on="1"/>
        <pt x="457" y="280" on="0"/>
        <pt x="393" y="337" on="0"/>
        <pt x="287" y="337" on="1"/>
        <pt x="287" y="410" on="1"/>
        <pt x="368" y="410" on="0"/>
        <pt x="408" y="429" on="1"/>
        <pt x="444" y="447" on="0"/>
        <pt x="444" y="531" on="1"/>
        <pt x="444" y="638" on="0"/>
        <pt x="330" y="638" on="1"/>
        <pt x="259" y="638" on="0"/>
        <pt x="200" y="585" on="0"/>
        <pt x="200" y="500" on="1"/>
        <pt x="106" y="500" on="1"/>
        <pt x="106" y="631" on="0"/>
        <pt x="172" y="676" on="1"/>
        <pt x="230" y="717" on="0"/>
        <pt x="330" y="717" on="1"/>
        <pt x="426" y="717" on="0"/>
        <pt x="536" y="626" on="0"/>
        <pt x="536" y="533" on="1"/>
        <pt x="536" y="462" on="0"/>
        <pt x="482" y="385" on="0"/>
        <pt x="422" y="375" on="1"/>
        <pt x="486" y="361" on="0"/>
        <pt x="550" y="279" on="0"/>
        <pt x="550" y="94" on="0"/>
        <pt x="437" y="-11" on="0"/>
      </contour>
    </TTGlyph>
    <TTGlyph name="threequarters" xMin="97" yMin="0" xMax="934" yMax="740">
      <contour>
        <pt x="335" y="0" on="1"/>
        <pt x="669" y="706" on="1"/>
        <pt x="731" y="706" on="1"/>
        <pt x="400" y="0" on="1"/>
      </contour>
      <contour>
        <pt x="808" y="0" on="1"/>
        <pt x="808" y="101" on="1"/>
        <pt x="596" y="101" on="1"/>
        <pt x="596" y="146" on="1"/>
        <pt x="771" y="436" on="1"/>
        <pt x="840" y="436" on="1"/>
        <pt x="670" y="146" on="1"/>
        <pt x="808" y="146" on="1"/>
        <pt x="808" y="260" on="1"/>
        <pt x="863" y="260" on="1"/>
        <pt x="863" y="146" on="1"/>
        <pt x="934" y="146" on="1"/>
        <pt x="934" y="101" on="1"/>
        <pt x="863" y="101" on="1"/>
        <pt x="863" y="0" on="1"/>
      </contour>
      <contour>
        <pt x="264" y="319" on="1"/>
        <pt x="180" y="319" on="0"/>
        <pt x="104" y="378" on="0"/>
        <pt x="97" y="455" on="1"/>
        <pt x="163" y="455" on="1"/>
        <pt x="166" y="400" on="0"/>
        <pt x="213" y="364" on="0"/>
        <pt x="311" y="364" on="0"/>
        <pt x="348" y="401" on="0"/>
        <pt x="348" y="487" on="0"/>
        <pt x="303" y="521" on="0"/>
        <pt x="229" y="521" on="1"/>
        <pt x="229" y="562" on="1"/>
        <pt x="322" y="562" on="0"/>
        <pt x="334" y="592" on="1"/>
        <pt x="339" y="605" on="0"/>
        <pt x="339" y="632" on="1"/>
        <pt x="339" y="694" on="0"/>
        <pt x="260" y="694" on="1"/>
        <pt x="209" y="694" on="0"/>
        <pt x="169" y="665" on="0"/>
        <pt x="169" y="612" on="1"/>
        <pt x="104" y="612" on="1"/>
        <pt x="105" y="687" on="0"/>
        <pt x="185" y="740" on="0"/>
        <pt x="327" y="740" on="0"/>
        <pt x="404" y="687" on="0"/>
        <pt x="404" y="592" on="0"/>
        <pt x="367" y="548" on="0"/>
        <pt x="324" y="542" on="1"/>
        <pt x="370" y="534" on="0"/>
        <pt x="414" y="487" on="0"/>
        <pt x="414" y="380" on="0"/>
        <pt x="337" y="319" on="0"/>
      </contour>
    </TTGlyph>
    <TTGlyph name="tilde" xMin="-20" yMin="587" xMax="270" yMax="706">
      <contour>
        <pt x="71" y="587" on="1"/>
        <pt x="25" y="587" on="0"/>
        <pt x="-20" y="640" on="0"/>
        <pt x="-20" y="699" on="1"/>
        <pt x="27" y="699" on="1"/>
        <pt x="27" y="654" on="0"/>
        <pt x="62" y="654" on="1"/>
        <pt x="76" y="654" on="0"/>
        <pt x="142" y="706" on="0"/>
        <pt x="225" y="706" on="0"/>
        <pt x="270" y="653" on="0"/>
        <pt x="270" y="594" on="1"/>
        <pt x="222" y="594" on="1"/>
        <pt x="222" y="640" on="0"/>
        <pt x="188" y="640" on="1"/>
        <pt x="174" y="640" on="0"/>
        <pt x="108" y="587" on="0"/>
      </contour>
    </TTGlyph>
    <TTGlyph name="trademark" xMin="65" yMin="374" xMax="786" yMax="706">
      <contour>
        <pt x="168" y="374" on="1"/>
        <pt x="168" y="650" on="1"/>
        <pt x="65" y="650" on="1"/>
        <pt x="65" y="706" on="1"/>
        <pt x="338" y="706" on="1"/>
        <pt x="338" y="650" on="1"/>
        <pt x="234" y="650" on="1"/>
        <pt x="234" y="374" on="1"/>
      </contour>
      <contour>
        <pt x="413" y="374" on="1"/>
        <pt x="413" y="706" on="1"/>
        <pt x="509" y="706" on="1"/>
        <pt x="599" y="504" on="1"/>
        <pt x="690" y="706" on="1"/>
        <pt x="786" y="706" on="1"/>
        <pt x="786" y="374" on="1"/>
        <pt x="724" y="374" on="1"/>
        <pt x="724" y="649" on="1"/>
        <pt x="640" y="455" on="1"/>
        <pt x="561" y="455" on="1"/>
        <pt x="474" y="649" on="1"/>
        <pt x="474" y="374" on="1"/>
      </contour>
    </TTGlyph>
    <TTGlyph name="two" xMin="80" yMin="0" xMax="535" yMax="717">
      <contour>
        <pt x="531" y="0" on="1"/>
        <pt x="113" y="0" on="1"/>
        <pt x="104" y="77" on="1"/>
        <pt x="342" y="336" on="1"/>
        <pt x="402" y="401" on="0"/>
        <pt x="442" y="467" on="0"/>
        <pt x="442" y="583" on="0"/>
        <pt x="385" y="638" on="0"/>
        <pt x="239" y="638" on="0"/>
        <pt x="178" y="583" on="0"/>
        <pt x="178" y="500" on="1"/>
        <pt x="80" y="500" on="1"/>
        <pt x="80" y="717" on="0"/>
        <pt x="312" y="717" on="1"/>
        <pt x="421" y="717" on="0"/>
        <pt x="535" y="606" on="0"/>
        <pt x="535" y="517" on="1"/>
        <pt x="535" y="441" on="0"/>
        <pt x="497" y="383" on="1"/>
        <pt x="479" y="356" on="0"/>
        <pt x="411" y="284" on="1"/>
        <pt x="215" y="76" on="1"/>
        <pt x="531" y="76" on="1"/>
      </contour>
    </TTGlyph>
    <TTGlyph name="u" xMin="85" yMin="-11" xMax="506" yMax="518">
      <contour>
        <pt x="263" y="-11" on="1"/>
        <pt x="173" y="-11" on="0"/>
        <pt x="85" y="75" on="0"/>
        <pt x="85" y="142" on="1"/>
        <pt x="85" y="518" on="1"/>
        <pt x="177" y="518" on="1"/>
        <pt x="177" y="141" on="1"/>
        <pt x="177" y="103" on="0"/>
        <pt x="233" y="60" on="0"/>
        <pt x="344" y="60" on="0"/>
        <pt x="414" y="115" on="0"/>
        <pt x="414" y="151" on="1"/>
        <pt x="414" y="518" on="1"/>
        <pt x="506" y="518" on="1"/>
        <pt x="506" y="0" on="1"/>
        <pt x="424" y="0" on="1"/>
        <pt x="414" y="65" on="1"/>
        <pt x="371" y="-11" on="0"/>
      </contour>
    </TTGlyph>
    <TTGlyph name="uacute" xMin="85" yMin="-11" xMax="506" yMax="774">
      <component glyphName="u" x="0" y="0" flags="0x1004"/>
      <component glyphName="acute" x="180" y="0" flags="0x1004"/>
    </TTGlyph>
    <TTGlyph name="ubreve" xMin="85" yMin="-11" xMax="506" yMax="735">
      <component glyphName="u" x="0" y="0" flags="0x1004"/>
      <component glyphName="breve" x="173" y="0" flags="0x1004"/>
    </TTGlyph>
    <TTGlyph name="ucircumflex" xMin="85" yMin="-11" xMax="506" yMax="758">
      <component glyphName="u" x="0" y="0" flags="0x1004"/>
      <component glyphName="circumflex" x="179" y="0" flags="0x1004"/>
    </TTGlyph>
    <TTGlyph name="udieresis" xMin="85" yMin="-11" xMax="506" yMax="744">
      <component glyphName="u" x="0" y="0" flags="0x1004"/>
      <component glyphName="dieresis" x="53" y="0" flags="0x1004"/>
    </TTGlyph>
    <TTGlyph name="ugrave" xMin="85" yMin="-11" xMax="506" yMax="774">
      <component glyphName="u" x="0" y="0" flags="0x1004"/>
      <component glyphName="grave" x="138" y="0" flags="0x1004"/>
    </TTGlyph>
    <TTGlyph name="uhungarumlaut" xMin="85" yMin="-11" xMax="556" yMax="817">
      <component glyphName="u" x="0" y="0" flags="0x1004"/>
      <component glyphName="hungarumlaut" x="98" y="0" flags="0x1004"/>
    </TTGlyph>
    <TTGlyph name="umacron" xMin="85" yMin="-11" xMax="506" yMax="717">
      <component glyphName="u" x="0" y="0" flags="0x1004"/>
      <component glyphName="macron" x="178" y="0" flags="0x1004"/>
    </TTGlyph>
    <TTGlyph name="underscore" xMin="7" yMin="-51" xMax="447" yMax="22">
      <contour>
        <pt x="7" y="-51" on="1"/>
        <pt x="7" y="22" on="1"/>
        <pt x="447" y="22" on="1"/>
        <pt x="447" y="-51" on="1"/>
      </contour>
    </TTGlyph>
    <TTGlyph name="uni00AD" xMin="84" yMin="244" xMax="406" yMax="313">
      <contour>
        <pt x="84" y="244" on="1"/>
        <pt x="84" y="313" on="1"/>
        <pt x="406" y="313" on="1"/>
        <pt x="406" y="244" on="1"/>
      </contour>
    </TTGlyph>
    <TTGlyph name="uni00B2" xMin="99" yMin="339" xMax="402" yMax="773">
      <contour>
        <pt x="402" y="339" on="1"/>
        <pt x="119" y="339" on="1"/>
        <pt x="113" y="395" on="1"/>
        <pt x="264" y="521" on="1"/>
        <pt x="307" y="559" on="0"/>
        <pt x="337" y="607" on="0"/>
        <pt x="337" y="644" on="1"/>
        <pt x="337" y="722" on="0"/>
        <pt x="260" y="722" on="1"/>
        <pt x="213" y="722" on="0"/>
        <pt x="168" y="678" on="0"/>
        <pt x="168" y="620" on="1"/>
        <pt x="99" y="620" on="1"/>
        <pt x="98" y="699" on="0"/>
        <pt x="183" y="773" on="0"/>
        <pt x="325" y="773" on="0"/>
        <pt x="402" y="705" on="0"/>
        <pt x="402" y="592" on="0"/>
        <pt x="356" y="524" on="0"/>
        <pt x="302" y="476" on="1"/>
        <pt x="198" y="393" on="1"/>
        <pt x="402" y="393" on="1"/>
      </contour>
    </TTGlyph>
    <TTGlyph name="uni00B3" xMin="105" yMin="325" xMax="424" yMax="773">
      <contour>
        <pt x="272" y="325" on="1"/>
        <pt x="191" y="325" on="0"/>
        <pt x="107" y="390" on="0"/>
        <pt x="105" y="474" on="1"/>
        <pt x="169" y="474" on="1"/>
        <pt x="169" y="416" on="0"/>
        <pt x="222" y="378" on="0"/>
        <pt x="313" y="378" on="0"/>
        <pt x="362" y="415" on="0"/>
        <pt x="362" y="495" on="0"/>
        <pt x="310" y="532" on="0"/>
        <pt x="234" y="532" on="1"/>
        <pt x="230" y="532" on="1"/>
        <pt x="230" y="583" on="1"/>
        <pt x="233" y="583" on="1"/>
        <pt x="317" y="583" on="0"/>
        <pt x="338" y="604" on="1"/>
        <pt x="349" y="616" on="0"/>
        <pt x="354" y="637" on="0"/>
        <pt x="354" y="683" on="0"/>
        <pt x="313" y="720" on="0"/>
        <pt x="221" y="720" on="0"/>
        <pt x="173" y="685" on="0"/>
        <pt x="173" y="635" on="1"/>
        <pt x="173" y="629" on="1"/>
        <pt x="110" y="629" on="1"/>
        <pt x="110" y="711" on="0"/>
        <pt x="197" y="773" on="0"/>
        <pt x="331" y="773" on="0"/>
        <pt x="415" y="712" on="0"/>
        <pt x="415" y="657" on="1"/>
        <pt x="415" y="578" on="0"/>
        <pt x="337" y="559" on="1"/>
        <pt x="424" y="540" on="0"/>
        <pt x="424" y="452" on="1"/>
        <pt x="424" y="390" on="0"/>
        <pt x="341" y="325" on="0"/>
      </contour>
    </TTGlyph>
    <TTGlyph name="uni00B9" xMin="101" yMin="339" xMax="412" yMax="754">
      <contour>
        <pt x="101" y="339" on="1"/>
        <pt x="101" y="388" on="1"/>
        <pt x="235" y="388" on="1"/>
        <pt x="235" y="700" on="1"/>
        <pt x="110" y="688" on="1"/>
        <pt x="104" y="738" on="1"/>
        <pt x="247" y="754" on="1"/>
        <pt x="299" y="754" on="1"/>
        <pt x="299" y="388" on="1"/>
        <pt x="412" y="388" on="1"/>
        <pt x="412" y="339" on="1"/>
      </contour>
    </TTGlyph>
    <TTGlyph name="uni0122" xMin="91" yMin="-384" xMax="664" yMax="717">
      <component glyphName="uni0326" x="224" y="0" flags="0x1004"/>
      <component glyphName="G" x="0" y="0" flags="0x1004"/>
    </TTGlyph>
    <TTGlyph name="uni0123" xMin="72" yMin="-199" xMax="493" yMax="936">
      <component glyphName="uni0312" x="130" y="0" flags="0x1004"/>
      <component glyphName="g" x="0" y="0" flags="0x1004"/>
    </TTGlyph>
    <TTGlyph name="uni0136" xMin="106" yMin="-384" xMax="659" yMax="706">
      <component glyphName="uni0326" x="190" y="0" flags="0x1004"/>
      <component glyphName="K" x="0" y="0" flags="0x1004"/>
    </TTGlyph>
    <TTGlyph name="uni0137" xMin="91" yMin="-384" xMax="552" yMax="735">
      <component glyphName="uni0326" x="150" y="0" flags="0x1004"/>
      <component glyphName="k" x="0" y="0" flags="0x1004"/>
    </TTGlyph>
    <TTGlyph name="uni013B" xMin="106" yMin="-384" xMax="521" yMax="706">
      <component glyphName="uni0326" x="148" y="0" flags="0x1004"/>
      <component glyphName="L" x="0" y="0" flags="0x1004"/>
    </TTGlyph>
    <TTGlyph name="uni013C" xMin="93" yMin="-384" xMax="296" yMax="735">
      <component glyphName="uni0326" x="30" y="0" flags="0x1004"/>
      <component glyphName="l" x="0" y="0" flags="0x1004"/>
    </TTGlyph>
    <TTGlyph name="uni0145" xMin="106" yMin="-384" xMax="672" yMax="706">
      <component glyphName="uni0326" x="233" y="0" flags="0x1004"/>
      <component glyphName="N" x="0" y="0" flags="0x1004"/>
    </TTGlyph>
</ttFont>
